<svg width="200" height="254" viewBox="0 0 200 254" fill="none" xmlns="http://www.w3.org/2000/svg">
<rect x="0.5" y="0.5" width="199" height="253" rx="9.5" stroke="white"/>
<rect width="70" height="70" transform="translate(65 48)" fill="white"/>
<g filter="url(#filter0_d_2651_1161)">
<path d="M90.7251 62.2917L86.9918 56.1083C85.5918 53.8333 82.821 52.55 80.2251 53.3083C76.3168 54.475 74.8001 58.8792 76.7543 62.1167L80.6043 68.4458C81.0418 69.1167 81.946 69.35 82.6168 68.9417L90.2293 64.3042C90.9293 63.8667 91.1626 62.9625 90.7251 62.2917Z" fill="#626780"/>
</g>
<g filter="url(#filter1_d_2651_1161)">
<path d="M122.575 89.4458L114.379 78.3625C111.521 74.5125 106.563 72.7041 101.896 73.9583C101.896 73.9291 101.867 73.9291 101.867 73.9L97.0253 65.9375C96.1503 64.5666 94.3419 64.1291 92.9711 64.975L82.8503 71.1291C81.4503 71.9458 81.0128 73.7833 81.8586 75.1833L86.6711 83.1458C86.6711 83.1458 86.6711 83.175 86.7003 83.175C83.4628 86.7625 82.7628 91.9833 84.9211 96.3291L90.9878 108.696C92.8544 112.517 97.2586 113.975 100.992 112.05C101.284 111.904 101.371 111.554 101.196 111.262L96.6461 103.737C96.0044 102.687 96.3253 101.346 97.3753 100.675C98.4253 100.062 99.7669 100.383 100.438 101.404L105.017 108.929C105.192 109.192 105.542 109.279 105.804 109.133L108.604 107.442C108.867 107.267 108.954 106.917 108.809 106.654L104.229 99.1291C103.617 98.0791 103.938 96.7375 104.959 96.0666C106.038 95.4541 107.379 95.775 108.021 96.7958L112.6 104.321C112.775 104.583 113.125 104.671 113.388 104.525L116.188 102.833C116.45 102.658 116.538 102.308 116.392 102.046L111.813 94.5208C111.2 93.4708 111.521 92.1291 112.542 91.4583C113.621 90.8458 114.963 91.1666 115.604 92.1875L120.213 99.6833C120.388 99.9458 120.738 100.033 121 99.8583C124.384 97.4375 125.142 92.8875 122.575 89.4458Z" fill="#626780"/>
</g>
<g filter="url(#filter2_d_2651_1161)">
<path d="M46.0208 151.624C46.0208 149.992 46.3968 148.528 47.1488 147.232C47.9168 145.936 48.9488 144.928 50.2448 144.208C51.5568 143.472 52.9888 143.104 54.5408 143.104C56.3168 143.104 57.8928 143.544 59.2688 144.424C60.6608 145.288 61.6688 146.52 62.2928 148.12H59.0048C58.5728 147.24 57.9728 146.584 57.2048 146.152C56.4368 145.72 55.5488 145.504 54.5408 145.504C53.4368 145.504 52.4528 145.752 51.5888 146.248C50.7248 146.744 50.0448 147.456 49.5488 148.384C49.0688 149.312 48.8288 150.392 48.8288 151.624C48.8288 152.856 49.0688 153.936 49.5488 154.864C50.0448 155.792 50.7248 156.512 51.5888 157.024C52.4528 157.52 53.4368 157.768 54.5408 157.768C55.5488 157.768 56.4368 157.552 57.2048 157.12C57.9728 156.688 58.5728 156.032 59.0048 155.152H62.2928C61.6688 156.752 60.6608 157.984 59.2688 158.848C57.8928 159.712 56.3168 160.144 54.5408 160.144C52.9728 160.144 51.5408 159.784 50.2448 159.064C48.9488 158.328 47.9168 157.312 47.1488 156.016C46.3968 154.72 46.0208 153.256 46.0208 151.624ZM68.2313 142.24V160H65.4953V142.24H68.2313ZM83.9434 153.064C83.9434 153.56 83.9114 154.008 83.8474 154.408H73.7434C73.8234 155.464 74.2154 156.312 74.9194 156.952C75.6234 157.592 76.4874 157.912 77.5114 157.912C78.9834 157.912 80.0234 157.296 80.6314 156.064H83.5834C83.1834 157.28 82.4554 158.28 81.3994 159.064C80.3594 159.832 79.0634 160.216 77.5114 160.216C76.2474 160.216 75.1114 159.936 74.1034 159.376C73.1114 158.8 72.3274 158 71.7514 156.976C71.1914 155.936 70.9114 154.736 70.9114 153.376C70.9114 152.016 71.1834 150.824 71.7274 149.8C72.2874 148.76 73.0634 147.96 74.0554 147.4C75.0634 146.84 76.2154 146.56 77.5114 146.56C78.7594 146.56 79.8714 146.832 80.8474 147.376C81.8234 147.92 82.5834 148.688 83.1274 149.68C83.6714 150.656 83.9434 151.784 83.9434 153.064ZM81.0874 152.2C81.0714 151.192 80.7114 150.384 80.0074 149.776C79.3034 149.168 78.4314 148.864 77.3914 148.864C76.4474 148.864 75.6394 149.168 74.9674 149.776C74.2954 150.368 73.8954 151.176 73.7674 152.2H81.0874ZM85.7239 153.328C85.7239 152 85.9959 150.824 86.5399 149.8C87.0999 148.776 87.8519 147.984 88.7959 147.424C89.7559 146.848 90.8119 146.56 91.9639 146.56C93.0039 146.56 93.9079 146.768 94.6759 147.184C95.4599 147.584 96.0839 148.088 96.5479 148.696V146.776H99.3079V160H96.5479V158.032C96.0839 158.656 95.4519 159.176 94.6519 159.592C93.8519 160.008 92.9399 160.216 91.9159 160.216C90.7799 160.216 89.7399 159.928 88.7959 159.352C87.8519 158.76 87.0999 157.944 86.5399 156.904C85.9959 155.848 85.7239 154.656 85.7239 153.328ZM96.5479 153.376C96.5479 152.464 96.3559 151.672 95.9719 151C95.6039 150.328 95.1159 149.816 94.5079 149.464C93.8999 149.112 93.2439 148.936 92.5399 148.936C91.8359 148.936 91.1799 149.112 90.5719 149.464C89.9639 149.8 89.4679 150.304 89.0839 150.976C88.7159 151.632 88.5319 152.416 88.5319 153.328C88.5319 154.24 88.7159 155.04 89.0839 155.728C89.4679 156.416 89.9639 156.944 90.5719 157.312C91.1959 157.664 91.8519 157.84 92.5399 157.84C93.2439 157.84 93.8999 157.664 94.5079 157.312C95.1159 156.96 95.6039 156.448 95.9719 155.776C96.3559 155.088 96.5479 154.288 96.5479 153.376ZM109.574 146.56C110.614 146.56 111.542 146.776 112.358 147.208C113.19 147.64 113.838 148.28 114.302 149.128C114.766 149.976 114.998 151 114.998 152.2V160H112.286V152.608C112.286 151.424 111.99 150.52 111.398 149.896C110.806 149.256 109.998 148.936 108.974 148.936C107.95 148.936 107.134 149.256 106.526 149.896C105.934 150.52 105.638 151.424 105.638 152.608V160H102.902V146.776H105.638V148.288C106.086 147.744 106.654 147.32 107.342 147.016C108.046 146.712 108.79 146.56 109.574 146.56ZM119.88 145.024C119.384 145.024 118.968 144.856 118.632 144.52C118.296 144.184 118.128 143.768 118.128 143.272C118.128 142.776 118.296 142.36 118.632 142.024C118.968 141.688 119.384 141.52 119.88 141.52C120.36 141.52 120.768 141.688 121.104 142.024C121.44 142.36 121.608 142.776 121.608 143.272C121.608 143.768 121.44 144.184 121.104 144.52C120.768 144.856 120.36 145.024 119.88 145.024ZM121.224 146.776V160H118.488V146.776H121.224ZM131.488 146.56C132.528 146.56 133.456 146.776 134.272 147.208C135.104 147.64 135.752 148.28 136.216 149.128C136.68 149.976 136.912 151 136.912 152.2V160H134.2V152.608C134.2 151.424 133.904 150.52 133.312 149.896C132.72 149.256 131.912 148.936 130.888 148.936C129.864 148.936 129.048 149.256 128.44 149.896C127.848 150.52 127.552 151.424 127.552 152.608V160H124.816V146.776H127.552V148.288C128 147.744 128.568 147.32 129.256 147.016C129.96 146.712 130.704 146.56 131.488 146.56ZM145.73 146.56C146.754 146.56 147.658 146.768 148.442 147.184C149.242 147.584 149.866 148.088 150.314 148.696V146.776H153.074V160.216C153.074 161.432 152.818 162.512 152.306 163.456C151.794 164.416 151.05 165.168 150.074 165.712C149.114 166.256 147.962 166.528 146.618 166.528C144.826 166.528 143.338 166.104 142.154 165.256C140.97 164.424 140.298 163.288 140.138 161.848H142.85C143.058 162.536 143.498 163.088 144.17 163.504C144.858 163.936 145.674 164.152 146.618 164.152C147.722 164.152 148.61 163.816 149.282 163.144C149.97 162.472 150.314 161.496 150.314 160.216V158.008C149.85 158.632 149.218 159.16 148.418 159.592C147.634 160.008 146.738 160.216 145.73 160.216C144.578 160.216 143.522 159.928 142.562 159.352C141.618 158.76 140.866 157.944 140.306 156.904C139.762 155.848 139.49 154.656 139.49 153.328C139.49 152 139.762 150.824 140.306 149.8C140.866 148.776 141.618 147.984 142.562 147.424C143.522 146.848 144.578 146.56 145.73 146.56ZM150.314 153.376C150.314 152.464 150.122 151.672 149.738 151C149.37 150.328 148.882 149.816 148.274 149.464C147.666 149.112 147.01 148.936 146.306 148.936C145.602 148.936 144.946 149.112 144.338 149.464C143.73 149.8 143.234 150.304 142.85 150.976C142.482 151.632 142.298 152.416 142.298 153.328C142.298 154.24 142.482 155.04 142.85 155.728C143.234 156.416 143.73 156.944 144.338 157.312C144.962 157.664 145.618 157.84 146.306 157.84C147.01 157.84 147.666 157.664 148.274 157.312C148.882 156.96 149.37 156.448 149.738 155.776C150.122 155.088 150.314 154.288 150.314 153.376ZM67.4149 182.776L59.3029 202.216H56.4709L59.1589 195.784L53.9509 182.776H56.9989L60.7189 192.856L64.5829 182.776H67.4149ZM75.2157 196.216C73.9677 196.216 72.8397 195.936 71.8317 195.376C70.8237 194.8 70.0317 194 69.4557 192.976C68.8797 191.936 68.5917 190.736 68.5917 189.376C68.5917 188.032 68.8877 186.84 69.4797 185.8C70.0717 184.76 70.8797 183.96 71.9037 183.4C72.9277 182.84 74.0717 182.56 75.3357 182.56C76.5997 182.56 77.7437 182.84 78.7677 183.4C79.7917 183.96 80.5997 184.76 81.1917 185.8C81.7837 186.84 82.0797 188.032 82.0797 189.376C82.0797 190.72 81.7757 191.912 81.1677 192.952C80.5597 193.992 79.7277 194.8 78.6717 195.376C77.6317 195.936 76.4797 196.216 75.2157 196.216ZM75.2157 193.84C75.9197 193.84 76.5757 193.672 77.1837 193.336C77.8077 193 78.3117 192.496 78.6957 191.824C79.0797 191.152 79.2717 190.336 79.2717 189.376C79.2717 188.416 79.0877 187.608 78.7197 186.952C78.3517 186.28 77.8637 185.776 77.2557 185.44C76.6477 185.104 75.9917 184.936 75.2877 184.936C74.5837 184.936 73.9277 185.104 73.3197 185.44C72.7277 185.776 72.2557 186.28 71.9037 186.952C71.5517 187.608 71.3757 188.416 71.3757 189.376C71.3757 190.8 71.7357 191.904 72.4557 192.688C73.1917 193.456 74.1117 193.84 75.2157 193.84ZM96.7604 182.776V196H94.0244V194.44C93.5924 194.984 93.0244 195.416 92.3204 195.736C91.6324 196.04 90.8964 196.192 90.1124 196.192C89.0724 196.192 88.1364 195.976 87.3044 195.544C86.4884 195.112 85.8404 194.472 85.3604 193.624C84.8964 192.776 84.6644 191.752 84.6644 190.552V182.776H87.3764V190.144C87.3764 191.328 87.6724 192.24 88.2644 192.88C88.8564 193.504 89.6644 193.816 90.6884 193.816C91.7124 193.816 92.5204 193.504 93.1124 192.88C93.7204 192.24 94.0244 191.328 94.0244 190.144V182.776H96.7604ZM103.106 184.696C103.506 184.024 104.034 183.504 104.69 183.136C105.362 182.752 106.154 182.56 107.066 182.56V185.392H106.37C105.298 185.392 104.482 185.664 103.922 186.208C103.378 186.752 103.106 187.696 103.106 189.04V196H100.37V182.776H103.106V184.696ZM125.872 192.592H118.888L117.688 196H114.832L120.808 179.296H123.976L129.952 196H127.072L125.872 192.592ZM125.104 190.36L122.392 182.608L119.656 190.36H125.104ZM133.942 181.024C133.446 181.024 133.03 180.856 132.694 180.52C132.358 180.184 132.19 179.768 132.19 179.272C132.19 178.776 132.358 178.36 132.694 178.024C133.03 177.688 133.446 177.52 133.942 177.52C134.422 177.52 134.83 177.688 135.166 178.024C135.502 178.36 135.67 178.776 135.67 179.272C135.67 179.768 135.502 180.184 135.166 180.52C134.83 180.856 134.422 181.024 133.942 181.024ZM135.286 182.776V196H132.55V182.776H135.286ZM141.614 184.696C142.014 184.024 142.542 183.504 143.198 183.136C143.87 182.752 144.662 182.56 145.574 182.56V185.392H144.878C143.806 185.392 142.99 185.664 142.43 186.208C141.886 186.752 141.614 187.696 141.614 189.04V196H138.878V182.776H141.614V184.696Z" fill="white"/>
</g>
<defs>
<filter id="filter0_d_2651_1161" x="55.9033" y="33.0898" width="55.0435" height="56.0539" filterUnits="userSpaceOnUse" color-interpolation-filters="sRGB">
<feFlood flood-opacity="0" result="BackgroundImageFix"/>
<feColorMatrix in="SourceAlpha" type="matrix" values="0 0 0 0 0 0 0 0 0 0 0 0 0 0 0 0 0 0 127 0" result="hardAlpha"/>
<feOffset/>
<feGaussianBlur stdDeviation="10"/>
<feComposite in2="hardAlpha" operator="out"/>
<feColorMatrix type="matrix" values="0 0 0 0 1 0 0 0 0 1 0 0 0 0 1 0 0 0 0.46 0"/>
<feBlend mode="normal" in2="BackgroundImageFix" result="effect1_dropShadow_2651_1161"/>
<feBlend mode="normal" in="SourceGraphic" in2="effect1_dropShadow_2651_1161" result="shape"/>
</filter>
<filter id="filter1_d_2651_1161" x="61.4282" y="44.5434" width="82.676" height="88.3532" filterUnits="userSpaceOnUse" color-interpolation-filters="sRGB">
<feFlood flood-opacity="0" result="BackgroundImageFix"/>
<feColorMatrix in="SourceAlpha" type="matrix" values="0 0 0 0 0 0 0 0 0 0 0 0 0 0 0 0 0 0 127 0" result="hardAlpha"/>
<feOffset/>
<feGaussianBlur stdDeviation="10"/>
<feComposite in2="hardAlpha" operator="out"/>
<feColorMatrix type="matrix" values="0 0 0 0 1 0 0 0 0 1 0 0 0 0 1 0 0 0 0.46 0"/>
<feBlend mode="normal" in2="BackgroundImageFix" result="effect1_dropShadow_2651_1161"/>
<feBlend mode="normal" in="SourceGraphic" in2="effect1_dropShadow_2651_1161" result="shape"/>
</filter>
<filter id="filter2_d_2651_1161" x="26.0208" y="121.52" width="147.053" height="100.696" filterUnits="userSpaceOnUse" color-interpolation-filters="sRGB">
<feFlood flood-opacity="0" result="BackgroundImageFix"/>
<feColorMatrix in="SourceAlpha" type="matrix" values="0 0 0 0 0 0 0 0 0 0 0 0 0 0 0 0 0 0 127 0" result="hardAlpha"/>
<feOffset/>
<feGaussianBlur stdDeviation="10"/>
<feComposite in2="hardAlpha" operator="out"/>
<feColorMatrix type="matrix" values="0 0 0 0 1 0 0 0 0 1 0 0 0 0 1 0 0 0 0.46 0"/>
<feBlend mode="normal" in2="BackgroundImageFix" result="effect1_dropShadow_2651_1161"/>
<feBlend mode="normal" in="SourceGraphic" in2="effect1_dropShadow_2651_1161" result="shape"/>
</filter>
</defs>
</svg>
