<svg width="200" height="254" viewBox="0 0 200 254" fill="none" xmlns="http://www.w3.org/2000/svg">
<rect x="0.5" y="0.5" width="199" height="253" rx="9.5" stroke="white"/>
<rect width="70" height="70" transform="translate(65 48)" fill="white"/>
<g filter="url(#filter0_d_2651_1164)">
<path d="M118.463 64.5375L84.2211 98.7792C82.9378 100.063 80.7795 99.8875 79.7295 98.3708C76.1128 93.0917 73.9836 86.85 73.9836 80.4333V67.6292C73.9836 65.2375 75.792 62.525 78.0086 61.6208L94.2545 54.9708C97.9295 53.4542 102.013 53.4542 105.688 54.9708L117.5 59.7833C119.425 60.5708 119.921 63.0792 118.463 64.5375Z" fill="#626780"/>
</g>
<g filter="url(#filter1_d_2651_1164)">
<path d="M121.204 68.5333C123.1 66.9292 125.987 68.3 125.987 70.7792V80.4333C125.987 94.6958 115.633 108.054 101.487 111.962C100.525 112.225 99.4749 112.225 98.4833 111.962C94.3416 110.796 90.4916 108.842 87.1958 106.275C85.7958 105.196 85.6499 103.154 86.8749 101.9C93.2333 95.3958 111.842 76.4375 121.204 68.5333Z" fill="#626780"/>
</g>
<g filter="url(#filter2_d_2651_1164)">
<path d="M66.6543 143.32C68.4303 143.32 69.9823 143.664 71.3103 144.352C72.6543 145.024 73.6863 146 74.4062 147.28C75.1423 148.544 75.5103 150.024 75.5103 151.72C75.5103 153.416 75.1423 154.888 74.4062 156.136C73.6863 157.384 72.6543 158.344 71.3103 159.016C69.9823 159.672 68.4303 160 66.6543 160H61.2063V143.32H66.6543ZM66.6543 157.768C68.6063 157.768 70.1023 157.24 71.1423 156.184C72.1823 155.128 72.7023 153.64 72.7023 151.72C72.7023 149.784 72.1823 148.272 71.1423 147.184C70.1023 146.096 68.6063 145.552 66.6543 145.552H63.9423V157.768H66.6543ZM90.3419 153.064C90.3419 153.56 90.3099 154.008 90.2459 154.408H80.1419C80.2219 155.464 80.6139 156.312 81.3179 156.952C82.0219 157.592 82.8859 157.912 83.9099 157.912C85.3819 157.912 86.4219 157.296 87.0299 156.064H89.9819C89.5819 157.28 88.8539 158.28 87.7979 159.064C86.7579 159.832 85.4619 160.216 83.9099 160.216C82.6459 160.216 81.5099 159.936 80.5019 159.376C79.5099 158.8 78.7259 158 78.1499 156.976C77.5899 155.936 77.3099 154.736 77.3099 153.376C77.3099 152.016 77.5819 150.824 78.1259 149.8C78.6859 148.76 79.4619 147.96 80.4539 147.4C81.4619 146.84 82.6139 146.56 83.9099 146.56C85.1579 146.56 86.2699 146.832 87.2459 147.376C88.2219 147.92 88.9819 148.688 89.5259 149.68C90.0699 150.656 90.3419 151.784 90.3419 153.064ZM87.4859 152.2C87.4699 151.192 87.1099 150.384 86.4059 149.776C85.7019 149.168 84.8299 148.864 83.7899 148.864C82.8459 148.864 82.0379 149.168 81.3659 149.776C80.6939 150.368 80.2939 151.176 80.1659 152.2H87.4859ZM98.1464 157.552L101.89 146.776H104.794L99.7544 160H96.4904L91.4744 146.776H94.4024L98.1464 157.552ZM108.255 145.024C107.759 145.024 107.343 144.856 107.007 144.52C106.671 144.184 106.503 143.768 106.503 143.272C106.503 142.776 106.671 142.36 107.007 142.024C107.343 141.688 107.759 141.52 108.255 141.52C108.735 141.52 109.143 141.688 109.479 142.024C109.815 142.36 109.983 142.776 109.983 143.272C109.983 143.768 109.815 144.184 109.479 144.52C109.143 144.856 108.735 145.024 108.255 145.024ZM109.599 146.776V160H106.863V146.776H109.599ZM112.279 153.376C112.279 152.016 112.551 150.824 113.095 149.8C113.655 148.76 114.423 147.96 115.399 147.4C116.375 146.84 117.495 146.56 118.759 146.56C120.359 146.56 121.679 146.944 122.719 147.712C123.775 148.464 124.487 149.544 124.855 150.952H121.903C121.663 150.296 121.279 149.784 120.751 149.416C120.223 149.048 119.559 148.864 118.759 148.864C117.639 148.864 116.743 149.264 116.071 150.064C115.415 150.848 115.087 151.952 115.087 153.376C115.087 154.8 115.415 155.912 116.071 156.712C116.743 157.512 117.639 157.912 118.759 157.912C120.343 157.912 121.391 157.216 121.903 155.824H124.855C124.471 157.168 123.751 158.24 122.695 159.04C121.639 159.824 120.327 160.216 118.759 160.216C117.495 160.216 116.375 159.936 115.399 159.376C114.423 158.8 113.655 158 113.095 156.976C112.551 155.936 112.279 154.736 112.279 153.376ZM139.701 153.064C139.701 153.56 139.669 154.008 139.605 154.408H129.501C129.581 155.464 129.973 156.312 130.677 156.952C131.381 157.592 132.245 157.912 133.269 157.912C134.741 157.912 135.781 157.296 136.389 156.064H139.341C138.941 157.28 138.213 158.28 137.157 159.064C136.117 159.832 134.821 160.216 133.269 160.216C132.005 160.216 130.869 159.936 129.861 159.376C128.869 158.8 128.085 158 127.509 156.976C126.949 155.936 126.669 154.736 126.669 153.376C126.669 152.016 126.941 150.824 127.485 149.8C128.045 148.76 128.821 147.96 129.813 147.4C130.821 146.84 131.973 146.56 133.269 146.56C134.517 146.56 135.629 146.832 136.605 147.376C137.581 147.92 138.341 148.688 138.885 149.68C139.429 150.656 139.701 151.784 139.701 153.064ZM136.845 152.2C136.829 151.192 136.469 150.384 135.765 149.776C135.061 149.168 134.189 148.864 133.149 148.864C132.205 148.864 131.397 149.168 130.725 149.776C130.053 150.368 129.653 151.176 129.525 152.2H136.845ZM69.0812 196.168C67.9612 196.168 66.9532 195.976 66.0572 195.592C65.1612 195.192 64.4572 194.632 63.9452 193.912C63.4332 193.192 63.1772 192.352 63.1772 191.392H66.1052C66.1692 192.112 66.4492 192.704 66.9452 193.168C67.4572 193.632 68.1692 193.864 69.0812 193.864C70.0252 193.864 70.7612 193.64 71.2892 193.192C71.8172 192.728 72.0812 192.136 72.0812 191.416C72.0812 190.856 71.9132 190.4 71.5772 190.048C71.2572 189.696 70.8492 189.424 70.3532 189.232C69.8732 189.04 69.2012 188.832 68.3372 188.608C67.2492 188.32 66.3612 188.032 65.6732 187.744C65.0012 187.44 64.4252 186.976 63.9452 186.352C63.4652 185.728 63.2252 184.896 63.2252 183.856C63.2252 182.896 63.4652 182.056 63.9452 181.336C64.4252 180.616 65.0972 180.064 65.9612 179.68C66.8252 179.296 67.8252 179.104 68.9612 179.104C70.5772 179.104 71.8972 179.512 72.9212 180.328C73.9612 181.128 74.5372 182.232 74.6492 183.64H71.6252C71.5772 183.032 71.2892 182.512 70.7612 182.08C70.2332 181.648 69.5372 181.432 68.6732 181.432C67.8892 181.432 67.2492 181.632 66.7532 182.032C66.2572 182.432 66.0092 183.008 66.0092 183.76C66.0092 184.272 66.1612 184.696 66.4652 185.032C66.7852 185.352 67.1852 185.608 67.6652 185.8C68.1452 185.992 68.8012 186.2 69.6332 186.424C70.7372 186.728 71.6332 187.032 72.3212 187.336C73.0252 187.64 73.6172 188.112 74.0972 188.752C74.5932 189.376 74.8412 190.216 74.8412 191.272C74.8412 192.12 74.6092 192.92 74.1452 193.672C73.6972 194.424 73.0332 195.032 72.1532 195.496C71.2892 195.944 70.2652 196.168 69.0812 196.168ZM77.1575 189.328C77.1575 188 77.4295 186.824 77.9735 185.8C78.5335 184.776 79.2855 183.984 80.2295 183.424C81.1895 182.848 82.2455 182.56 83.3975 182.56C84.4375 182.56 85.3415 182.768 86.1095 183.184C86.8935 183.584 87.5175 184.088 87.9815 184.696V182.776H90.7415V196H87.9815V194.032C87.5175 194.656 86.8855 195.176 86.0855 195.592C85.2855 196.008 84.3735 196.216 83.3495 196.216C82.2135 196.216 81.1735 195.928 80.2295 195.352C79.2855 194.76 78.5335 193.944 77.9735 192.904C77.4295 191.848 77.1575 190.656 77.1575 189.328ZM87.9815 189.376C87.9815 188.464 87.7895 187.672 87.4055 187C87.0375 186.328 86.5495 185.816 85.9415 185.464C85.3335 185.112 84.6775 184.936 83.9735 184.936C83.2695 184.936 82.6135 185.112 82.0055 185.464C81.3975 185.8 80.9015 186.304 80.5175 186.976C80.1495 187.632 79.9655 188.416 79.9655 189.328C79.9655 190.24 80.1495 191.04 80.5175 191.728C80.9015 192.416 81.3975 192.944 82.0055 193.312C82.6295 193.664 83.2855 193.84 83.9735 193.84C84.6775 193.84 85.3335 193.664 85.9415 193.312C86.5495 192.96 87.0375 192.448 87.4055 191.776C87.7895 191.088 87.9815 190.288 87.9815 189.376ZM99.8792 185.008H97.4312V196H94.6712V185.008H93.1112V182.776H94.6712V181.84C94.6712 180.32 95.0712 179.216 95.8712 178.528C96.6872 177.824 97.9592 177.472 99.6872 177.472V179.752C98.8552 179.752 98.2712 179.912 97.9352 180.232C97.5992 180.536 97.4312 181.072 97.4312 181.84V182.776H99.8792V185.008ZM114.424 189.064C114.424 189.56 114.392 190.008 114.328 190.408H104.224C104.304 191.464 104.696 192.312 105.4 192.952C106.104 193.592 106.968 193.912 107.992 193.912C109.464 193.912 110.504 193.296 111.112 192.064H114.064C113.664 193.28 112.936 194.28 111.88 195.064C110.84 195.832 109.544 196.216 107.992 196.216C106.728 196.216 105.592 195.936 104.584 195.376C103.592 194.8 102.808 194 102.232 192.976C101.672 191.936 101.392 190.736 101.392 189.376C101.392 188.016 101.664 186.824 102.208 185.8C102.768 184.76 103.544 183.96 104.536 183.4C105.544 182.84 106.696 182.56 107.992 182.56C109.24 182.56 110.352 182.832 111.328 183.376C112.304 183.92 113.064 184.688 113.608 185.68C114.152 186.656 114.424 187.784 114.424 189.064ZM111.568 188.2C111.552 187.192 111.192 186.384 110.488 185.776C109.784 185.168 108.912 184.864 107.872 184.864C106.928 184.864 106.12 185.168 105.448 185.776C104.776 186.368 104.376 187.176 104.248 188.2H111.568ZM120.308 185.008V192.328C120.308 192.824 120.42 193.184 120.644 193.408C120.884 193.616 121.284 193.72 121.844 193.72H123.524V196H121.364C120.132 196 119.188 195.712 118.532 195.136C117.876 194.56 117.548 193.624 117.548 192.328V185.008H115.988V182.776H117.548V179.488H120.308V182.776H123.524V185.008H120.308ZM137.95 182.776L129.838 202.216H127.006L129.694 195.784L124.486 182.776H127.534L131.254 192.856L135.118 182.776H137.95Z" fill="white"/>
</g>
<defs>
<filter id="filter0_d_2651_1164" x="53.9836" y="33.8333" width="85.325" height="85.803" filterUnits="userSpaceOnUse" color-interpolation-filters="sRGB">
<feFlood flood-opacity="0" result="BackgroundImageFix"/>
<feColorMatrix in="SourceAlpha" type="matrix" values="0 0 0 0 0 0 0 0 0 0 0 0 0 0 0 0 0 0 127 0" result="hardAlpha"/>
<feOffset/>
<feGaussianBlur stdDeviation="10"/>
<feComposite in2="hardAlpha" operator="out"/>
<feColorMatrix type="matrix" values="0 0 0 0 1 0 0 0 0 1 0 0 0 0 1 0 0 0 0.46 0"/>
<feBlend mode="normal" in2="BackgroundImageFix" result="effect1_dropShadow_2651_1164"/>
<feBlend mode="normal" in="SourceGraphic" in2="effect1_dropShadow_2651_1164" result="shape"/>
</filter>
<filter id="filter1_d_2651_1164" x="66.0432" y="47.8424" width="79.9443" height="84.317" filterUnits="userSpaceOnUse" color-interpolation-filters="sRGB">
<feFlood flood-opacity="0" result="BackgroundImageFix"/>
<feColorMatrix in="SourceAlpha" type="matrix" values="0 0 0 0 0 0 0 0 0 0 0 0 0 0 0 0 0 0 127 0" result="hardAlpha"/>
<feOffset/>
<feGaussianBlur stdDeviation="10"/>
<feComposite in2="hardAlpha" operator="out"/>
<feColorMatrix type="matrix" values="0 0 0 0 1 0 0 0 0 1 0 0 0 0 1 0 0 0 0.46 0"/>
<feBlend mode="normal" in2="BackgroundImageFix" result="effect1_dropShadow_2651_1164"/>
<feBlend mode="normal" in="SourceGraphic" in2="effect1_dropShadow_2651_1164" result="shape"/>
</filter>
<filter id="filter2_d_2651_1164" x="41.2063" y="121.52" width="118.495" height="100.696" filterUnits="userSpaceOnUse" color-interpolation-filters="sRGB">
<feFlood flood-opacity="0" result="BackgroundImageFix"/>
<feColorMatrix in="SourceAlpha" type="matrix" values="0 0 0 0 0 0 0 0 0 0 0 0 0 0 0 0 0 0 127 0" result="hardAlpha"/>
<feOffset/>
<feGaussianBlur stdDeviation="10"/>
<feComposite in2="hardAlpha" operator="out"/>
<feColorMatrix type="matrix" values="0 0 0 0 1 0 0 0 0 1 0 0 0 0 1 0 0 0 0.46 0"/>
<feBlend mode="normal" in2="BackgroundImageFix" result="effect1_dropShadow_2651_1164"/>
<feBlend mode="normal" in="SourceGraphic" in2="effect1_dropShadow_2651_1164" result="shape"/>
</filter>
</defs>
</svg>
