<svg width="200" height="254" viewBox="0 0 200 254" fill="none" xmlns="http://www.w3.org/2000/svg">
<rect x="0.5" y="0.5" width="199" height="253" rx="9.5" stroke="white"/>
<rect width="70" height="70" transform="translate(65 48)" fill="white"/>
<g filter="url(#filter0_d_2651_1158)">
<path d="M109.887 63.1958L114 71.4208C114.554 72.5583 116.042 73.6375 117.296 73.8708L124.733 75.0958C129.487 75.8833 130.596 79.325 127.183 82.7667L121.379 88.5708C120.417 89.5333 119.862 91.4292 120.183 92.8L121.846 99.975C123.158 105.633 120.125 107.85 115.137 104.875L108.167 100.733C106.912 99.975 104.812 99.975 103.558 100.733L96.5874 104.875C91.5999 107.821 88.5665 105.633 89.879 99.975L91.5415 92.8C91.804 91.4 91.2499 89.5042 90.2874 88.5417L84.4832 82.7375C81.0707 79.325 82.179 75.8833 86.9332 75.0667L94.3707 73.8417C95.6249 73.6375 97.1124 72.5292 97.6665 71.3917L101.779 63.1667C104.025 58.7333 107.642 58.7333 109.887 63.1958Z" fill="#626780"/>
</g>
<g filter="url(#filter1_d_2651_1158)">
<path d="M88.3335 64.7708H70.8335C69.6377 64.7708 68.646 63.7792 68.646 62.5833C68.646 61.3875 69.6377 60.3958 70.8335 60.3958H88.3335C89.5293 60.3958 90.521 61.3875 90.521 62.5833C90.521 63.7792 89.5293 64.7708 88.3335 64.7708Z" fill="#626780"/>
</g>
<g filter="url(#filter2_d_2651_1158)">
<path d="M79.5835 105.604H70.8335C69.6377 105.604 68.646 104.612 68.646 103.417C68.646 102.221 69.6377 101.229 70.8335 101.229H79.5835C80.7793 101.229 81.771 102.221 81.771 103.417C81.771 104.612 80.7793 105.604 79.5835 105.604Z" fill="#626780"/>
</g>
<g filter="url(#filter3_d_2651_1158)">
<path d="M73.7502 85.1875H70.8335C69.6377 85.1875 68.646 84.1958 68.646 83C68.646 81.8042 69.6377 80.8125 70.8335 80.8125H73.7502C74.946 80.8125 75.9377 81.8042 75.9377 83C75.9377 84.1958 74.946 85.1875 73.7502 85.1875Z" fill="#626780"/>
</g>
<g filter="url(#filter4_d_2651_1158)">
<path d="M41.3036 143.32V160H38.5676V152.704H30.7196V160H27.9836V143.32H30.7196V150.472H38.5676V143.32H41.3036ZM46.2975 145.024C45.8015 145.024 45.3855 144.856 45.0495 144.52C44.7135 144.184 44.5455 143.768 44.5455 143.272C44.5455 142.776 44.7135 142.36 45.0495 142.024C45.3855 141.688 45.8015 141.52 46.2975 141.52C46.7775 141.52 47.1855 141.688 47.5215 142.024C47.8575 142.36 48.0255 142.776 48.0255 143.272C48.0255 143.768 47.8575 144.184 47.5215 144.52C47.1855 144.856 46.7775 145.024 46.2975 145.024ZM47.6415 146.776V160H44.9055V146.776H47.6415ZM56.5616 146.56C57.5856 146.56 58.4896 146.768 59.2736 147.184C60.0736 147.584 60.6976 148.088 61.1456 148.696V146.776H63.9056V160.216C63.9056 161.432 63.6496 162.512 63.1376 163.456C62.6256 164.416 61.8816 165.168 60.9056 165.712C59.9456 166.256 58.7936 166.528 57.4496 166.528C55.6576 166.528 54.1696 166.104 52.9856 165.256C51.8016 164.424 51.1296 163.288 50.9696 161.848H53.6816C53.8896 162.536 54.3296 163.088 55.0016 163.504C55.6896 163.936 56.5056 164.152 57.4496 164.152C58.5536 164.152 59.4416 163.816 60.1136 163.144C60.8016 162.472 61.1456 161.496 61.1456 160.216V158.008C60.6816 158.632 60.0496 159.16 59.2496 159.592C58.4656 160.008 57.5696 160.216 56.5616 160.216C55.4096 160.216 54.3536 159.928 53.3936 159.352C52.4496 158.76 51.6976 157.944 51.1376 156.904C50.5936 155.848 50.3216 154.656 50.3216 153.328C50.3216 152 50.5936 150.824 51.1376 149.8C51.6976 148.776 52.4496 147.984 53.3936 147.424C54.3536 146.848 55.4096 146.56 56.5616 146.56ZM61.1456 153.376C61.1456 152.464 60.9536 151.672 60.5696 151C60.2016 150.328 59.7136 149.816 59.1056 149.464C58.4976 149.112 57.8416 148.936 57.1376 148.936C56.4336 148.936 55.7776 149.112 55.1696 149.464C54.5616 149.8 54.0656 150.304 53.6816 150.976C53.3136 151.632 53.1296 152.416 53.1296 153.328C53.1296 154.24 53.3136 155.04 53.6816 155.728C54.0656 156.416 54.5616 156.944 55.1696 157.312C55.7936 157.664 56.4496 157.84 57.1376 157.84C57.8416 157.84 58.4976 157.664 59.1056 157.312C59.7136 156.96 60.2016 156.448 60.5696 155.776C60.9536 155.088 61.1456 154.288 61.1456 153.376ZM74.3392 146.56C75.3472 146.56 76.2432 146.776 77.0272 147.208C77.8272 147.64 78.4512 148.28 78.8992 149.128C79.3632 149.976 79.5952 151 79.5952 152.2V160H76.8832V152.608C76.8832 151.424 76.5872 150.52 75.9952 149.896C75.4032 149.256 74.5952 148.936 73.5712 148.936C72.5472 148.936 71.7312 149.256 71.1232 149.896C70.5312 150.52 70.2352 151.424 70.2352 152.608V160H67.4992V142.24H70.2352V148.312C70.6992 147.752 71.2832 147.32 71.9872 147.016C72.7072 146.712 73.4912 146.56 74.3392 146.56ZM102.232 163.024L99.3035 159.856C98.5835 160.064 97.7915 160.168 96.9275 160.168C95.3755 160.168 93.9435 159.808 92.6315 159.088C91.3355 158.352 90.3035 157.336 89.5355 156.04C88.7835 154.728 88.4075 153.256 88.4075 151.624C88.4075 149.992 88.7835 148.528 89.5355 147.232C90.3035 145.936 91.3355 144.928 92.6315 144.208C93.9435 143.472 95.3755 143.104 96.9275 143.104C98.4955 143.104 99.9275 143.472 101.224 144.208C102.536 144.928 103.568 145.936 104.32 147.232C105.072 148.528 105.448 149.992 105.448 151.624C105.448 153.16 105.112 154.552 104.44 155.8C103.784 157.032 102.872 158.024 101.704 158.776L105.712 163.024H102.232ZM91.2155 151.624C91.2155 152.856 91.4555 153.944 91.9355 154.888C92.4315 155.816 93.1115 156.536 93.9755 157.048C94.8395 157.544 95.8235 157.792 96.9275 157.792C98.0315 157.792 99.0155 157.544 99.8795 157.048C100.744 156.536 101.416 155.816 101.896 154.888C102.392 153.944 102.64 152.856 102.64 151.624C102.64 150.392 102.392 149.312 101.896 148.384C101.416 147.456 100.744 146.744 99.8795 146.248C99.0155 145.752 98.0315 145.504 96.9275 145.504C95.8235 145.504 94.8395 145.752 93.9755 146.248C93.1115 146.744 92.4315 147.456 91.9355 148.384C91.4555 149.312 91.2155 150.392 91.2155 151.624ZM120.186 146.776V160H117.45V158.44C117.018 158.984 116.45 159.416 115.746 159.736C115.058 160.04 114.322 160.192 113.538 160.192C112.498 160.192 111.562 159.976 110.73 159.544C109.914 159.112 109.266 158.472 108.786 157.624C108.322 156.776 108.09 155.752 108.09 154.552V146.776H110.802V154.144C110.802 155.328 111.098 156.24 111.69 156.88C112.282 157.504 113.09 157.816 114.114 157.816C115.138 157.816 115.946 157.504 116.538 156.88C117.146 156.24 117.45 155.328 117.45 154.144V146.776H120.186ZM122.884 153.328C122.884 152 123.156 150.824 123.7 149.8C124.26 148.776 125.012 147.984 125.956 147.424C126.916 146.848 127.972 146.56 129.124 146.56C130.164 146.56 131.068 146.768 131.836 147.184C132.62 147.584 133.244 148.088 133.708 148.696V146.776H136.468V160H133.708V158.032C133.244 158.656 132.612 159.176 131.812 159.592C131.012 160.008 130.1 160.216 129.076 160.216C127.94 160.216 126.9 159.928 125.956 159.352C125.012 158.76 124.26 157.944 123.7 156.904C123.156 155.848 122.884 154.656 122.884 153.328ZM133.708 153.376C133.708 152.464 133.516 151.672 133.132 151C132.764 150.328 132.276 149.816 131.668 149.464C131.06 149.112 130.404 148.936 129.7 148.936C128.996 148.936 128.34 149.112 127.732 149.464C127.124 149.8 126.628 150.304 126.244 150.976C125.876 151.632 125.692 152.416 125.692 153.328C125.692 154.24 125.876 155.04 126.244 155.728C126.628 156.416 127.124 156.944 127.732 157.312C128.356 157.664 129.012 157.84 129.7 157.84C130.404 157.84 131.06 157.664 131.668 157.312C132.276 156.96 132.764 156.448 133.132 155.776C133.516 155.088 133.708 154.288 133.708 153.376ZM142.798 142.24V160H140.062V142.24H142.798ZM147.782 145.024C147.286 145.024 146.87 144.856 146.534 144.52C146.198 144.184 146.03 143.768 146.03 143.272C146.03 142.776 146.198 142.36 146.534 142.024C146.87 141.688 147.286 141.52 147.782 141.52C148.262 141.52 148.67 141.688 149.006 142.024C149.342 142.36 149.51 142.776 149.51 143.272C149.51 143.768 149.342 144.184 149.006 144.52C148.67 144.856 148.262 145.024 147.782 145.024ZM149.126 146.776V160H146.39V146.776H149.126ZM155.91 149.008V156.328C155.91 156.824 156.022 157.184 156.246 157.408C156.486 157.616 156.886 157.72 157.446 157.72H159.126V160H156.966C155.734 160 154.79 159.712 154.134 159.136C153.478 158.56 153.15 157.624 153.15 156.328V149.008H151.59V146.776H153.15V143.488H155.91V146.776H159.126V149.008H155.91ZM173.552 146.776L165.44 166.216H162.608L165.296 159.784L160.088 146.776H163.136L166.856 156.856L170.72 146.776H173.552ZM66.4835 184.288C66.4835 185.136 66.2835 185.936 65.8835 186.688C65.4835 187.44 64.8435 188.056 63.9635 188.536C63.0835 189 61.9555 189.232 60.5795 189.232H57.5555V196H54.8195V179.32H60.5795C61.8595 179.32 62.9395 179.544 63.8195 179.992C64.7155 180.424 65.3795 181.016 65.8115 181.768C66.2595 182.52 66.4835 183.36 66.4835 184.288ZM60.5795 187C61.6195 187 62.3955 186.768 62.9075 186.304C63.4195 185.824 63.6755 185.152 63.6755 184.288C63.6755 182.464 62.6435 181.552 60.5795 181.552H57.5555V187H60.5795ZM71.829 184.696C72.229 184.024 72.757 183.504 73.413 183.136C74.085 182.752 74.877 182.56 75.789 182.56V185.392H75.093C74.021 185.392 73.205 185.664 72.645 186.208C72.101 186.752 71.829 187.696 71.829 189.04V196H69.093V182.776H71.829V184.696ZM84.0399 196.216C82.7919 196.216 81.6639 195.936 80.6559 195.376C79.6479 194.8 78.8559 194 78.2799 192.976C77.7039 191.936 77.4159 190.736 77.4159 189.376C77.4159 188.032 77.7119 186.84 78.3039 185.8C78.8959 184.76 79.7039 183.96 80.7279 183.4C81.7519 182.84 82.8959 182.56 84.1599 182.56C85.4239 182.56 86.5679 182.84 87.5919 183.4C88.6159 183.96 89.4239 184.76 90.0159 185.8C90.6079 186.84 90.9039 188.032 90.9039 189.376C90.9039 190.72 90.5999 191.912 89.9919 192.952C89.3839 193.992 88.5519 194.8 87.4959 195.376C86.4559 195.936 85.3039 196.216 84.0399 196.216ZM84.0399 193.84C84.7439 193.84 85.3999 193.672 86.0079 193.336C86.6319 193 87.1359 192.496 87.5199 191.824C87.9039 191.152 88.0959 190.336 88.0959 189.376C88.0959 188.416 87.9119 187.608 87.5439 186.952C87.1759 186.28 86.6879 185.776 86.0799 185.44C85.4719 185.104 84.8159 184.936 84.1119 184.936C83.4079 184.936 82.7519 185.104 82.1439 185.44C81.5519 185.776 81.0799 186.28 80.7279 186.952C80.3759 187.608 80.1999 188.416 80.1999 189.376C80.1999 190.8 80.5599 191.904 81.2799 192.688C82.0159 193.456 82.9359 193.84 84.0399 193.84ZM92.6966 189.328C92.6966 188 92.9686 186.824 93.5126 185.8C94.0726 184.776 94.8246 183.984 95.7686 183.424C96.7286 182.848 97.7926 182.56 98.9606 182.56C99.8246 182.56 100.673 182.752 101.505 183.136C102.353 183.504 103.025 184 103.521 184.624V178.24H106.281V196H103.521V194.008C103.073 194.648 102.449 195.176 101.649 195.592C100.865 196.008 99.9606 196.216 98.9366 196.216C97.7846 196.216 96.7286 195.928 95.7686 195.352C94.8246 194.76 94.0726 193.944 93.5126 192.904C92.9686 191.848 92.6966 190.656 92.6966 189.328ZM103.521 189.376C103.521 188.464 103.329 187.672 102.945 187C102.577 186.328 102.089 185.816 101.481 185.464C100.873 185.112 100.217 184.936 99.5126 184.936C98.8086 184.936 98.1526 185.112 97.5446 185.464C96.9366 185.8 96.4406 186.304 96.0566 186.976C95.6886 187.632 95.5046 188.416 95.5046 189.328C95.5046 190.24 95.6886 191.04 96.0566 191.728C96.4406 192.416 96.9366 192.944 97.5446 193.312C98.1686 193.664 98.8246 193.84 99.5126 193.84C100.217 193.84 100.873 193.664 101.481 193.312C102.089 192.96 102.577 192.448 102.945 191.776C103.329 191.088 103.521 190.288 103.521 189.376ZM121.85 182.776V196H119.114V194.44C118.682 194.984 118.114 195.416 117.41 195.736C116.722 196.04 115.986 196.192 115.202 196.192C114.162 196.192 113.226 195.976 112.394 195.544C111.578 195.112 110.93 194.472 110.45 193.624C109.986 192.776 109.754 191.752 109.754 190.552V182.776H112.466V190.144C112.466 191.328 112.762 192.24 113.354 192.88C113.946 193.504 114.754 193.816 115.778 193.816C116.802 193.816 117.61 193.504 118.202 192.88C118.81 192.24 119.114 191.328 119.114 190.144V182.776H121.85ZM124.548 189.376C124.548 188.016 124.82 186.824 125.364 185.8C125.924 184.76 126.692 183.96 127.668 183.4C128.644 182.84 129.764 182.56 131.028 182.56C132.628 182.56 133.948 182.944 134.988 183.712C136.044 184.464 136.756 185.544 137.124 186.952H134.172C133.932 186.296 133.548 185.784 133.02 185.416C132.492 185.048 131.828 184.864 131.028 184.864C129.908 184.864 129.012 185.264 128.34 186.064C127.684 186.848 127.356 187.952 127.356 189.376C127.356 190.8 127.684 191.912 128.34 192.712C129.012 193.512 129.908 193.912 131.028 193.912C132.612 193.912 133.66 193.216 134.172 191.824H137.124C136.74 193.168 136.02 194.24 134.964 195.04C133.908 195.824 132.596 196.216 131.028 196.216C129.764 196.216 128.644 195.936 127.668 195.376C126.692 194.8 125.924 194 125.364 192.976C124.82 191.936 124.548 190.736 124.548 189.376ZM143.043 185.008V192.328C143.043 192.824 143.155 193.184 143.379 193.408C143.619 193.616 144.019 193.72 144.579 193.72H146.259V196H144.099C142.867 196 141.923 195.712 141.267 195.136C140.611 194.56 140.283 193.624 140.283 192.328V185.008H138.723V182.776H140.283V179.488H143.043V182.776H146.259V185.008H143.043Z" fill="white"/>
</g>
<defs>
<filter id="filter0_d_2651_1158" x="62.5015" y="39.8453" width="86.6636" height="86.3527" filterUnits="userSpaceOnUse" color-interpolation-filters="sRGB">
<feFlood flood-opacity="0" result="BackgroundImageFix"/>
<feColorMatrix in="SourceAlpha" type="matrix" values="0 0 0 0 0 0 0 0 0 0 0 0 0 0 0 0 0 0 127 0" result="hardAlpha"/>
<feOffset/>
<feGaussianBlur stdDeviation="10"/>
<feComposite in2="hardAlpha" operator="out"/>
<feColorMatrix type="matrix" values="0 0 0 0 1 0 0 0 0 1 0 0 0 0 1 0 0 0 0.46 0"/>
<feBlend mode="normal" in2="BackgroundImageFix" result="effect1_dropShadow_2651_1158"/>
<feBlend mode="normal" in="SourceGraphic" in2="effect1_dropShadow_2651_1158" result="shape"/>
</filter>
<filter id="filter1_d_2651_1158" x="48.646" y="40.3958" width="61.875" height="44.375" filterUnits="userSpaceOnUse" color-interpolation-filters="sRGB">
<feFlood flood-opacity="0" result="BackgroundImageFix"/>
<feColorMatrix in="SourceAlpha" type="matrix" values="0 0 0 0 0 0 0 0 0 0 0 0 0 0 0 0 0 0 127 0" result="hardAlpha"/>
<feOffset/>
<feGaussianBlur stdDeviation="10"/>
<feComposite in2="hardAlpha" operator="out"/>
<feColorMatrix type="matrix" values="0 0 0 0 1 0 0 0 0 1 0 0 0 0 1 0 0 0 0.46 0"/>
<feBlend mode="normal" in2="BackgroundImageFix" result="effect1_dropShadow_2651_1158"/>
<feBlend mode="normal" in="SourceGraphic" in2="effect1_dropShadow_2651_1158" result="shape"/>
</filter>
<filter id="filter2_d_2651_1158" x="48.646" y="81.2292" width="53.125" height="44.375" filterUnits="userSpaceOnUse" color-interpolation-filters="sRGB">
<feFlood flood-opacity="0" result="BackgroundImageFix"/>
<feColorMatrix in="SourceAlpha" type="matrix" values="0 0 0 0 0 0 0 0 0 0 0 0 0 0 0 0 0 0 127 0" result="hardAlpha"/>
<feOffset/>
<feGaussianBlur stdDeviation="10"/>
<feComposite in2="hardAlpha" operator="out"/>
<feColorMatrix type="matrix" values="0 0 0 0 1 0 0 0 0 1 0 0 0 0 1 0 0 0 0.46 0"/>
<feBlend mode="normal" in2="BackgroundImageFix" result="effect1_dropShadow_2651_1158"/>
<feBlend mode="normal" in="SourceGraphic" in2="effect1_dropShadow_2651_1158" result="shape"/>
</filter>
<filter id="filter3_d_2651_1158" x="48.646" y="60.8125" width="47.2915" height="44.375" filterUnits="userSpaceOnUse" color-interpolation-filters="sRGB">
<feFlood flood-opacity="0" result="BackgroundImageFix"/>
<feColorMatrix in="SourceAlpha" type="matrix" values="0 0 0 0 0 0 0 0 0 0 0 0 0 0 0 0 0 0 127 0" result="hardAlpha"/>
<feOffset/>
<feGaussianBlur stdDeviation="10"/>
<feComposite in2="hardAlpha" operator="out"/>
<feColorMatrix type="matrix" values="0 0 0 0 1 0 0 0 0 1 0 0 0 0 1 0 0 0 0.46 0"/>
<feBlend mode="normal" in2="BackgroundImageFix" result="effect1_dropShadow_2651_1158"/>
<feBlend mode="normal" in="SourceGraphic" in2="effect1_dropShadow_2651_1158" result="shape"/>
</filter>
<filter id="filter4_d_2651_1158" x="7.9834" y="121.52" width="185.568" height="94.696" filterUnits="userSpaceOnUse" color-interpolation-filters="sRGB">
<feFlood flood-opacity="0" result="BackgroundImageFix"/>
<feColorMatrix in="SourceAlpha" type="matrix" values="0 0 0 0 0 0 0 0 0 0 0 0 0 0 0 0 0 0 127 0" result="hardAlpha"/>
<feOffset/>
<feGaussianBlur stdDeviation="10"/>
<feComposite in2="hardAlpha" operator="out"/>
<feColorMatrix type="matrix" values="0 0 0 0 1 0 0 0 0 1 0 0 0 0 1 0 0 0 0.46 0"/>
<feBlend mode="normal" in2="BackgroundImageFix" result="effect1_dropShadow_2651_1158"/>
<feBlend mode="normal" in="SourceGraphic" in2="effect1_dropShadow_2651_1158" result="shape"/>
</filter>
</defs>
</svg>
