<svg width="28" height="28" viewBox="0 0 28 28" fill="none" xmlns="http://www.w3.org/2000/svg">
<path d="M13.9999 25.6666C12.4055 25.6666 10.8985 25.3601 9.47908 24.7473C8.05964 24.1344 6.82025 23.2983 5.76092 22.2389C4.70159 21.1796 3.86547 19.9402 3.25259 18.5208C2.6397 17.1013 2.33325 15.5944 2.33325 13.9999C2.33325 12.386 2.6397 10.8744 3.25259 9.46509C3.86547 8.05575 4.70159 6.82103 5.76092 5.76092C6.82025 4.70081 8.05964 3.8647 9.47908 3.25259C10.8985 2.64047 12.4055 2.33403 13.9999 2.33325C15.6138 2.33325 17.1258 2.6397 18.5359 3.25259C19.946 3.86547 21.1804 4.70159 22.2389 5.76092C23.2975 6.82025 24.1336 8.05497 24.7473 9.46509C25.3609 10.8752 25.6674 12.3868 25.6666 13.9999C25.6666 15.5944 25.3601 17.1013 24.7473 18.5208C24.1344 19.9402 23.2983 21.18 22.2389 22.2401C21.1796 23.3002 19.9449 24.1363 18.5348 24.7484C17.1246 25.3605 15.613 25.6666 13.9999 25.6666ZM13.9999 23.2749C14.5055 22.5749 14.943 21.8458 15.3124 21.0874C15.6819 20.3291 15.9833 19.5221 16.2166 18.6666H11.7833C12.0166 19.5221 12.318 20.3291 12.6874 21.0874C13.0569 21.8458 13.4944 22.5749 13.9999 23.2749ZM10.9666 22.8083C10.6166 22.1666 10.3105 21.5004 10.0484 20.8098C9.78631 20.1191 9.56736 19.4047 9.39159 18.6666H5.94992C6.51381 19.6388 7.21886 20.4846 8.06509 21.2041C8.91131 21.9235 9.87847 22.4583 10.9666 22.8083ZM17.0333 22.8083C18.1221 22.4583 19.0897 21.9235 19.9359 21.2041C20.7821 20.4846 21.4868 19.6388 22.0499 18.6666H18.6083C18.4333 19.4055 18.2147 20.1203 17.9526 20.8109C17.6905 21.5016 17.384 22.1674 17.0333 22.8083ZM4.95825 16.3333H8.92492C8.86659 15.9444 8.82303 15.5605 8.79425 15.1818C8.76547 14.803 8.7507 14.409 8.74992 13.9999C8.74914 13.5908 8.76392 13.1973 8.79425 12.8193C8.82458 12.4413 8.86814 12.057 8.92492 11.6666H4.95825C4.86103 12.0555 4.78831 12.4397 4.74009 12.8193C4.69186 13.1988 4.66736 13.5924 4.66659 13.9999C4.66581 14.4075 4.69031 14.8014 4.74009 15.1818C4.78986 15.5621 4.86259 15.9459 4.95825 16.3333ZM11.2583 16.3333H16.7416C16.7999 15.9444 16.8439 15.5605 16.8734 15.1818C16.903 14.803 16.9174 14.409 16.9166 13.9999C16.9158 13.5908 16.901 13.1973 16.8723 12.8193C16.8435 12.4413 16.7999 12.057 16.7416 11.6666H11.2583C11.1999 12.0555 11.1564 12.4397 11.1276 12.8193C11.0988 13.1988 11.084 13.5924 11.0833 13.9999C11.0825 14.4075 11.0973 14.8014 11.1276 15.1818C11.1579 15.5621 11.2015 15.9459 11.2583 16.3333ZM19.0749 16.3333H23.0416C23.1388 15.9444 23.2119 15.5605 23.2609 15.1818C23.3099 14.803 23.334 14.409 23.3333 13.9999C23.3325 13.5908 23.3084 13.1973 23.2609 12.8193C23.2135 12.4413 23.1404 12.057 23.0416 11.6666H19.0749C19.1333 12.0555 19.1772 12.4397 19.2068 12.8193C19.2363 13.1988 19.2507 13.5924 19.2499 13.9999C19.2491 14.4075 19.2344 14.8014 19.2056 15.1818C19.1768 15.5621 19.1333 15.9459 19.0749 16.3333ZM18.6083 9.33325H22.0499C21.486 8.36103 20.7814 7.5152 19.9359 6.79575C19.0905 6.07631 18.1229 5.54158 17.0333 5.19159C17.3833 5.83325 17.6897 6.49942 17.9526 7.19009C18.2155 7.88075 18.434 8.59514 18.6083 9.33325ZM11.7833 9.33325H16.2166C15.9833 8.4777 15.6819 7.67075 15.3124 6.91242C14.943 6.15409 14.5055 5.42492 13.9999 4.72492C13.4944 5.42492 13.0569 6.15409 12.6874 6.91242C12.318 7.67075 12.0166 8.4777 11.7833 9.33325ZM5.94992 9.33325H9.39159C9.56659 8.59436 9.78553 7.87959 10.0484 7.18892C10.3113 6.49825 10.6174 5.83247 10.9666 5.19159C9.8777 5.54158 8.91014 6.07631 8.06392 6.79575C7.2177 7.5152 6.51303 8.36103 5.94992 9.33325Z" fill="white"/>
</svg>
