<svg width="500" height="500" viewBox="0 0 500 500" fill="none" xmlns="http://www.w3.org/2000/svg">
<path fill-rule="evenodd" clip-rule="evenodd" d="M459.511 341.786C466.673 326.11 472.074 309.745 475.599 293.009H415.591C413.279 300.817 410.395 308.494 406.96 315.98C405.469 319.229 406.682 323.012 409.846 324.605L450.331 344.989C453.695 346.683 457.931 345.245 459.511 341.786ZM83.8513 293.009C86.3277 301.326 89.516 309.534 93.443 317.561C134.252 400.983 239.371 433.369 328.234 389.898C331.479 388.311 334.842 386.695 338.279 385.043L338.295 385.036L338.318 385.025C358.721 375.217 381.745 364.15 398.577 350.258C408.38 342.169 421.842 337.818 433.468 342.283C445.279 346.819 449.958 360.678 442.238 370.923C419.924 400.529 390.246 425.631 354.313 443.209C236.7 500.744 96.5989 455.891 41.3869 343.027C33.4356 326.773 27.6786 309.995 24 293.009H83.8513ZM458.117 149.923C463.886 161.716 468.5 173.785 472.003 186.009H410.797C409.356 182.44 407.778 178.898 406.061 175.389C392.79 148.259 372.717 126.528 348.613 111.047L348.573 110.965C300.259 79.9356 235.752 74.0225 177.367 100.1L138.285 51.7699C142.523 49.4458 146.868 47.1829 151.318 44.9775L151.289 44.918C151.882 44.6474 152.476 44.3797 153.07 44.1147C159.587 41.2077 166.164 38.636 172.785 36.3868C218.333 20.9118 265.905 20.7001 309.708 31.5177L309.748 31.5992C372.817 47.1745 428.052 88.4654 458.117 149.923ZM35.201 162.417C54.4726 113.685 89.2791 78.6412 138.285 51.7699C135.051 58.047 130.983 63.7836 126.903 69.5371C114.577 86.9173 102.142 104.452 112.285 137.509C99.2311 152.818 92.2729 168.71 87.3127 186.009H27.296C29.5038 178.025 32.1432 170.149 35.201 162.417Z" fill="#1446A0"/>
<path d="M11.5802 245.29C11.5802 240.523 12.4602 235.867 14.2202 231.32C16.0535 226.7 18.6935 222.52 22.1402 218.78C25.5868 215.04 29.7668 212.07 34.6802 209.87C39.6668 207.597 45.2768 206.46 51.5102 206.46C58.9902 206.46 65.5168 208.037 71.0902 211.19C76.6635 214.27 80.8068 218.377 83.5202 223.51L67.1302 235.17C66.1768 232.603 64.7835 230.623 62.9502 229.23C61.1902 227.837 59.2468 226.883 57.1202 226.37C55.0668 225.783 53.0502 225.49 51.0702 225.49C47.9902 225.49 45.3135 226.113 43.0402 227.36C40.8402 228.533 39.0068 230.11 37.5402 232.09C36.1468 234.07 35.0835 236.27 34.3502 238.69C33.6902 241.11 33.3602 243.53 33.3602 245.95C33.3602 248.663 33.7635 251.267 34.5702 253.76C35.3768 256.253 36.5502 258.49 38.0902 260.47C39.6302 262.377 41.5002 263.88 43.7002 264.98C45.9735 266.08 48.5035 266.63 51.2902 266.63C53.2702 266.63 55.2868 266.337 57.3402 265.75C59.3935 265.09 61.2635 264.063 62.9502 262.67C64.6368 261.277 65.9202 259.407 66.8002 257.06L84.2902 267.51C82.7502 271.323 80.1835 274.587 76.5902 277.3C72.9968 280.013 68.9268 282.103 64.3802 283.57C59.8335 284.963 55.3235 285.66 50.8502 285.66C45.0568 285.66 39.7402 284.523 34.9002 282.25C30.1335 279.903 25.9902 276.823 22.4702 273.01C19.0235 269.123 16.3468 264.797 14.4402 260.03C12.5335 255.19 11.5802 250.277 11.5802 245.29ZM91.9248 285V206.9H113.375V266.3H148.795V285H91.9248ZM174.311 206.9H198.291L223.151 285H201.371L196.641 269.71H175.851L171.231 285H149.341L174.311 206.9ZM193.231 255.41L186.301 227.91L179.041 255.41H193.231ZM229.64 285V206.9H259.67C268.323 206.9 275.546 208.66 281.34 212.18C287.206 215.627 291.606 220.32 294.54 226.26C297.546 232.127 299.05 238.653 299.05 245.84C299.05 253.76 297.4 260.653 294.1 266.52C290.873 272.387 286.29 276.933 280.35 280.16C274.483 283.387 267.59 285 259.67 285H229.64ZM277.27 245.84C277.27 241.807 276.573 238.287 275.18 235.28C273.786 232.2 271.77 229.817 269.13 228.13C266.49 226.443 263.336 225.6 259.67 225.6H251.09V266.3H259.67C263.41 266.3 266.563 265.42 269.13 263.66C271.77 261.9 273.786 259.48 275.18 256.4C276.573 253.247 277.27 249.727 277.27 245.84ZM308.38 285V206.9H329.83V285H308.38ZM361.332 206.9H385.312L410.172 285H388.392L383.662 269.71H362.872L358.252 285H336.362L361.332 206.9ZM380.252 255.41L373.322 227.91L366.062 255.41H380.252ZM448.639 285.55C442.699 285.55 437.309 284.45 432.469 282.25C427.629 280.05 423.449 277.08 419.929 273.34C416.482 269.527 413.805 265.273 411.899 260.58C410.065 255.813 409.149 250.9 409.149 245.84C409.149 240.633 410.139 235.683 412.119 230.99C414.099 226.223 416.849 222.007 420.369 218.34C423.962 214.673 428.179 211.777 433.019 209.65C437.932 207.45 443.285 206.35 449.079 206.35C455.019 206.35 460.409 207.487 465.249 209.76C470.089 212.033 474.232 215.077 477.679 218.89C481.125 222.703 483.765 226.993 485.599 231.76C487.505 236.453 488.459 241.293 488.459 246.28C488.459 251.413 487.469 256.327 485.489 261.02C483.582 265.713 480.832 269.93 477.239 273.67C473.719 277.337 469.539 280.233 464.699 282.36C459.859 284.487 454.505 285.55 448.639 285.55ZM448.859 266.52C451.939 266.52 454.615 265.933 456.889 264.76C459.162 263.587 460.995 262.01 462.389 260.03C463.855 258.05 464.919 255.85 465.579 253.43C466.312 250.937 466.679 248.407 466.679 245.84C466.679 243.2 466.312 240.67 465.579 238.25C464.845 235.757 463.745 233.557 462.279 231.65C460.812 229.743 458.942 228.24 456.669 227.14C454.395 225.967 451.755 225.38 448.749 225.38C445.669 225.38 442.992 225.967 440.719 227.14C438.519 228.313 436.685 229.89 435.219 231.87C433.752 233.85 432.652 236.087 431.919 238.58C431.259 241 430.929 243.493 430.929 246.06C430.929 248.7 431.295 251.23 432.029 253.65C432.762 256.07 433.862 258.27 435.329 260.25C436.795 262.157 438.629 263.697 440.829 264.87C443.102 265.97 445.779 266.52 448.859 266.52ZM440.059 252H460.079L490.439 285H470.419L440.059 252Z" fill="#1446A0"/>
</svg>
