<svg width="354" height="315" viewBox="0 0 354 315" fill="none" xmlns="http://www.w3.org/2000/svg">
<path d="M314.295 197.247H186.327C184.039 197.247 182.177 195.399 182.177 193.127V8.12199C182.177 5.85082 184.039 4.00269 186.327 4.00269H314.295C316.583 4.00269 318.446 5.85012 318.446 8.12199V193.127C318.446 195.399 316.583 197.247 314.295 197.247ZM186.327 4.17836C184.136 4.17836 182.354 5.94779 182.354 8.12199V193.127C182.354 195.302 184.137 197.071 186.327 197.071H314.295C316.486 197.071 318.269 195.302 318.269 193.127V8.12199C318.269 5.94779 316.486 4.17836 314.295 4.17836H186.327Z" fill="#E0E0E0"/>
<path d="M166.729 197.247H38.7599C36.4717 197.247 34.6096 195.399 34.6096 193.127V8.12199C34.6096 5.85082 36.471 4.00269 38.7599 4.00269H166.729C169.017 4.00269 170.879 5.85012 170.879 8.12199V193.127C170.879 195.399 169.017 197.247 166.729 197.247ZM38.7599 4.17836C36.5694 4.17836 34.7866 5.94779 34.7866 8.12199V193.127C34.7866 195.302 36.5694 197.071 38.7599 197.071H166.729C168.92 197.071 170.702 195.302 170.702 193.127V8.12199C170.702 5.94779 168.919 4.17836 166.729 4.17836H38.7599Z" fill="#E0E0E0"/>
<path d="M354 240.161H0V240.337H354V240.161Z" fill="#E0E0E0"/>
<path d="M47.955 250.185H36.5845V250.36H47.955V250.185Z" fill="#E0E0E0"/>
<path d="M158.509 248.281H120.609V248.456H158.509V248.281Z" fill="#E0E0E0"/>
<path d="M74.3274 256.713H48.6624V256.889H74.3274V256.713Z" fill="#E0E0E0"/>
<path d="M298.452 248.189H267.873V248.365H298.452V248.189Z" fill="#E0E0E0"/>
<path d="M309.242 248.189H304.76V248.365H309.242V248.189Z" fill="#E0E0E0"/>
<path d="M262.032 252.567H223.878V252.742H262.032V252.567Z" fill="#E0E0E0"/>
<path d="M200.709 62.5442C198.487 67.9186 197.389 73.5634 197.315 79.1823L188.806 81.6608L192.062 98.3207L200.888 97.4627C203.073 102.645 206.218 107.473 210.303 111.634L206.065 119.337L220.236 128.832L225.848 122.051C231.264 124.256 236.951 125.346 242.612 125.419L245.109 133.865L261.894 130.633L261.029 121.874C266.252 119.704 271.116 116.583 275.308 112.527L283.069 116.735L292.635 102.669L285.803 97.098C288.025 91.723 289.123 86.0781 289.197 80.4606L297.705 77.9814L294.45 61.3215L285.624 62.1795C283.438 56.997 280.293 52.1693 276.208 48.0086L280.446 40.3061L266.275 30.8111L260.663 37.5923C255.247 35.3865 249.559 34.2958 243.899 34.2221L241.402 25.7769L224.616 29.0093L225.482 37.7686C220.259 39.9372 215.395 43.058 211.203 47.1133L203.443 42.9062L193.876 56.9724L200.709 62.5435L200.709 62.5442ZM256.207 60.7811C266.801 67.8799 269.593 82.1597 262.441 92.6758C255.288 103.192 240.9 105.961 230.306 98.8632C219.711 91.7637 216.92 77.4846 224.073 66.9685C231.226 56.4524 245.611 53.6816 256.207 60.7811Z" fill="#EBEBEB"/>
<path d="M96.3589 17.676C94.3595 20.6984 93.015 24.018 92.2985 27.4423L86.8037 27.956V38.5178L92.2985 39.0315C93.0143 42.4544 94.3595 45.7747 96.3589 48.7971L92.8493 53.0042L100.374 60.4727L104.613 56.9893C107.658 58.9738 111.002 60.3089 114.453 61.0194L114.97 66.4738H125.611L126.128 61.0201C129.578 60.3089 132.923 58.9738 135.968 56.99L140.207 60.4734L147.731 53.0049L144.222 48.7971C146.221 45.7747 147.566 42.4551 148.282 39.0315L153.776 38.5178V27.9567L148.282 27.443C147.566 24.0194 146.22 20.6998 144.221 17.6774L147.731 13.4696L140.206 6.00117L135.967 9.48452C132.921 7.50006 129.577 6.1642 126.128 5.45376L125.611 0H114.969L114.452 5.45446C111.002 6.1649 107.658 7.50006 104.613 9.48452L100.374 6.00117L92.8493 13.4696L96.3589 17.676ZM130.477 23.127C136.102 28.71 136.102 37.7631 130.477 43.3468C124.851 48.9306 115.73 48.9299 110.105 43.3468C104.48 37.7638 104.479 28.7107 110.105 23.127C115.73 17.5432 124.851 17.5432 130.477 23.127Z" fill="#E0E0E0"/>
<path d="M119.66 91.6606C117.063 95.5866 115.316 99.8985 114.385 104.347L107.248 105.014V118.733L114.386 119.4C115.315 123.847 117.063 128.159 119.66 132.086L115.101 137.551L124.875 147.252L130.381 142.727C134.337 145.305 138.682 147.039 143.163 147.962L143.834 155.047H157.657L158.329 147.963C162.81 147.039 167.155 145.305 171.111 142.727L176.617 147.252L186.391 137.551L181.833 132.086C184.43 128.159 186.176 123.847 187.107 119.4L194.243 118.733V105.014L187.107 104.346C186.176 99.8992 184.428 95.5866 181.831 91.6606L186.39 86.1949L176.616 76.4939L171.11 81.0187C167.154 78.4411 162.809 76.7061 158.329 75.7828L157.657 68.6987H143.834L143.163 75.7835C138.682 76.7068 134.337 78.4404 130.382 81.018L124.876 76.4932L115.101 86.1949L119.66 91.6606ZM163.978 98.7411C171.285 105.994 171.286 117.754 163.978 125.006C156.67 132.26 144.822 132.259 137.516 125.006C130.208 117.753 130.208 105.995 137.516 98.7411C144.823 91.4884 156.67 91.4877 163.978 98.7411Z" fill="#EBEBEB"/>
<path d="M160.718 35.3002C159.698 36.8427 159.012 38.5362 158.646 40.2838L155.842 40.546V45.9351L158.646 46.1972C159.011 47.9441 159.697 49.6376 160.718 51.1808L158.927 53.3276L162.767 57.1384L164.929 55.3612C166.484 56.3739 168.191 57.0548 169.951 57.4174L170.215 60.2008H175.644L175.908 57.4181C177.669 57.0555 179.376 56.3739 180.93 55.3612L183.093 57.1384L186.932 53.3276L185.141 51.1808C186.162 49.6384 186.848 47.9448 187.213 46.1972L190.017 45.9351V40.546L187.213 40.2838C186.848 38.5369 186.161 36.8427 185.141 35.3009L186.931 33.1541L183.092 29.3433L180.929 31.1205C179.375 30.1079 177.668 29.4262 175.908 29.0636L175.644 26.2809H170.214L169.95 29.0643C168.19 29.4269 166.483 30.1079 164.929 31.1205L162.767 29.3433L158.927 33.1541L160.718 35.3009L160.718 35.3002ZM178.128 38.0815C180.998 40.9303 180.998 45.55 178.128 48.3995C175.257 51.249 170.603 51.2483 167.732 48.3995C164.862 45.55 164.862 40.931 167.732 38.0815C170.603 35.2327 175.257 35.232 178.128 38.0815Z" fill="#E6E6E6"/>
<path d="M185.827 10.3172C185.133 11.367 184.666 12.5195 184.417 13.7092L182.509 13.8877V17.5558L184.417 17.7343C184.666 18.9233 185.133 20.0765 185.827 21.1263L184.608 22.5873L187.221 25.181L188.693 23.9716C189.751 24.661 190.913 25.1247 192.111 25.3714L192.291 27.2659H195.987L196.166 25.3721C197.364 25.1254 198.526 24.6617 199.584 23.9723L201.056 25.1817L203.669 22.588L202.451 21.127C203.145 20.0772 203.612 18.924 203.861 17.735L205.769 17.5565V13.8884L203.861 13.7099C203.612 12.5209 203.145 11.3677 202.451 10.3179L203.67 8.85694L201.056 6.26323L199.585 7.4733C198.527 6.78394 197.365 6.32015 196.167 6.0735L195.987 4.17969H192.291L192.112 6.0742C190.914 6.32085 189.752 6.78464 188.694 7.47401L187.222 6.26393L184.609 8.85765L185.828 10.3186L185.827 10.3172ZM197.677 12.2103C199.63 14.1491 199.63 17.2937 197.677 19.2325C195.722 21.172 192.555 21.1713 190.601 19.2325C188.647 17.293 188.647 14.1491 190.601 12.2103C192.555 10.2708 195.722 10.2708 197.676 12.2103H197.677Z" fill="#F0F0F0"/>
<path d="M300.31 90.0877C299.615 91.1375 299.149 92.29 298.899 93.4797L296.991 93.6582V97.3263L298.899 97.5048C299.148 98.6938 299.615 99.847 300.31 100.897L299.091 102.358L301.704 104.951L303.176 103.742C304.234 104.431 305.395 104.895 306.593 105.142L306.773 107.036H310.469L310.649 105.143C311.847 104.896 313.009 104.432 314.066 103.743L315.538 104.952L318.151 102.358L316.933 100.898C317.628 99.8477 318.094 98.6945 318.343 97.5055L320.251 97.327V93.6589L318.343 93.4804C318.095 92.2914 317.628 91.1382 316.933 90.0884L318.151 88.6275L315.538 86.0337L314.066 87.2438C313.009 86.5544 311.847 86.0907 310.649 85.844L310.469 83.9502H306.773L306.593 85.8447C305.395 86.0914 304.234 86.5552 303.176 87.2445L301.704 86.0344L299.091 88.6282L300.31 90.0891V90.0877ZM312.159 91.9808C314.112 93.9196 314.112 97.0642 312.159 99.003C310.205 100.942 307.037 100.942 305.083 99.003C303.129 97.0635 303.129 93.9196 305.083 91.9808C307.037 90.0413 310.205 90.0413 312.158 91.9808H312.159Z" fill="#F0F0F0"/>
<path d="M59.573 79.3082C58.082 81.5618 57.0795 84.0374 56.5449 86.5911L52.447 86.9741V94.8501L56.5449 95.233C57.0788 97.786 58.082 100.262 59.573 102.516L56.9556 105.654L62.5665 111.223L65.7277 108.625C67.9989 110.105 70.4932 111.101 73.0654 111.631L73.4513 115.698H81.3865L81.7724 111.631C84.3453 111.1 86.8388 110.105 89.1101 108.625L92.2713 111.223L97.8822 105.654L95.2654 102.516C96.7565 100.262 97.759 97.7867 98.2929 95.233L102.39 94.8494V86.9734L98.2929 86.5904C97.759 84.0374 96.7558 81.5618 95.2647 79.3082L97.8815 76.1706L92.2706 70.6016L89.1094 73.1995C86.8381 71.7196 84.3438 70.7238 81.7717 70.1933L81.3858 66.126H73.4506L73.0647 70.1933C70.4925 70.7231 67.9982 71.7182 65.7277 73.1988L62.5665 70.6009L56.9549 76.1706L59.573 79.3082ZM85.0157 83.3727C89.2106 87.5362 89.2106 94.2872 85.0157 98.4515C80.8201 102.616 74.0184 102.615 69.8235 98.4515C65.6286 94.2872 65.6286 87.5369 69.8235 83.3727C74.0184 79.2091 80.8201 79.2084 85.0157 83.3727Z" fill="#F0F0F0"/>
<path d="M137.288 176.743C135.797 178.996 134.795 181.472 134.26 184.026L130.162 184.409V192.285L134.26 192.668C134.794 195.22 135.797 197.696 137.288 199.951L134.671 203.088L140.282 208.657L143.443 206.06C145.714 207.54 148.208 208.535 150.78 209.065L151.166 213.133H159.102L159.487 209.065C162.06 208.535 164.554 207.54 166.825 206.06L169.986 208.657L175.597 203.088L172.981 199.951C174.472 197.696 175.474 195.221 176.008 192.668L180.105 192.284V184.408L176.008 184.025C175.474 181.472 174.471 178.996 172.98 176.743L175.597 173.605L169.986 168.036L166.824 170.633C164.553 169.153 162.059 168.158 159.487 167.627L159.101 163.56H151.166L150.78 167.627C148.208 168.157 145.713 169.153 143.443 170.633L140.282 168.035L134.67 173.604L137.287 176.742L137.288 176.743ZM162.731 180.807C166.926 184.971 166.926 191.722 162.731 195.886C158.535 200.05 151.733 200.05 147.539 195.886C143.343 191.722 143.344 184.971 147.539 180.807C151.733 176.644 158.535 176.644 162.731 180.807Z" fill="#F0F0F0"/>
<path d="M57.1479 146.316C47.2657 157.789 44.3799 174.773 49.9228 188.828C56.0824 183.372 60.4196 175.055 60.6943 167.781C60.969 160.506 59.0503 153.346 57.1479 146.316Z" fill="#E6E6E6"/>
<path d="M55.4251 190.154C52.072 195.254 50.467 201.464 50.9328 207.536C56.2754 205.69 60.985 199.701 63.8085 194.835C66.632 189.97 68.2109 184.506 69.6474 179.075C63.8602 181.096 58.7789 185.055 55.4258 190.154H55.4251Z" fill="#E6E6E6"/>
<path d="M54.1321 166.336C50.1644 180.5 48.1388 195.188 48.1495 209.891C48.1523 214.076 48.3243 218.259 48.6528 222.432C48.679 222.768 49.2107 222.771 49.1838 222.432C48.0291 207.764 48.8858 192.959 51.7567 178.524C52.5624 174.473 53.5295 170.454 54.6439 166.476C54.7353 166.149 54.2234 166.01 54.1321 166.337V166.336Z" fill="#E0E0E0"/>
<path d="M48.8858 212.349C52.9426 202.771 58.2717 193.801 64.4306 185.412C64.6324 185.137 64.1715 184.874 63.9718 185.145C57.7832 193.575 52.4498 202.585 48.3732 212.208C48.2408 212.52 48.7548 212.656 48.8851 212.348L48.8858 212.349Z" fill="#E0E0E0"/>
<path d="M43.0734 198.1C45.8693 202.352 47.2081 207.53 46.8194 212.593C42.3647 211.054 38.4381 206.059 36.0833 202.003C33.7292 197.947 32.4123 193.39 31.2151 188.862C36.0408 190.548 40.2775 193.848 43.0734 198.101V198.1Z" fill="#E6E6E6"/>
<path d="M48.7659 215.932C45.4333 208.071 41.0388 200.786 35.985 193.902C35.7861 193.631 35.3252 193.893 35.5263 194.168C40.5502 201.012 44.9405 208.256 48.254 216.072C48.3843 216.379 48.8983 216.245 48.7659 215.932Z" fill="#E0E0E0"/>
<path d="M48.9055 218.602C55.1918 212.183 61.6098 205.892 67.8969 199.474C68.1355 199.231 67.7602 198.857 67.5216 199.101C61.2353 205.52 54.8173 211.811 48.5302 218.229C48.2916 218.472 48.6669 218.845 48.9055 218.602Z" fill="#E0E0E0"/>
<path d="M68.0895 196.481C62.6358 201.701 57.6663 207.421 53.2661 213.543H54.2637C58.4147 213.349 62.4446 211.317 65.0486 208.103C67.6534 204.889 68.7897 200.547 68.0895 196.481Z" fill="#E6E6E6"/>
<path d="M42.2174 184.062C44.5588 187.863 46.7656 191.744 48.8323 195.699C48.9894 196.001 49.4482 195.734 49.2911 195.433C47.2237 191.478 45.0176 187.597 42.6762 183.795C42.4985 183.506 42.039 183.771 42.2174 184.062Z" fill="#E0E0E0"/>
<path d="M36.6247 164.839C35.7319 168.826 34.8462 174.011 34.837 178.163C34.8278 182.314 36.1043 186.365 38.481 189.147C40.8578 191.929 45.6566 193.148 47.5909 191.556L36.6247 164.839Z" fill="#E6E6E6"/>
<path d="M61.6296 220.411H36.502V224.794H61.6296V220.411Z" fill="#E0E0E0"/>
<path d="M56.469 240.407H41.6753L38.9863 223.79H58.593L56.469 240.407Z" fill="#E0E0E0"/>
<path d="M311.412 146.316C301.53 157.789 298.644 174.772 304.187 188.828C310.347 183.371 314.684 175.055 314.958 167.78C315.233 160.506 313.314 153.346 311.412 146.316Z" fill="#E6E6E6"/>
<path d="M309.689 190.154C306.335 195.254 304.73 201.464 305.196 207.536C310.539 205.69 315.248 199.701 318.072 194.835C320.895 189.97 322.474 184.506 323.911 179.075C318.124 181.096 313.042 185.055 309.689 190.154H309.689Z" fill="#E6E6E6"/>
<path d="M308.396 166.336C304.428 180.5 302.403 195.188 302.413 209.891C302.416 214.076 302.588 218.259 302.917 222.432C302.943 222.768 303.475 222.771 303.448 222.432C302.293 207.764 303.15 192.959 306.021 178.524C306.826 174.472 307.793 170.454 308.908 166.476C308.999 166.149 308.487 166.01 308.396 166.336V166.336Z" fill="#E0E0E0"/>
<path d="M303.15 212.349C307.207 202.771 312.536 193.801 318.695 185.412C318.897 185.137 318.436 184.874 318.236 185.145C312.047 193.575 306.714 202.585 302.637 212.208C302.505 212.52 303.019 212.656 303.149 212.348L303.15 212.349Z" fill="#E0E0E0"/>
<path d="M297.338 198.1C300.133 202.352 301.472 207.53 301.084 212.593C296.629 211.054 292.702 206.059 290.347 202.003C287.993 197.947 286.676 193.39 285.479 188.862C290.305 190.548 294.542 193.848 297.338 198.101V198.1Z" fill="#E6E6E6"/>
<path d="M303.029 215.932C299.696 208.071 295.302 200.786 290.248 193.902C290.049 193.631 289.588 193.893 289.789 194.168C294.813 201.012 299.204 208.256 302.517 216.072C302.647 216.379 303.161 216.245 303.029 215.932Z" fill="#E0E0E0"/>
<path d="M303.169 218.601C309.455 212.183 315.873 205.892 322.16 199.474C322.399 199.23 322.024 198.857 321.785 199.101C315.499 205.52 309.081 211.81 302.794 218.229C302.555 218.472 302.93 218.845 303.169 218.601Z" fill="#E0E0E0"/>
<path d="M322.353 196.481C316.899 201.701 311.93 207.42 307.53 213.542H308.527C312.678 213.349 316.708 211.317 319.312 208.103C321.917 204.889 323.053 200.546 322.352 196.481H322.353Z" fill="#E6E6E6"/>
<path d="M296.482 184.062C298.824 187.863 301.03 191.744 303.097 195.699C303.254 196.001 303.713 195.734 303.556 195.433C301.488 191.478 299.282 187.597 296.941 183.795C296.763 183.506 296.304 183.771 296.482 184.062Z" fill="#E0E0E0"/>
<path d="M290.888 164.839C289.996 168.826 289.11 174.011 289.101 178.163C289.091 182.314 290.368 186.365 292.745 189.147C295.121 191.929 299.92 193.148 301.855 191.556L290.888 164.839Z" fill="#E6E6E6"/>
<path d="M315.893 220.411H290.766V224.794H315.893V220.411Z" fill="#E0E0E0"/>
<path d="M310.732 240.407H295.938L293.25 223.79H312.856L310.732 240.407Z" fill="#E0E0E0"/>
<path d="M139.622 284.462C139.622 289.302 120.542 293.226 97.0053 293.226C73.4686 293.226 54.3887 289.302 54.3887 284.462C54.3887 279.622 73.4686 275.698 97.0053 275.698C120.542 275.698 139.622 279.622 139.622 284.462Z" fill="#F5F5F5"/>
<path d="M203.451 315C225.472 315 243.324 311.076 243.324 306.236C243.324 301.395 225.472 297.471 203.451 297.471C181.43 297.471 163.579 301.395 163.579 306.236C163.579 311.076 181.43 315 203.451 315Z" fill="#F5F5F5"/>
<path d="M314.514 270.527C314.514 275.871 296.64 280.204 274.592 280.204C252.543 280.204 234.67 275.871 234.67 270.527C234.67 265.182 252.543 260.85 274.592 260.85C296.64 260.85 314.514 265.182 314.514 270.527Z" fill="#F5F5F5"/>
<path d="M217.386 39.3618C222.919 33.225 222.393 23.7981 216.21 18.3057C210.027 12.8133 200.529 13.3361 194.996 19.4729C190.724 24.2106 190.079 30.9033 192.846 36.2383L191.228 40.4194L195.995 40.3547C196.056 40.411 196.109 40.4728 196.172 40.529C202.355 46.0214 211.852 45.4986 217.386 39.3618Z" fill="#407BFF"/>
<path d="M222.681 26.2296C222.591 26.2296 222.515 26.1629 222.505 26.0722C222.003 21.3282 218.9 16.8835 214.601 14.7501C214.514 14.7065 214.478 14.6011 214.522 14.5147C214.566 14.4283 214.675 14.3931 214.759 14.436C219.164 16.6221 222.343 21.175 222.857 26.0357C222.867 26.1319 222.796 26.2184 222.699 26.2282H222.681V26.2296Z" fill="#407BFF"/>
<path d="M222.775 30.6509C222.762 30.6509 222.748 30.6495 222.734 30.646C222.638 30.6235 222.58 30.5287 222.602 30.4345C222.769 29.7423 222.789 29.0052 222.661 28.3046C222.644 28.209 222.707 28.1177 222.803 28.1001C222.905 28.0825 222.992 28.1458 223.009 28.242C223.145 28.9897 223.124 29.7768 222.946 30.516C222.927 30.5968 222.855 30.6509 222.775 30.6509Z" fill="#407BFF"/>
<path d="M205.894 35.7674L199.008 30.6784L200.798 28.2934L205.415 31.7057L211.759 24.1937L214.055 26.1037L205.894 35.7674Z" fill="white"/>
<path d="M179.219 69.3625C179.219 69.3625 194.102 88.3526 198.661 91.2372C203.22 94.1219 218.371 104.403 218.371 104.403L223.33 94.5393L199.532 81.9593L184.295 66.4736L179.219 69.3625Z" fill="#BF5E60"/>
<path d="M179.22 69.3626C179.22 69.3626 177.598 68.0443 177.374 65.4246C177.151 62.8049 178.714 51.2677 179.831 51.3858C180.947 51.5038 180.649 52.2424 180.947 55.7876C181.244 59.3328 182.138 63.1394 182.138 63.1394L184.296 66.473L179.22 69.3619L179.22 69.3626Z" fill="#BF5E60"/>
<path d="M178.629 67.355C177.965 66.2574 178.146 64.7093 178.322 63.2118C178.431 62.2779 178.535 61.396 178.437 60.6546C178.368 60.129 178.283 59.4755 178.514 58.895C178.75 58.304 179.431 57.8129 180.075 58.0286C180.662 58.2253 180.907 58.8634 181.067 59.4614L182.146 63.4669L181.805 63.5575L180.725 59.5521C180.582 59.0187 180.39 58.505 179.961 58.3617C179.517 58.2141 179.016 58.5922 178.844 59.0243C178.646 59.5204 178.721 60.0988 178.788 60.6097C178.892 61.3939 178.785 62.2969 178.673 63.2533C178.504 64.6924 178.33 66.1808 178.931 67.1751L178.628 67.3564L178.629 67.355Z" fill="#A74145"/>
<path d="M246.15 251.007L249.869 259.553L256.787 258.135L254.377 248.436L246.15 251.007Z" fill="#BF5E60"/>
<path d="M247.963 258.61C247.836 258.266 248.052 257.891 248.399 257.794L250.455 257.22C250.971 257.063 251.803 257.843 252.239 258.17C254.117 259.585 254.891 258.597 255.789 256.453C256.665 256.068 257.237 257.048 257.399 257.31L261.051 263.059C261.362 263.537 261.232 264.174 260.761 264.482C260.677 264.537 260.586 264.579 260.49 264.607C257.723 265.452 256.414 265.853 252.97 266.904L242.439 270.123C239.568 271 238.063 268.254 239.161 267.622C244.11 264.808 247.383 262.073 248.54 260.005C248.706 259.728 248.196 259.24 247.963 258.61Z" fill="#263238"/>
<path d="M249.94 261.705C249.898 261.705 249.857 261.69 249.823 261.661C249.226 261.143 248.408 260.907 247.642 261.031C247.541 261.048 247.454 260.982 247.439 260.886C247.424 260.79 247.489 260.7 247.585 260.684C248.46 260.544 249.382 260.811 250.057 261.396C250.13 261.46 250.138 261.571 250.073 261.645C250.038 261.684 249.989 261.705 249.94 261.705Z" fill="white"/>
<path d="M248.718 263.056C248.677 263.056 248.635 263.041 248.601 263.012C248.006 262.494 247.188 262.26 246.419 262.383C246.317 262.399 246.232 262.333 246.216 262.238C246.201 262.141 246.266 262.052 246.363 262.036C247.238 261.896 248.159 262.161 248.835 262.747C248.909 262.811 248.916 262.922 248.851 262.996C248.816 263.035 248.767 263.056 248.718 263.056Z" fill="white"/>
<path d="M247.15 264.526C247.108 264.526 247.067 264.511 247.033 264.482C246.437 263.964 245.621 263.73 244.851 263.853C244.751 263.868 244.663 263.804 244.648 263.708C244.633 263.612 244.697 263.522 244.794 263.506C245.67 263.365 246.591 263.631 247.267 264.217C247.34 264.281 247.347 264.392 247.283 264.466C247.248 264.506 247.199 264.526 247.15 264.526Z" fill="white"/>
<path d="M293.797 232.47L301.353 237.846L306.594 233.086L299.552 226.027L293.797 232.47Z" fill="#BF5E60"/>
<path d="M299.159 238.085C298.875 237.857 298.864 237.422 299.109 237.155L300.555 235.576C300.911 235.168 302.018 235.399 302.555 235.45C304.876 235.673 305.022 234.415 304.678 232.099C305.221 231.306 306.212 231.846 306.483 231.984L312.541 234.993C313.051 235.24 313.27 235.856 313.029 236.369C312.986 236.46 312.93 236.545 312.863 236.619C310.955 238.807 310.052 239.843 307.678 242.566L300.415 250.894C298.436 253.165 295.745 251.601 296.349 250.477C299.09 245.446 300.453 241.367 300.368 238.98C300.366 238.656 299.682 238.505 299.159 238.086V238.085Z" fill="#263238"/>
<path d="M300.116 240.335C300.067 240.335 300.018 240.315 299.983 240.275C299.918 240.202 299.925 240.091 299.998 240.027C300.666 239.445 301.59 239.185 302.462 239.332C302.558 239.348 302.623 239.439 302.606 239.535C302.59 239.63 302.504 239.698 302.402 239.678C301.635 239.553 300.823 239.779 300.233 240.29C300.199 240.32 300.158 240.335 300.116 240.335Z" fill="white"/>
<path d="M299.777 242.141C299.728 242.141 299.678 242.122 299.643 242.081C299.578 242.008 299.586 241.897 299.659 241.833C300.328 241.252 301.251 240.991 302.122 241.139C302.218 241.155 302.284 241.245 302.267 241.342C302.25 241.437 302.165 241.504 302.063 241.485C301.29 241.358 300.482 241.585 299.893 242.097C299.859 242.126 299.818 242.14 299.776 242.14L299.777 242.141Z" fill="white"/>
<path d="M299.206 244.233C299.157 244.233 299.107 244.213 299.073 244.173C299.008 244.1 299.015 243.989 299.088 243.925C299.755 243.344 300.674 243.079 301.551 243.23C301.648 243.245 301.713 243.336 301.696 243.432C301.68 243.528 301.593 243.596 301.492 243.575C300.722 243.448 299.91 243.675 299.322 244.188C299.288 244.218 299.247 244.232 299.205 244.232L299.206 244.233Z" fill="white"/>
<path d="M255.031 248.544L244.823 252.454L230.206 213.715C229.693 212.355 229.412 210.923 229.373 209.471C229.055 197.378 227.656 139.666 227.656 139.666C247.021 122.187 251.37 152.713 251.243 153.131C249.966 157.145 246.315 210.411 246.315 210.411C246.315 210.411 255.254 238.831 255.032 248.544L255.031 248.544Z" fill="#263238"/>
<path d="M227.517 139.578L227.769 139.992C231.514 145.023 238.612 150.38 242.32 154.975L243.611 157.874C243.611 157.874 270.616 137.096 253.063 128.534C252.333 128.178 246.961 125.327 246.961 125.327C242.312 124.194 227.517 139.578 227.517 139.578Z" fill="#263238"/>
<path d="M267.87 157.942C269.34 167.018 273.906 190.461 276.492 199.281C276.492 199.281 284.449 203.8 288.948 208.856L303.308 228.922L296.901 234.63L270.712 215.616C264.791 211.191 262.392 207.912 260.07 203.596C254.386 193.057 251.581 179.635 248.189 169.028C246.619 164.11 240.584 148.265 241.099 143.17C241.785 136.275 242.03 125.124 250.471 128.916C258.547 131.271 263.336 132.768 267.871 157.942H267.87Z" fill="#263238"/>
<path d="M252.819 124.277C250.715 121.883 249.341 118.946 248.855 115.806C248.113 111.019 247.1 104.329 247.214 103.805L247.543 90.8958C244.669 88.0428 233.997 88.0133 233.997 88.0133L226.839 89.8249C226.839 89.8249 224.18 90.9865 221.952 92.224C218.978 93.8767 217.414 93.9632 217.005 95.8626C217.005 95.8626 216.42 102.085 216.26 108.393C216.202 110.643 226.728 131.331 226.862 135.227L226.865 141.571C242.122 149.199 258.15 130.34 258.15 130.34L252.821 124.277H252.819Z" fill="#407BFF"/>
<path opacity="0.3" d="M247.802 108.83C247.802 108.83 241.114 102.836 241.453 100.03L247.14 103.063L247.521 106.861L247.802 108.83Z" fill="black"/>
<path d="M252.706 96.5294C252.861 96.7571 262.547 107.579 266.439 111.676C267.274 112.554 267.92 113.59 268.34 114.723L276.327 136.876L271.325 138.361L259.844 116.934L245.415 104.818L252.706 96.5294Z" fill="#BF5E60"/>
<path d="M271.136 136.583C271.136 136.583 269.8 138.099 269.931 139.758C270.062 141.418 269.721 142.778 269.904 144.006C270.086 145.233 270.991 143.819 271.318 142.97C271.645 142.121 272.026 141.162 272.628 141.509C273.231 141.857 276.23 147.007 277.12 147.393C278.011 147.781 277.789 146.797 277.789 146.797C277.789 146.797 278.551 148.028 279.125 147.861C279.273 147.818 279.55 147.478 279.29 146.862C278.708 145.478 277.336 142.636 277.336 142.636C277.411 142.8 279.358 146.188 279.716 146.658C280.184 147.272 280.721 147.324 281.07 147.043C281.567 146.644 279.298 142.361 279.33 142.115C279.33 142.115 280.554 144.623 281.378 144.664C282.204 144.705 281.521 143.084 280.645 141.769C279.842 140.563 278.585 137.988 277.649 136.841C276.495 135.428 275.401 134.735 273.737 135.165C272.073 135.594 271.136 136.583 271.136 136.583L271.136 136.583Z" fill="#BF5E60"/>
<path d="M245.707 89.9234C248.951 90.13 254.84 98.181 254.84 98.181L247.216 106.734C247.216 106.734 240.063 100.537 239.94 96.3898C239.846 92.8847 241.586 89.6543 245.707 89.9234Z" fill="#407BFF"/>
<path d="M222.572 92.1846C222.572 92.1846 211.258 88.0196 211.442 88.1489C211.627 88.2782 206.887 98.7613 206.887 98.7613L217.924 106.157L222.572 92.1846Z" fill="#407BFF"/>
<path d="M256.802 80.2595C260.272 78.4001 262.188 74.0714 261.22 70.2768C259.202 71.1629 257.162 72.056 254.996 72.4805C252.83 72.9049 250.497 72.8262 248.528 71.8333C247.047 71.0856 245.865 69.8762 244.663 68.7364C243.461 67.5966 242.159 66.4772 240.573 65.9839C238.986 65.4913 237.042 65.7794 236.018 67.0794L233.798 70.56C235.25 70.229 236.775 71.0954 237.613 72.3188C238.45 73.5423 238.73 75.0524 238.893 76.5232C239.055 77.9932 239.124 79.4942 239.612 80.8919C240.236 82.6803 241.517 84.187 243.01 85.3647C246.323 87.9788 250.854 89.0708 254.965 88.0744C259.077 87.0786 262.645 83.9551 263.982 79.9693C261.626 80.4577 259.19 80.5567 256.801 80.2602L256.802 80.2595Z" fill="#263238"/>
<path d="M223.854 63.9307C223.854 63.9307 218.533 73.449 218.281 76.4095C216.244 78.1311 214.796 74.6408 214.873 69.9628C214.935 66.1337 216.947 62.0018 220.281 60.5141C224.964 58.4236 223.855 63.9314 223.855 63.9314L223.854 63.9307Z" fill="#263238"/>
<path d="M223.606 96.5294C223.606 96.5294 222.173 92.1424 223.481 91.4151C224.373 90.5318 225.533 89.5009 225.364 88.2149C225.246 87.2262 224.925 86.1988 224.542 85.1982L225.872 83.7632L232.789 77.3193C232.459 81.7766 230.569 85.4645 233.996 88.0139" fill="#BF5E60"/>
<path opacity="0.2" d="M225.405 88.5973C227.279 87.5818 229.362 85.7787 229.199 83.627C229.124 82.7212 228.959 81.8589 228.761 81.3031L224.854 86.0675C225.131 86.8679 225.224 87.3942 225.405 88.5973Z" fill="black"/>
<path d="M234.941 70.2155C234.065 76.9981 233.838 79.88 230.17 83.3204C224.651 88.4959 216.529 86.3962 215.367 79.5996C214.32 73.4825 215.93 63.4182 222.765 60.8006C229.5 58.2216 235.819 63.4323 234.941 70.2148V70.2155Z" fill="#BF5E60"/>
<path d="M225.642 72.6064C225.637 73.2451 225.268 73.7869 224.817 73.8172C224.366 73.8474 224.006 73.3548 224.012 72.7167C224.017 72.0779 224.387 71.5361 224.837 71.5052C225.287 71.475 225.647 71.9676 225.642 72.6064H225.642Z" fill="#263238"/>
<path d="M219.118 72.1102C219.148 72.7279 218.811 73.2753 218.365 73.3322C217.919 73.3891 217.532 72.9337 217.502 72.3161C217.471 71.6984 217.808 71.151 218.255 71.094C218.701 71.0371 219.088 71.4918 219.118 72.1102Z" fill="#263238"/>
<path d="M227.467 70.4145C227.379 70.4201 227.292 70.3906 227.227 70.3253C226.216 69.307 225.012 69.593 224.998 69.5966C224.819 69.6394 224.646 69.5326 224.613 69.352C224.582 69.1721 224.702 68.9901 224.883 68.9444C224.946 68.929 226.457 68.5685 227.712 69.8334C227.837 69.9592 227.83 70.1721 227.696 70.3084C227.631 70.3738 227.548 70.4096 227.466 70.4152L227.467 70.4145Z" fill="#263238"/>
<path d="M216.841 69.0217C216.762 68.9957 216.694 68.9416 216.656 68.865C216.578 68.7062 216.655 68.5101 216.827 68.4279C218.557 67.5994 219.906 68.3176 219.963 68.3499C220.123 68.4377 220.17 68.6352 220.068 68.7912C219.967 68.9472 219.754 69.002 219.594 68.9156C219.542 68.8868 218.487 68.3443 217.112 69.0034C217.022 69.0463 216.925 69.0505 216.841 69.0231V69.0217Z" fill="#263238"/>
<path d="M217.406 62.8209C218.856 59.828 224.765 57.0474 231.56 59.9369C241.695 63.3437 236.836 79.6593 233.798 76.4331C232.972 75.5554 232.275 74.6855 231.689 73.8478C228.163 68.8143 223.239 64.9079 217.428 62.8293L217.406 62.8216L217.406 62.8209Z" fill="#263238"/>
<path d="M236.812 75.8367C235.951 77.2034 234.603 78.0319 233.386 78.2891C231.555 78.6756 230.723 75.7453 231.408 73.9632C232.026 72.3589 233.848 71.3477 235.601 71.7652C237.328 72.1769 237.796 74.2738 236.812 75.8367Z" fill="#BF5E60"/>
<path d="M221.07 71.5817C221.07 71.5817 219.904 74.0904 218.636 75.6349C218.415 75.9048 218.531 76.3144 218.855 76.4465C219.69 76.7867 220.691 76.5421 220.691 76.5421L221.069 71.5817H221.07Z" fill="#A74145"/>
<path d="M224.973 71.4832L223.383 71.1881C223.383 71.1881 224.299 72.3124 224.973 71.4832Z" fill="#263238"/>
<path d="M218.485 71.1019L216.88 70.9009C217.661 71.7512 218.284 71.3815 218.485 71.1019Z" fill="#263238"/>
<path opacity="0.2" d="M233.798 76.6091C233.718 76.6091 233.645 76.555 233.626 76.4742C233.604 76.3793 233.662 76.2845 233.758 76.2627C234.741 76.0301 235.182 75.5311 235.38 75.1531C235.598 74.7378 235.582 74.359 235.503 74.1609C235.342 73.761 234.831 73.442 234.356 73.6233C234.266 73.6563 234.162 73.6127 234.127 73.5221C234.092 73.4314 234.138 73.3295 234.229 73.2951C234.907 73.0386 235.606 73.4659 235.833 74.0309C235.976 74.3878 235.923 74.8797 235.696 75.3147C235.463 75.7574 234.953 76.3407 233.841 76.6035C233.827 76.607 233.813 76.6084 233.8 76.6084L233.798 76.6091Z" fill="black"/>
<path d="M220.061 78.7655C220.576 79.516 221.207 80.9783 221.207 80.9783C221.35 80.9453 221.494 80.913 221.636 80.8722C223.574 80.3782 224.309 79.5132 224.536 78.7044C224.658 78.2617 224.623 77.8309 224.549 77.4922C224.468 77.0987 224.32 76.8365 224.32 76.8365C223.45 77.7079 221.679 78.3059 220.719 78.587C220.319 78.7086 220.061 78.7655 220.061 78.7655Z" fill="#263238"/>
<path d="M220.72 78.587L221.074 79.2307C222.899 78.7613 224.12 78.1872 224.55 77.4922C224.469 77.0987 224.321 76.8365 224.321 76.8365C223.451 77.7079 221.68 78.3059 220.72 78.587H220.72Z" fill="white"/>
<path d="M221.636 80.8722C223.574 80.3782 224.309 79.5132 224.536 78.7043C223.882 78.8976 223.115 79.2033 222.493 79.6762C222.016 80.0353 221.769 80.466 221.636 80.8722Z" fill="#FB504E"/>
<path d="M94.1477 101.229C94.1477 101.229 83.7125 117.629 81.7712 125.921C80.7184 130.42 86.6139 151.083 86.6139 151.083L92.5505 150.266C92.5505 150.266 89.4225 129.188 90.5383 127.154C93.8957 121.032 104.325 107.822 104.165 107.426C104.004 107.03 94.1484 101.228 94.1484 101.228L94.1477 101.229Z" fill="#FDAC6D"/>
<path d="M86.8289 157.094C87.4923 158.625 88.4063 160.611 89.1964 160.803C89.9866 160.995 90.2096 160.372 90.7123 160.366C91.2149 160.36 91.855 160.928 92.7407 159.888C92.7407 159.888 94.5277 160.599 95.0566 159.34C96.3118 159.219 96.6531 158.479 96.4287 157.148C96.3593 156.831 95.5868 155.071 95.5493 154.742C95.6711 154.81 96.8492 156.703 97.0241 156.758C98.4995 157.224 99.238 157.011 99.2522 156.323C99.2592 155.969 99.0412 155.647 98.7282 155.476C97.9615 155.058 97.6924 151.98 96.7961 151.457C96.0442 151.019 93.4515 149.705 92.3775 149.431C91.3034 149.156 86.9273 150.347 86.9273 150.347C86.9273 150.347 86.1655 155.562 86.8289 157.094Z" fill="#FDAC6D"/>
<path d="M130.51 91.3772C130.51 91.3772 145.675 87.293 149.623 84.4738C153.571 81.6552 160.625 62.443 160.625 62.443L165.867 62.5273C165.867 62.5273 161.903 84.5553 158.326 89.1749C154.75 93.7945 136.762 102.333 136.762 102.333L130.51 91.3772H130.51Z" fill="#FDAC6D"/>
<path d="M161.094 63.1824C161.094 63.1824 159.156 61.7741 158.875 59.8227C158.595 57.8713 157.847 56.3871 157.739 54.922C157.632 53.4568 159.044 54.8587 159.643 55.7561C160.242 56.6528 160.931 57.6633 161.537 57.1074C162.143 56.5516 164.269 49.8329 165.197 49.1569C166.125 48.4809 166.124 49.6748 166.124 49.6748C166.124 49.6748 166.684 48.0565 167.39 48.1021C167.574 48.1141 167.981 48.4373 167.842 49.2145C167.529 50.9629 166.683 54.598 166.683 54.598C166.728 54.3886 168.095 49.9749 168.387 49.3403C168.769 48.5111 169.375 48.313 169.851 48.5484C170.53 48.8829 169.022 54.4125 169.123 54.6894C169.123 54.6894 169.884 51.4773 170.827 51.2187C171.77 50.9601 171.402 53.0078 170.732 54.7526C170.118 56.352 169.335 59.6491 168.551 61.2148C167.586 63.1437 166.502 64.2245 164.468 64.1549C162.433 64.0853 161.094 63.1824 161.094 63.1824Z" fill="#FDAC6D"/>
<path d="M123.472 274.588L130.323 275.653L136.095 261.252L127.102 258.4L123.472 274.588Z" fill="#FDAC6D"/>
<path d="M131.168 274.494L129.002 273.873C128.512 273.732 127.987 273.848 127.583 274.157C125.841 275.492 125.089 274.582 124.195 272.601C123.36 272.254 122.841 273.171 122.694 273.414L119.372 278.795C119.09 279.243 119.226 279.834 119.677 280.114C119.757 280.164 119.844 280.202 119.935 280.226C122.565 280.981 123.809 281.338 127.083 282.277L137.093 285.149C139.822 285.932 141.182 283.365 140.132 282.789C135.4 280.231 132.251 277.727 131.113 275.82C130.898 275.481 131.252 275.376 131.168 274.494Z" fill="#263238"/>
<path d="M135.383 277.504C135.659 277.407 135.871 277.186 135.955 276.909C136.018 276.764 135.992 276.597 135.889 276.479C135.349 275.807 132.276 276.287 131.929 276.346C131.891 276.348 131.857 276.367 131.835 276.398C131.795 276.453 131.808 276.531 131.864 276.571C132.484 276.918 133.138 277.201 133.817 277.413C134.316 277.608 134.865 277.641 135.384 277.505L135.383 277.504ZM135.66 276.634C135.705 276.684 135.714 276.756 135.684 276.816C135.614 277.014 135.462 277.172 135.266 277.251C134.519 277.53 133.091 276.908 132.335 276.531C133.603 276.363 135.36 276.266 135.66 276.634Z" fill="#407BFF"/>
<path d="M131.947 276.624C132.858 276.521 134.948 275.683 135.06 274.955C135.089 274.804 135.034 274.598 134.681 274.444C133.245 273.849 131.839 276.312 131.805 276.425C131.778 276.466 131.777 276.52 131.804 276.561C131.829 276.577 131.858 276.586 131.889 276.586L131.946 276.625L131.947 276.624ZM134.568 274.647C134.836 274.754 134.807 274.852 134.797 274.887C134.75 275.338 133.192 276.084 132.173 276.293C132.537 275.728 133.53 274.341 134.471 274.611L134.568 274.646V274.647Z" fill="#407BFF"/>
<path d="M130.007 277.408C129.958 277.408 129.91 277.388 129.874 277.349C129.809 277.276 129.815 277.165 129.889 277.101C130.515 276.547 131.383 276.286 132.213 276.41C132.31 276.424 132.377 276.513 132.363 276.609C132.348 276.704 132.256 276.771 132.162 276.757C131.433 276.652 130.672 276.879 130.123 277.363C130.09 277.393 130.048 277.407 130.006 277.407L130.007 277.408Z" fill="#407BFF"/>
<path d="M131.059 278.799C131.01 278.799 130.962 278.78 130.927 278.74C130.862 278.668 130.868 278.557 130.941 278.492C131.568 277.939 132.437 277.68 133.266 277.801C133.362 277.816 133.43 277.904 133.415 278C133.401 278.097 133.313 278.165 133.214 278.149C132.49 278.043 131.726 278.269 131.177 278.754C131.143 278.785 131.101 278.799 131.058 278.799L131.059 278.799Z" fill="#407BFF"/>
<path d="M132.488 280.125C132.439 280.125 132.391 280.106 132.356 280.066C132.29 279.994 132.297 279.883 132.37 279.818C132.996 279.265 133.864 279.005 134.695 279.127C134.792 279.142 134.858 279.23 134.844 279.326C134.829 279.422 134.735 279.488 134.643 279.475C133.914 279.369 133.153 279.595 132.605 280.08C132.571 280.111 132.53 280.125 132.487 280.125L132.488 280.125Z" fill="#407BFF"/>
<path d="M62.1052 251.142L68.5409 253.705L77.42 240.956L69.3013 236.175L62.1052 251.142Z" fill="#FDAC6D"/>
<path d="M69.6265 252.764L67.6568 251.676C67.2108 251.43 66.6734 251.426 66.2097 251.637C64.2103 252.55 63.6828 251.497 63.2588 249.367C62.5239 248.843 61.8116 249.621 61.6127 249.826L57.16 254.329C56.7834 254.703 56.7827 255.309 57.1593 255.683C57.2266 255.75 57.3024 255.806 57.3859 255.85C59.7782 257.171 60.9103 257.796 63.8875 259.44L72.9938 264.467C75.476 265.837 77.3819 263.638 76.4884 262.844C72.4557 259.297 69.9522 256.156 69.2746 254.044C69.1415 253.666 69.5097 253.641 69.6265 252.764Z" fill="#263238"/>
<path d="M73.0534 256.635C73.3437 256.602 73.6007 256.434 73.7459 256.182C73.8393 256.055 73.852 255.887 73.7784 255.748C73.4046 254.973 70.3007 254.756 69.9496 254.737C69.9127 254.731 69.8752 254.742 69.8469 254.766C69.7952 254.811 69.7895 254.89 69.8349 254.941C70.3602 255.418 70.9344 255.838 71.5482 256.196C71.99 256.498 72.5175 256.652 73.0541 256.635L73.0534 256.635ZM73.52 255.848C73.5526 255.907 73.5462 255.98 73.5023 256.031C73.3897 256.208 73.2056 256.329 72.9968 256.362C72.2045 256.468 70.9542 255.544 70.3028 255.009C71.5758 255.127 73.3118 255.425 73.52 255.849V255.848Z" fill="#407BFF"/>
<path d="M69.9036 255.014C70.8148 255.116 73.0407 254.765 73.3147 254.08C73.377 253.939 73.3699 253.726 73.0605 253.497C71.796 252.598 69.8689 254.686 69.8115 254.787C69.7754 254.821 69.7627 254.873 69.7797 254.92C69.8002 254.941 69.8271 254.956 69.8568 254.963L69.9043 255.014L69.9036 255.014ZM72.9048 253.67C73.1412 253.834 73.091 253.924 73.0733 253.955C72.926 254.384 71.2388 254.765 70.1988 254.742C70.6809 254.273 71.9631 253.142 72.8184 253.615L72.9048 253.67Z" fill="#407BFF"/>
<path d="M67.876 255.349C67.8137 255.349 67.7528 255.316 67.7209 255.258C67.6742 255.173 67.7053 255.066 67.791 255.019C68.5266 254.619 69.4314 254.561 70.2124 254.864C70.3037 254.899 70.3483 255 70.3129 255.091C70.2768 255.181 70.1734 255.225 70.0835 255.191C69.3996 254.927 68.6052 254.977 67.9602 255.327C67.9333 255.342 67.9043 255.348 67.8753 255.348L67.876 255.349Z" fill="#407BFF"/>
<path d="M68.5874 256.94C68.5251 256.94 68.4642 256.907 68.4323 256.849C68.3856 256.764 68.4168 256.657 68.5024 256.61C69.2381 256.21 70.1436 256.152 70.9245 256.454C71.0158 256.489 71.0604 256.591 71.025 256.681C70.9896 256.771 70.887 256.816 70.7957 256.781C70.1103 256.518 69.3166 256.566 68.6724 256.918C68.6455 256.933 68.6164 256.939 68.5874 256.939V256.94Z" fill="#407BFF"/>
<path d="M69.6792 258.55C69.6169 258.55 69.556 258.517 69.5241 258.458C69.4774 258.373 69.5086 258.267 69.5942 258.22C70.3299 257.82 71.2347 257.763 72.0156 258.065C72.1069 258.1 72.1515 258.201 72.1161 258.292C72.0807 258.382 71.9774 258.426 71.8867 258.392C71.2028 258.128 70.4084 258.177 69.7635 258.528C69.7366 258.543 69.7075 258.549 69.6785 258.549L69.6792 258.55Z" fill="#407BFF"/>
<path d="M62.5286 244.356L74.2488 251.648C74.2488 251.648 101.115 215.616 106.124 206.373C111.133 197.129 121.295 173.005 121.295 173.005L121.276 173.052C121.515 173.751 122.472 181.018 124.697 188.37C127.602 197.986 130.664 208.354 131.258 211.041C132.985 218.957 122.836 268.303 122.836 268.303L135.17 271.743C135.17 271.743 149.916 221.972 150.602 215.253C152.202 199.578 139.998 160.634 139.655 158.641C139.212 156.094 138.716 148.373 138.716 148.373L106.432 139.974C106.432 139.974 104.087 144.366 102.511 148.394C96.6103 163.51 91.9021 191.079 90.2241 196.76C81.481 207.542 62.5286 244.356 62.5286 244.356Z" fill="#263238"/>
<path d="M126.758 103.81C131.529 107.148 148.888 101.679 148.888 101.679L146.502 86.455C146.502 86.455 139.401 88.1204 131.951 90.2904C126.886 91.7422 121.519 100.18 126.758 103.81H126.758Z" fill="#407BFF"/>
<path d="M99.9355 91.9683C101.133 98.7481 99.6573 105.581 99.8145 112.462C99.9497 117.277 99.949 122.031 99.7741 126.182C99.3847 135.89 98.0126 148.484 98.0686 151.01C110.615 146.698 136.366 165.679 145.873 154.991C137.2 124.247 134.976 89.4287 134.976 89.4287C131.425 89.4287 129.414 90.6887 126.778 90.376C126.221 90.3127 125.656 90.2572 125.077 90.2101C120.362 89.9986 115.638 90.0569 110.931 90.3837C110.04 90.4392 109.134 90.5179 108.251 90.6043C103.735 91.0386 99.9363 91.9676 99.9363 91.9676L99.9355 91.9683Z" fill="#407BFF"/>
<path d="M100.462 91.8488C94.5459 92.6858 82.6685 112.762 82.6685 112.762L98.0314 121.278C98.0314 121.278 103.264 110.588 107.089 103.84C111.248 96.4924 107.618 90.839 100.462 91.8488Z" fill="#407BFF"/>
<path d="M129.725 62.8704L130.439 63.2871C131.276 63.3039 132.063 63.9315 132.259 64.7396C132.455 65.5477 132.044 66.4612 131.307 66.8554C131.196 66.9145 131.067 66.9756 131.028 67.0944C130.965 67.2848 131.167 67.4471 131.319 67.5778C132.071 68.2229 131.978 69.5054 131.302 70.2285C130.626 70.9516 129.552 71.1849 128.561 71.1069C128.303 68.3319 129.966 65.6468 129.725 62.8704Z" fill="#263238"/>
<path d="M108.435 70.681C107.371 70.7316 106.307 70.0802 105.876 69.1125C105.757 68.8448 105.683 68.5482 105.732 68.2601C105.864 67.4794 106.767 67.1217 107.535 66.906C106.677 66.698 106.102 65.8512 105.937 64.9904C105.862 64.5969 105.856 64.1823 105.985 63.8021C106.201 63.1626 106.778 62.6939 107.408 62.4417C108.038 62.1894 108.727 62.1226 109.403 62.058L113.303 74.3372C112.432 74.5311 111.528 74.6492 110.649 74.5002C109.769 74.3512 108.911 73.9071 108.42 73.1672C107.929 72.4272 107.882 71.3753 108.435 70.681Z" fill="#263238"/>
<path d="M123.567 90.1526C122.151 88.1533 122.677 85.3094 123.025 84.3299C123.198 83.7818 123.409 83.2456 123.657 82.7263L113.4 73.9016C114.045 78.4967 116.113 87.2384 112.514 90.2847C112.514 90.2847 120.051 95.5121 121.917 93.7244C123.783 91.9374 123.568 90.1518 123.568 90.1518L123.567 90.1526Z" fill="#FDAC6D"/>
<path opacity="0.2" d="M115.237 78.5768C114.623 83.9392 120.037 86.5371 122.774 87.393C122.594 86.3706 122.681 85.3186 123.028 84.3397L115.236 78.5768H115.237Z" fill="black"/>
<path d="M111.641 69.8954C112.908 76.2311 113.489 79.8297 117.278 82.6511C122.977 86.8955 130.592 83.0221 131.316 76.4257C131.967 70.4878 129.787 61.1242 122.956 59.4707C116.227 57.8411 110.374 63.5605 111.641 69.8961V69.8954Z" fill="#FDAC6D"/>
<path d="M109.768 62.3224C110.203 58.6865 119.347 57.4821 122.143 58.955C122.561 59.1749 117.496 62.491 117.809 62.3329L115.372 63.5093C114.968 63.4755 114.256 64.0166 114.014 65.2449C114.014 65.2449 115.622 75.0014 113.126 78.203C110.667 77.4103 110.01 73.5454 108.97 71.3276C107.42 68.0228 105.432 63.1452 109.767 62.3224H109.768Z" fill="#263238"/>
<path d="M109.741 75.5543C110.492 77.1311 111.931 78.2175 113.33 78.6792C115.434 79.3742 115.891 77.1958 115.433 75.2071C115.021 73.4173 114.176 71.2804 112.003 71.4469C109.862 71.6106 108.883 73.7511 109.742 75.5543H109.741Z" fill="#FDAC6D"/>
<path d="M121.576 70.0422C121.663 70.6958 122.094 71.1764 122.537 71.116C122.98 71.0555 123.268 70.4758 123.18 69.8223C123.092 69.1688 122.662 68.6881 122.218 68.7485C121.775 68.809 121.488 69.3887 121.576 70.0422Z" fill="#263238"/>
<path d="M128.036 69.8343C128.123 70.4886 128.554 70.9685 128.997 70.9081C129.44 70.847 129.728 70.2679 129.641 69.6144C129.553 68.9609 129.122 68.4802 128.679 68.5407C128.236 68.6018 127.948 69.1808 128.036 69.8343Z" fill="#263238"/>
<path d="M125.823 69.7247C125.823 69.7247 128.406 72.6993 129.272 73.934C128.44 74.8763 126.763 74.7042 126.763 74.7042L125.823 69.7247Z" fill="#ED8640"/>
<path d="M119.299 67.6615C119.406 67.689 119.527 67.6615 119.611 67.5779C120.618 66.5927 121.777 66.7965 121.788 66.7986C121.961 66.8309 122.131 66.722 122.167 66.5555C122.202 66.3889 122.09 66.2273 121.917 66.1943C121.857 66.1823 120.404 65.9265 119.156 67.15C119.031 67.2722 119.032 67.4669 119.157 67.5849C119.197 67.6236 119.246 67.6489 119.298 67.6615H119.299Z" fill="#263238"/>
<path opacity="0.2" d="M114.298 75.2986C114.219 75.2986 114.147 75.2459 114.127 75.1665C113.995 74.6535 113.726 74.1813 113.347 73.8004C113.102 73.5531 112.707 73.2481 112.216 73.1961C111.783 73.1511 111.342 73.3521 111.173 73.676C111.128 73.7632 111.022 73.7962 110.935 73.7519C110.848 73.7077 110.814 73.6015 110.859 73.5158C111.094 73.0598 111.674 72.7836 112.253 72.8475C112.847 72.9108 113.313 73.2671 113.599 73.5545C114.021 73.9796 114.322 74.5073 114.469 75.0808C114.493 75.1749 114.436 75.2705 114.341 75.2944C114.326 75.2979 114.311 75.3 114.297 75.3L114.298 75.2986Z" fill="black"/>
<path d="M130.597 66.6784C130.654 66.6587 130.707 66.6228 130.746 66.5723C130.852 66.4352 130.825 66.2413 130.685 66.1387C129.279 65.1134 127.896 65.6004 127.831 65.6145C127.666 65.6735 127.579 65.852 127.639 66.0122C127.698 66.1717 127.879 66.2539 128.044 66.197C128.101 66.1745 129.171 65.8126 130.299 66.6355C130.387 66.7001 130.499 66.7121 130.597 66.6784Z" fill="#263238"/>
<path d="M107.621 59.4229C107.958 57.8853 109.911 57.3358 111.457 57.4707C111.173 55.6697 113.494 54.3528 115.038 54.2305C116.647 54.1026 117.294 54.6571 117.294 54.6571C117.173 54.6957 117.674 53.707 118.009 53.2994C119.245 51.7956 121.396 51.1442 123.243 51.7148C125.09 52.2854 126.524 54.045 126.732 55.995C127.613 54.9072 129.399 54.7484 130.456 55.6641C131.513 56.5797 131.642 58.3969 130.726 59.4538C131.91 59.3941 133.031 60.4804 133.029 61.6856C133.026 62.8908 131.899 63.968 130.716 63.897C130.8 65.2434 130.845 66.9314 130.929 68.2785L128.508 63.5604C127.515 63.3377 127.285 62.9378 126.976 61.9533C126.42 63.2941 125.308 63.3131 123.879 63.4171C122.45 63.5211 120.992 62.7523 120.249 61.5057C119.664 62.9069 118.383 64.0629 116.89 64.1922C115.397 64.3215 113.814 63.2168 113.646 61.7032C112.915 63.0917 111.114 63.7832 109.66 63.233C108.205 62.6827 107.284 60.9604 107.622 59.4229H107.621Z" fill="#263238"/>
<path d="M126.519 76.873C125.968 77.5771 125.471 78.3192 125.03 79.0943C124.882 79.0408 124.73 78.9895 124.585 78.9291C122.578 78.1702 121.896 77.1632 121.76 76.2715C121.701 75.8344 121.747 75.3896 121.892 74.9728C121.969 74.736 122.079 74.5112 122.217 74.3046C123.04 75.339 124.85 76.1878 125.84 76.601C126.275 76.7591 126.519 76.8737 126.519 76.8737L126.519 76.873Z" fill="#263238"/>
<path d="M125.864 76.5888L125.406 77.2325C123.522 76.515 122.292 75.7645 121.916 74.9606C121.992 74.7238 122.102 74.499 122.241 74.2924C123.068 75.3359 124.874 76.1756 125.864 76.5888Z" fill="white"/>
<path d="M124.609 78.9174C122.601 78.1585 121.92 77.1515 121.784 76.2598C122.541 76.5619 123.239 76.9948 123.844 77.538C124.238 77.9076 124.505 78.3897 124.609 78.9174Z" fill="#D7504D"/>
<path d="M208.151 113.104C209.016 114.021 209.718 114.842 210.457 115.721C211.196 116.6 211.896 117.469 212.571 118.368C213.944 120.143 215.243 121.977 216.508 123.834C217.774 125.691 218.974 127.591 220.097 129.566L221.053 131.129C221.41 131.718 221.695 132.319 221.996 132.912C222.557 134.09 223.035 135.305 223.425 136.548C224.177 138.89 224.69 141.303 224.956 143.747C225.225 146.092 225.319 148.454 225.236 150.813C225.178 153.115 224.98 155.411 224.643 157.689C224.323 159.972 223.855 162.234 223.243 164.457L217.412 163.494C217.419 161.527 217.388 159.375 217.272 157.329C217.156 155.283 216.969 153.217 216.708 151.211C216.273 147.37 215.303 143.608 213.824 140.032C213.468 139.24 213.068 138.468 212.624 137.721C212.396 137.369 212.186 137.001 211.95 136.68C211.816 136.506 211.736 136.375 211.572 136.169L211.09 135.541C209.781 133.888 208.488 132.236 207.156 130.581C205.823 128.926 204.506 127.272 203.177 125.689L199.264 120.928L208.153 113.104H208.151Z" fill="#FFBBB5"/>
<path d="M192.158 117.238C190.886 121.745 204.527 130.831 204.527 130.831L216.221 121.992C213.615 117.808 210.638 113.863 207.326 110.204C201.86 104.163 194.224 109.938 192.158 117.238Z" fill="#263238"/>
<path opacity="0.2" d="M192.158 117.238C190.886 121.745 204.527 130.831 204.527 130.831L216.221 121.992C213.615 117.808 210.638 113.863 207.326 110.204C201.86 104.163 194.224 109.938 192.158 117.238Z" fill="white"/>
<path opacity="0.2" d="M201.695 122.565C199.741 121.358 199.29 123.839 199.422 127.032C202.118 129.228 204.521 130.831 204.521 130.831L206.01 129.704C205.054 126.734 203.659 123.772 201.696 122.565H201.695Z" fill="black"/>
<path d="M219.059 161.953C219.059 161.953 216.688 162.332 215.543 163.943C214.398 165.554 213.052 166.538 212.285 167.794C211.517 169.05 213.418 168.439 214.363 167.911C215.307 167.384 216.384 166.795 216.669 167.563C216.953 168.332 215.766 175.274 216.283 176.295C216.8 177.316 217.346 176.252 217.346 176.252C217.346 176.252 217.103 177.947 217.753 178.225C217.921 178.297 218.432 178.193 218.665 177.439C219.188 175.741 220.1 172.121 220.1 172.121C220.044 172.328 219.239 176.876 219.208 177.572C219.167 178.483 219.616 178.933 220.149 178.939C220.907 178.948 222.098 173.343 222.316 173.142C222.316 173.142 221.521 176.345 222.241 177.002C222.962 177.658 223.574 175.668 223.777 173.812C223.963 172.111 224.777 168.821 224.798 167.073C224.823 164.919 224.353 163.467 222.51 162.611C220.667 161.754 219.059 161.953 219.059 161.953Z" fill="#FFBBB5"/>
<path d="M162.043 181.916C162.043 181.916 176.824 183.205 193.318 181.132C209.812 179.059 209.981 176.481 209.981 176.481L205.052 170.834C205.052 170.834 193.838 168.109 192.95 167.951C192.062 167.793 162.043 181.917 162.043 181.917V181.916Z" fill="#263238"/>
<path d="M226.72 291.566L219.95 293.05L213.289 279.033L222.085 275.632L226.72 291.566Z" fill="#FFBBB5"/>
<path d="M219.034 291.946L221.157 291.192C221.637 291.022 222.169 291.105 222.591 291.389C224.412 292.614 225.106 291.66 225.876 289.627C226.687 289.229 227.262 290.112 227.425 290.347L231.076 295.513C231.386 295.942 231.287 296.54 230.854 296.848C230.777 296.903 230.693 296.945 230.603 296.976C228.025 297.891 226.806 298.323 223.598 299.463L213.787 302.946C211.112 303.895 209.594 301.417 210.606 300.778C215.169 297.933 218.156 295.24 219.172 293.266C219.366 292.915 219.006 292.831 219.035 291.946H219.034Z" fill="#263238"/>
<path d="M216.572 295.021C217.236 294.767 217.872 294.445 218.469 294.06C218.522 294.016 218.53 293.938 218.486 293.885C218.462 293.856 218.427 293.84 218.39 293.839C218.04 293.801 214.943 293.512 214.446 294.216C214.35 294.34 214.334 294.509 214.406 294.649C214.508 294.921 214.733 295.129 215.014 295.209C215.54 295.312 216.086 295.246 216.572 295.021H216.572ZM217.997 294.049C217.266 294.472 215.88 295.181 215.116 294.948C214.916 294.881 214.754 294.733 214.671 294.54C214.637 294.482 214.642 294.41 214.683 294.357C214.959 293.972 216.72 293.959 217.996 294.05L217.997 294.049Z" fill="#407BFF"/>
<path d="M218.444 294.077C218.474 294.075 218.503 294.065 218.527 294.047C218.551 294.004 218.547 293.95 218.517 293.911C218.477 293.801 216.92 291.43 215.523 292.111C215.181 292.288 215.138 292.496 215.177 292.645C215.334 293.365 217.473 294.072 218.388 294.119L218.443 294.076L218.444 294.077ZM215.744 292.266C216.666 291.938 217.744 293.262 218.142 293.803C217.113 293.657 215.511 293.008 215.436 292.561C215.424 292.527 215.389 292.43 215.649 292.307L215.743 292.265L215.744 292.266Z" fill="#407BFF"/>
<path d="M220.364 294.783C220.326 294.783 220.287 294.77 220.255 294.745C219.677 294.294 218.9 294.116 218.183 294.265C218.083 294.287 217.994 294.224 217.974 294.13C217.953 294.036 218.015 293.942 218.11 293.922C218.929 293.747 219.812 293.953 220.473 294.468C220.549 294.528 220.564 294.638 220.503 294.715C220.468 294.759 220.416 294.783 220.364 294.783Z" fill="#407BFF"/>
<path d="M219.4 296.236C219.362 296.236 219.324 296.224 219.291 296.198C218.713 295.748 217.935 295.569 217.219 295.719C217.118 295.742 217.029 295.678 217.009 295.584C216.989 295.489 217.05 295.396 217.145 295.376C217.966 295.202 218.848 295.408 219.509 295.922C219.585 295.982 219.6 296.092 219.539 296.169C219.504 296.212 219.452 296.236 219.4 296.236Z" fill="#407BFF"/>
<path d="M218.057 297.648C218.019 297.648 217.981 297.635 217.948 297.61C217.37 297.16 216.593 296.982 215.876 297.131C215.777 297.153 215.687 297.089 215.667 296.996C215.646 296.901 215.708 296.808 215.803 296.788C216.622 296.614 217.505 296.819 218.166 297.334C218.242 297.394 218.257 297.504 218.196 297.581C218.161 297.624 218.109 297.648 218.057 297.648Z" fill="#407BFF"/>
<path d="M185.725 301.237L178.791 301.32L175.152 286.248L184.462 284.7L185.725 301.237Z" fill="#FFBBB5"/>
<path d="M178.121 300.053L180.354 299.745C180.86 299.675 181.362 299.864 181.717 300.228C183.249 301.796 184.124 301.003 185.295 299.169C186.171 298.943 186.553 299.924 186.664 300.187L189.177 305.983C189.392 306.466 189.172 307.031 188.685 307.245C188.599 307.283 188.507 307.308 188.413 307.32C185.701 307.693 184.418 307.87 181.044 308.336L170.723 309.759C167.909 310.147 166.932 307.413 168.055 306.993C173.106 305.131 176.583 303.1 177.984 301.373C178.246 301.068 177.912 300.914 178.122 300.053H178.121Z" fill="#263238"/>
<path d="M175.08 302.565C175.782 302.452 176.471 302.265 177.134 302.01C177.196 301.978 177.219 301.903 177.188 301.842C177.171 301.809 177.139 301.785 177.103 301.778C176.768 301.669 173.795 300.759 173.164 301.348C173.044 301.45 172.995 301.612 173.037 301.764C173.08 302.05 173.258 302.3 173.517 302.435C174.01 302.643 174.558 302.688 175.081 302.565H175.08ZM176.674 301.903C175.871 302.169 174.369 302.582 173.669 302.2C173.486 302.094 173.359 301.916 173.318 301.71C173.296 301.647 173.316 301.577 173.367 301.534C173.716 301.213 175.443 301.557 176.673 301.904L176.674 301.903Z" fill="#407BFF"/>
<path d="M177.106 302.02C177.136 302.025 177.166 302.02 177.193 302.008C177.226 301.971 177.233 301.918 177.212 301.874C177.195 301.758 176.157 299.121 174.652 299.505C174.28 299.608 174.196 299.804 174.202 299.958C174.208 300.694 176.157 301.819 177.043 302.051L177.106 302.02ZM174.835 299.701C175.804 299.567 176.589 301.082 176.867 301.692C175.889 301.339 174.455 300.38 174.473 299.928C174.468 299.891 174.454 299.79 174.734 299.722L174.835 299.701Z" fill="#407BFF"/>
<path d="M178.876 303.103C178.826 303.103 178.775 303.082 178.741 303.041C178.269 302.484 177.549 302.152 176.815 302.152H176.811C176.713 302.152 176.634 302.074 176.634 301.976C176.634 301.879 176.712 301.8 176.811 301.8H176.816C177.653 301.8 178.474 302.179 179.013 302.814C179.076 302.887 179.066 302.999 178.991 303.062C178.958 303.089 178.918 303.103 178.877 303.103H178.876Z" fill="#407BFF"/>
<path d="M177.634 304.331C177.584 304.331 177.534 304.31 177.499 304.268C177.027 303.712 176.308 303.38 175.576 303.38H175.569C175.471 303.38 175.392 303.302 175.392 303.205C175.392 303.105 175.474 303.029 175.576 303.029C176.412 303.029 177.231 303.407 177.77 304.041C177.833 304.115 177.823 304.227 177.749 304.289C177.716 304.317 177.675 304.331 177.635 304.331H177.634Z" fill="#407BFF"/>
<path d="M176.029 305.441C175.979 305.441 175.929 305.42 175.894 305.378C175.422 304.822 174.702 304.49 173.97 304.49H173.963C173.865 304.49 173.786 304.412 173.786 304.315C173.786 304.215 173.869 304.137 173.97 304.138C174.806 304.138 175.626 304.517 176.165 305.152C176.228 305.225 176.218 305.337 176.144 305.4C176.11 305.427 176.07 305.441 176.03 305.441H176.029Z" fill="#407BFF"/>
<path d="M190.542 90.7083C189.818 95.3715 189.26 103.893 192.654 106.847C190.222 109.456 187.034 112.481 181.499 112.902C175.963 113.323 176.777 109.479 178.158 107.445C183.312 105.999 183.017 102.18 181.959 98.6124L190.542 90.7083Z" fill="#FFBBB5"/>
<path d="M176.395 85.3564C176.311 85.8652 175.98 86.2348 175.648 86.1849C175.316 86.135 175.11 85.6811 175.187 85.1716C175.263 84.6621 175.602 84.3016 175.934 84.3515C176.266 84.4014 176.471 84.8554 176.395 85.3571L176.395 85.3564Z" fill="#263238"/>
<path d="M176.185 85.8427C175.339 87.2945 174.294 88.6227 173.081 89.7892C173.701 90.3935 174.558 90.695 175.423 90.6142L176.185 85.8427Z" fill="#E97A75"/>
<path d="M177.868 83.5328C177.776 83.492 177.712 83.4084 177.697 83.31C177.589 82.5525 177.119 81.8934 176.435 81.5406C176.28 81.4753 176.208 81.2982 176.274 81.1443C176.34 80.9911 176.518 80.9194 176.673 80.9848C177.542 81.424 178.144 82.2518 178.292 83.2089C178.318 83.3719 178.206 83.5244 178.042 83.5504C177.984 83.5644 177.922 83.5581 177.868 83.5328Z" fill="#263238"/>
<path d="M193.84 86.7322C192.263 92.8261 191.653 96.4683 187.907 99.0514C182.267 102.913 175.148 98.6305 174.857 92.1957C174.593 86.4026 177.208 77.4177 183.765 76.0889C188.442 75.1409 193.008 78.1352 193.963 82.7773C194.233 84.0871 194.191 85.442 193.839 86.7322H193.84Z" fill="#FFBBB5"/>
<path d="M181.142 87.7533C179.471 85.6135 180.385 81.2532 181.622 79.2111C180.257 79.9736 175.788 79.4261 175.96 75.9337C176.207 70.8172 184.936 70.1068 189.634 71.2676C195.043 72.6422 199.664 78.0039 201.653 76.3511C203.406 79.8632 199.933 80.8646 199.933 80.8646C199.933 80.8646 202.84 89.5227 189.997 97.1359C188.312 96.8049 186.581 96.7817 184.888 97.0663C184.505 97.0439 184.146 96.8738 183.887 96.592C182.703 95.2772 179.489 91.2423 181.142 87.7533Z" fill="#263238"/>
<path d="M199.477 80.6497C199.477 80.6497 201.783 81.2674 202.661 79.8219C202.312 81.9371 201.001 81.8801 199.477 80.6497Z" fill="#263238"/>
<path d="M185.138 89.9347C184.276 91.2657 182.918 92.2031 181.36 92.5397C179.298 92.9634 178.398 91.0956 179.092 89.2524C179.712 87.5715 181.541 85.3327 183.558 85.7367C185.574 86.1408 186.161 88.2995 185.138 89.9347Z" fill="#FFBBB5"/>
<path d="M181.037 163.861C181.037 163.861 188.463 216.001 192.634 234.064C197.197 253.912 213.627 287.957 213.627 287.957L225.864 284.049C225.864 284.049 215.451 256.755 211.767 237.264C209.277 223.987 207.243 196.615 207.125 182.06C207.032 170.565 203.036 163.268 203.036 163.268L181.037 163.861V163.861Z" fill="#407BFF"/>
<path opacity="0.2" d="M187.959 187.534C188.48 201.942 188.772 203.647 188.697 214.772C186.643 202.849 184.511 189.04 182.975 178.821L187.96 187.534H187.959Z" fill="black"/>
<path d="M174.459 295.395L185.828 294.778C185.828 294.778 183.834 254.279 183.54 234.54C183.447 228.536 184.121 220.091 185.139 211.018C186.419 199.579 187.098 195.009 188.785 180.557C189.985 170.253 191.115 163.597 191.115 163.597L164.287 163.464C164.287 163.464 164.986 214.338 166.444 233.619C167.98 253.639 174.458 295.395 174.458 295.395H174.459Z" fill="#407BFF"/>
<path d="M173.815 296.113L186.685 295.713L186.562 291.587L173.599 291.871L173.815 296.113Z" fill="#407BFF"/>
<path opacity="0.3" d="M173.815 296.113L186.685 295.713L186.562 291.587L173.599 291.871L173.815 296.113Z" fill="black"/>
<path d="M213.406 288.719L226.339 284.044L224.93 280.203L211.571 284.041L213.406 288.719Z" fill="#407BFF"/>
<path opacity="0.3" d="M213.406 288.719L226.339 284.044L224.93 280.203L211.571 284.041L213.406 288.719Z" fill="black"/>
<path opacity="0.2" d="M194.111 179.438L187.959 187.534C187.959 187.534 192.871 186.233 194.111 179.438Z" fill="black"/>
<path d="M204.897 111.074C200.646 135.137 210.071 171.491 209.982 176.481C201.64 164.552 172.324 181.655 162.043 181.916C166.919 139.503 169.701 108.131 169.701 108.131C169.701 108.131 171.859 107.571 174.809 107.077C175.734 106.923 176.737 106.781 177.779 106.656C178.349 106.585 178.941 106.531 179.534 106.477C184.37 106.256 189.214 106.307 194.044 106.631C194.957 106.682 195.894 106.734 196.795 106.855C197.696 106.975 198.449 107.041 199.224 107.139C200.418 107.3 201.523 107.472 202.462 107.627C204.085 107.9 205.178 109.429 204.902 111.041L204.897 111.074Z" fill="#263238"/>
<path opacity="0.2" d="M204.897 111.074C200.646 135.137 210.071 171.491 209.982 176.481C201.64 164.552 172.324 181.655 162.043 181.916C166.919 139.503 169.701 108.131 169.701 108.131C169.701 108.131 171.859 107.571 174.809 107.077C175.734 106.923 176.737 106.781 177.779 106.656C178.349 106.585 178.941 106.531 179.534 106.477C184.37 106.256 189.214 106.307 194.044 106.631C194.957 106.682 195.894 106.734 196.795 106.855C197.696 106.975 198.449 107.041 199.224 107.139C200.418 107.3 201.523 107.472 202.462 107.627C204.085 107.9 205.178 109.429 204.902 111.041L204.897 111.074Z" fill="white"/>
<path opacity="0.2" d="M168.843 118.914C168.655 120.145 168.484 121.487 168.323 122.933C170.59 122.837 173.361 122.421 174.593 121.193C176.098 119.632 171.796 119.101 168.843 118.914Z" fill="black"/>
<path d="M166.984 68.4351C166.984 68.4351 169.271 69.1639 171.026 68.2426C172.782 67.3213 174.431 67.0494 175.689 66.275C176.947 65.5006 174.974 65.19 173.89 65.2357C172.807 65.2814 171.579 65.3221 171.676 64.5091C171.773 63.696 176.002 58.0406 176.007 56.898C176.012 55.7554 175.039 56.4581 175.039 56.4581C175.039 56.4581 176.029 55.0569 175.577 54.5165C175.459 54.376 174.957 54.2389 174.405 54.8074C173.164 56.0857 170.697 58.9021 170.697 58.9021C170.842 58.7433 173.636 55.052 173.982 54.4448C174.434 53.6515 174.239 53.0485 173.768 52.8033C173.096 52.454 169.475 56.9149 169.189 56.9964C169.189 56.9964 171.361 54.4975 171.018 53.5882C170.675 52.6789 169.222 54.1778 168.193 55.7406C167.25 57.1735 165.022 59.7398 164.206 61.2886C163.2 63.1971 162.957 64.703 164.209 66.2954C165.461 67.8877 166.984 68.4337 166.984 68.4337L166.984 68.4351Z" fill="#FFBBB5"/>
<path d="M163.245 64.5139C163.245 64.5139 150.993 81.7978 150.04 88.4427C149.088 95.0875 164.201 114.405 164.201 114.405L174.744 109.352C174.744 109.352 160.12 92.4482 160.23 88.2178C160.339 83.9875 169.325 66.9256 169.325 66.9256L163.245 64.5139Z" fill="#FFBBB5"/>
<path d="M168.375 118.874C166.33 117.244 156.964 107.851 156.964 107.851L164.558 95.1699C164.558 95.1699 175.398 101.283 181.737 105.983C188.234 110.803 174.94 120.132 168.376 118.874H168.375Z" fill="#263238"/>
<path opacity="0.2" d="M168.375 118.874C166.33 117.244 156.964 107.851 156.964 107.851L164.558 95.1699C164.558 95.1699 175.398 101.283 181.737 105.983C188.234 110.803 174.94 120.132 168.376 118.874H168.375Z" fill="white"/>
</svg>
