<svg width="824" height="792" viewBox="0 0 824 792" fill="none" xmlns="http://www.w3.org/2000/svg">
<path d="M731.581 495.934H433.711C428.385 495.934 424.051 491.288 424.051 485.577V20.4209C424.051 14.7106 428.385 10.0638 433.711 10.0638H731.581C736.907 10.0638 741.241 14.7088 741.241 20.4209V485.577C741.241 491.289 736.907 495.934 731.581 495.934ZM433.711 10.5055C428.611 10.5055 424.463 14.9544 424.463 20.4209V485.577C424.463 491.046 428.612 495.493 433.711 495.493H731.581C736.681 495.493 740.829 491.046 740.829 485.577V20.4209C740.829 14.9544 736.68 10.5055 731.581 10.5055H433.711Z" fill="#E0E0E0"/>
<path d="M388.092 495.934H90.2211C84.8948 495.934 80.5605 491.288 80.5605 485.577V20.4209C80.5605 14.7106 84.8931 10.0638 90.2211 10.0638H388.092C393.419 10.0638 397.753 14.7088 397.753 20.4209V485.577C397.753 491.289 393.419 495.934 388.092 495.934ZM90.2211 10.5055C85.1222 10.5055 80.9725 14.9544 80.9725 20.4209V485.577C80.9725 491.046 85.1222 495.493 90.2211 495.493H388.092C393.193 495.493 397.341 491.046 397.341 485.577V20.4209C397.341 14.9544 393.191 10.5055 388.092 10.5055H90.2211Z" fill="#E0E0E0"/>
<path d="M824 603.834H0V604.275H824V603.834Z" fill="#E0E0E0"/>
<path d="M111.624 629.036H85.1567V629.478H111.624V629.036Z" fill="#E0E0E0"/>
<path d="M368.958 624.248H280.74V624.689H368.958V624.248Z" fill="#E0E0E0"/>
<path d="M173.011 645.45H113.271V645.891H173.011V645.45Z" fill="#E0E0E0"/>
<path d="M694.702 624.018H623.524V624.459H694.702V624.018Z" fill="#E0E0E0"/>
<path d="M719.817 624.018H709.385V624.459H719.817V624.018Z" fill="#E0E0E0"/>
<path d="M609.929 635.025H521.118V635.467H609.929V635.025Z" fill="#E0E0E0"/>
<path d="M467.188 157.254C462.015 170.767 459.46 184.96 459.287 199.087L439.482 205.319L447.059 247.207L467.605 245.049C472.689 258.08 480.009 270.218 489.52 280.681L479.653 300.047L512.64 323.92L525.703 306.87C538.309 312.415 551.547 315.155 564.723 315.34L570.537 336.576L609.606 328.449L607.594 306.425C619.75 300.969 631.073 293.123 640.831 282.926L658.895 293.504L681.163 258.14L665.259 244.132C670.431 230.618 672.987 216.425 673.158 202.301L692.962 196.068L685.386 154.18L664.842 156.337C659.755 143.307 652.435 131.169 642.924 120.707L652.791 101.341L619.804 77.468L606.741 94.5179C594.133 88.9718 580.895 86.2297 567.721 86.0442L561.907 64.8105L522.836 72.9379L524.85 94.9613C512.694 100.414 501.372 108.26 491.615 118.457L473.551 107.879L451.281 143.245L467.186 157.252L467.188 157.254ZM596.37 152.821C621.029 170.67 627.527 206.573 610.879 233.014C594.229 259.454 560.738 266.417 536.079 248.571C511.417 230.72 504.922 194.819 521.57 168.378C538.22 141.938 571.706 134.971 596.37 152.821Z" fill="#EBEBEB"/>
<path d="M224.293 44.4426C219.639 52.0417 216.51 60.3882 214.842 68.9979L202.052 70.2894V96.8448L214.842 98.1363C216.508 106.742 219.639 115.091 224.293 122.69L216.124 133.268L233.639 152.046L243.506 143.287C250.594 148.277 258.379 151.634 266.41 153.42L267.614 167.134H292.382L293.587 153.422C301.618 151.634 309.403 148.277 316.491 143.289L326.357 152.047L343.872 133.27L335.703 122.69C340.357 115.091 343.487 106.744 345.154 98.1363L357.943 96.8448V70.2912L345.154 68.9997C343.487 60.3917 340.355 52.0452 335.702 44.4461L343.871 33.8664L326.356 15.0887L316.489 23.8468C309.399 18.8573 301.614 15.4986 293.587 13.7123L292.382 0H267.613L266.408 13.7141C258.379 15.5003 250.594 18.8573 243.506 23.8468L233.639 15.0887L216.124 33.8664L224.293 44.4426ZM303.709 58.1478C316.802 72.1852 316.802 94.9472 303.709 108.986C290.614 123.026 269.383 123.024 256.289 108.986C243.196 94.949 243.194 72.187 256.289 58.1478C269.384 44.1087 290.614 44.1087 303.709 58.1478Z" fill="#E0E0E0"/>
<path d="M278.53 230.461C272.485 240.332 268.42 251.173 266.253 262.357L249.639 264.034V298.528L266.254 300.206C268.418 311.386 272.485 322.229 278.53 332.101L267.919 345.843L290.669 370.234L303.486 358.857C312.693 365.338 322.807 369.699 333.237 372.018L334.801 389.832H366.975L368.541 372.02C378.971 369.697 389.085 365.338 398.292 358.857L411.109 370.234L433.859 345.843L423.249 332.101C429.294 322.229 433.36 311.386 435.525 300.206L452.137 298.528V264.034L435.525 262.355C433.36 251.175 429.291 240.332 423.246 230.461L433.858 216.718L411.107 192.327L398.29 203.704C389.081 197.223 378.968 192.861 368.541 190.539L366.975 172.728H334.801L333.237 190.541C322.807 192.863 312.695 197.222 303.488 203.702L290.671 192.326L267.919 216.718L278.53 230.461ZM381.69 248.263C398.697 266.499 398.699 296.066 381.69 314.302C364.679 332.539 337.1 332.537 320.093 314.302C303.082 296.065 303.084 266.5 320.093 248.263C337.103 230.028 364.679 230.026 381.69 248.263Z" fill="#EBEBEB"/>
<path d="M374.102 88.7545C371.727 92.6327 370.13 96.8907 369.278 101.285L362.752 101.944V115.494L369.278 116.153C370.128 120.545 371.725 124.803 374.1 128.683L369.932 134.081L378.869 143.662L383.904 139.194C387.521 141.74 391.494 143.452 395.591 144.363L396.206 151.362H408.845L409.459 144.365C413.556 143.454 417.53 141.74 421.147 139.194L426.182 143.662L435.119 134.081L430.951 128.683C433.326 124.805 434.923 120.547 435.773 116.153L442.299 115.494V101.944L435.773 101.285C434.923 96.8925 433.324 92.6327 430.949 88.7563L435.117 83.3587L426.18 73.7772L421.145 78.2455C417.528 75.6995 413.555 73.9857 409.458 73.074L408.843 66.0774H396.204L395.59 73.0758C391.493 73.9874 387.52 75.6995 383.904 78.2455L378.869 73.7772L369.932 83.3587L374.1 88.7563L374.102 88.7545ZM414.626 95.7476C421.307 102.91 421.307 114.525 414.626 121.69C407.943 128.854 397.109 128.853 390.428 121.69C383.746 114.525 383.746 102.912 390.428 95.7476C397.111 88.5849 407.943 88.5832 414.626 95.7476Z" fill="#E6E6E6"/>
<path d="M432.547 25.9402C430.93 28.5798 429.844 31.4774 429.264 34.4686L424.823 34.9174V44.1402L429.264 44.589C429.843 47.5785 430.93 50.4778 432.547 53.1174L429.709 56.7907L435.792 63.312L439.218 60.2713C441.68 62.0046 444.385 63.1706 447.173 63.7908L447.592 68.5541H456.194L456.613 63.7926C459.401 63.1724 462.106 62.0063 464.568 60.2731L467.994 63.3138L474.077 56.7924L471.241 53.1192C472.857 50.4796 473.943 47.5802 474.523 44.5908L478.965 44.142V34.9192L474.523 34.4704C473.945 31.4809 472.857 28.5816 471.241 25.942L474.078 22.2687L467.996 15.7474L464.569 18.7899C462.107 17.0566 459.403 15.8905 456.615 15.2704L456.196 10.5088H447.593L447.175 15.2721C444.386 15.8923 441.682 17.0584 439.22 18.7916L435.794 15.7492L429.711 22.2705L432.549 25.9437L432.547 25.9402ZM460.128 30.7C464.675 35.5747 464.675 43.4812 460.128 48.3559C455.58 53.2323 448.206 53.2305 443.658 48.3559C439.109 43.4794 439.109 35.5747 443.658 30.7C448.206 25.8236 455.578 25.8236 460.126 30.7H460.128Z" fill="#F0F0F0"/>
<path d="M699.027 226.506C697.41 229.146 696.324 232.044 695.744 235.035L691.303 235.484V244.706L695.744 245.155C696.323 248.145 697.41 251.044 699.027 253.684L696.189 257.357L702.272 263.878L705.698 260.837C708.16 262.571 710.864 263.737 713.653 264.357L714.071 269.12H722.674L723.093 264.359C725.881 263.739 728.585 262.572 731.048 260.839L734.474 263.88L740.556 257.359L737.72 253.685C739.337 251.046 740.423 248.146 741.003 245.157L745.444 244.708V235.485L741.003 235.037C740.425 232.047 739.337 229.148 737.72 226.508L740.556 222.835L734.474 216.314L731.048 219.356C728.585 217.623 725.881 216.457 723.093 215.837L722.674 211.075H714.071L713.653 215.838C710.864 216.458 708.16 217.625 705.698 219.358L702.272 216.315L696.189 222.837L699.027 226.51V226.506ZM726.608 231.266C731.155 236.141 731.155 244.047 726.608 248.922C722.059 253.798 714.686 253.797 710.138 248.922C705.589 244.046 705.589 236.141 710.138 231.266C714.686 226.39 722.059 226.39 726.606 231.266H726.608Z" fill="#F0F0F0"/>
<path d="M138.667 199.403C135.197 205.07 132.863 211.294 131.619 217.715L122.08 218.678V238.48L131.619 239.443C132.861 245.862 135.197 252.086 138.667 257.754L132.575 265.643L145.635 279.645L152.993 273.115C158.28 276.836 164.086 279.34 170.073 280.672L170.971 290.898H189.442L190.34 280.672C196.329 279.338 202.133 276.836 207.42 273.115L214.778 279.645L227.839 265.643L221.748 257.754C225.219 252.086 227.552 245.864 228.795 239.443L238.332 238.478V218.676L228.795 217.713C227.552 211.294 225.217 205.07 221.746 199.403L227.837 191.514L214.777 177.512L207.418 184.044C202.132 180.323 196.326 177.82 190.339 176.486L189.44 166.26H170.97L170.071 176.486C164.084 177.818 158.278 180.32 152.993 184.043L145.635 177.511L132.573 191.514L138.667 199.403ZM197.89 209.623C207.654 220.091 207.654 237.065 197.89 247.535C188.124 258.005 172.291 258.003 162.527 247.535C152.763 237.065 152.763 220.093 162.527 209.623C172.291 199.154 188.124 199.152 197.89 209.623Z" fill="#F0F0F0"/>
<path d="M319.564 444.382C316.093 450.048 313.759 456.272 312.515 462.693L302.977 463.656V483.458L312.515 484.421C313.758 490.838 316.093 497.065 319.564 502.733L313.471 510.622L326.531 524.624L333.89 518.093C339.177 521.814 344.982 524.316 350.97 525.65L351.868 535.876H370.339L371.237 525.65C377.226 524.316 383.03 521.814 388.317 518.093L395.675 524.624L408.735 510.622L402.644 502.733C406.115 497.065 408.449 490.842 409.691 484.421L419.228 483.457V463.654L409.691 462.691C408.449 456.272 406.113 450.048 402.643 444.382L408.734 436.493L395.673 422.491L388.315 429.021C383.028 425.3 377.222 422.796 371.235 421.462L370.337 411.236H351.866L350.968 421.462C344.981 422.795 339.175 425.298 333.89 429.019L326.531 422.487L313.469 436.491L319.562 444.38L319.564 444.382ZM378.786 454.601C388.551 465.069 388.551 482.043 378.786 492.513C369.02 502.982 353.188 502.982 343.423 492.513C333.657 482.045 333.659 465.071 343.423 454.601C353.188 444.133 369.02 444.133 378.786 454.601Z" fill="#F0F0F0"/>
<path d="M133.022 367.88C110.02 396.727 103.302 439.428 116.205 474.768C130.542 461.048 140.638 440.138 141.277 421.848C141.917 403.558 137.451 385.556 133.022 367.88Z" fill="#E6E6E6"/>
<path d="M129.013 478.102C121.208 490.923 117.472 506.537 118.556 521.804C130.992 517.163 141.954 502.104 148.527 489.87C155.099 477.639 158.774 463.9 162.118 450.246C148.647 455.327 136.819 465.282 129.014 478.102H129.013Z" fill="#E6E6E6"/>
<path d="M126.002 418.215C116.767 453.829 112.052 490.757 112.077 527.725C112.083 538.248 112.484 548.766 113.248 559.257C113.309 560.102 114.547 560.109 114.484 559.257C111.797 522.378 113.791 485.153 120.473 448.859C122.349 438.673 124.6 428.571 127.194 418.569C127.406 417.745 126.215 417.395 126.002 418.217V418.215Z" fill="#E0E0E0"/>
<path d="M113.792 533.905C123.235 509.823 135.639 487.272 149.975 466.178C150.445 465.487 149.372 464.826 148.907 465.508C134.502 486.703 122.088 509.355 112.599 533.552C112.29 534.336 113.487 534.679 113.79 533.903L113.792 533.905Z" fill="#E0E0E0"/>
<path d="M100.263 498.079C106.77 508.77 109.887 521.79 108.982 534.52C98.6129 530.649 89.4731 518.092 83.9918 507.894C78.5122 497.694 75.4469 486.238 72.6602 474.853C83.8929 479.091 93.7546 487.39 100.263 498.081V498.079Z" fill="#E6E6E6"/>
<path d="M113.512 542.914C105.755 523.149 95.5256 504.834 83.7622 487.524C83.2991 486.842 82.2263 487.503 82.6943 488.194C94.3885 505.401 104.608 523.615 112.32 543.266C112.624 544.04 113.82 543.7 113.512 542.914Z" fill="#E0E0E0"/>
<path d="M113.837 549.626C128.469 533.488 143.409 517.672 158.043 501.534C158.598 500.922 157.725 499.984 157.169 500.597C142.537 516.735 127.598 532.552 112.963 548.69C112.408 549.301 113.281 550.24 113.837 549.626Z" fill="#E0E0E0"/>
<path d="M158.491 494.009C145.797 507.134 134.23 521.515 123.987 536.907H126.309C135.972 536.421 145.352 531.312 151.413 523.23C157.476 515.149 160.121 504.231 158.491 494.009Z" fill="#E6E6E6"/>
<path d="M98.2699 462.783C103.72 472.34 108.857 482.1 113.667 492.044C114.033 492.802 115.101 492.132 114.735 491.374C109.923 481.43 104.788 471.672 99.3378 462.114C98.9241 461.388 97.8546 462.052 98.2699 462.783Z" fill="#E0E0E0"/>
<path d="M85.2512 414.452C83.173 424.477 81.1114 437.513 81.09 447.951C81.0685 458.389 84.0399 468.575 89.5722 475.57C95.1045 482.565 106.275 485.629 110.777 481.627L85.2512 414.452Z" fill="#E6E6E6"/>
<path d="M143.455 554.176H84.9653V565.195H143.455V554.176Z" fill="#E0E0E0"/>
<path d="M131.443 604.451H97.0076L90.7485 562.671H136.387L131.443 604.451Z" fill="#E0E0E0"/>
<path d="M724.869 367.88C701.866 396.727 695.149 439.428 708.051 474.768C722.389 461.048 732.484 440.138 733.124 421.848C733.763 403.558 729.297 385.556 724.869 367.88Z" fill="#E6E6E6"/>
<path d="M720.857 478.102C713.052 490.924 709.316 506.537 710.4 521.804C722.836 517.163 733.798 502.104 740.371 489.871C746.943 477.639 750.618 463.9 753.962 450.246C740.491 455.328 728.663 465.282 720.858 478.102H720.857Z" fill="#E6E6E6"/>
<path d="M717.848 418.215C708.612 453.829 703.897 490.757 703.922 527.725C703.929 538.248 704.329 548.766 705.094 559.257C705.155 560.102 706.392 560.109 706.33 559.257C703.642 522.378 705.636 485.153 712.319 448.859C714.194 438.673 716.445 428.571 719.039 418.569C719.252 417.745 718.06 417.395 717.848 418.217V418.215Z" fill="#E0E0E0"/>
<path d="M705.637 533.905C715.08 509.823 727.485 487.272 741.821 466.178C742.29 465.487 741.218 464.826 740.753 465.508C726.348 486.703 713.933 509.355 704.444 533.552C704.136 534.336 705.332 534.679 705.636 533.903L705.637 533.905Z" fill="#E0E0E0"/>
<path d="M692.107 498.079C698.615 508.77 701.73 521.79 700.827 534.52C690.458 530.649 681.318 518.092 675.837 507.894C670.357 497.694 667.292 486.238 664.505 474.853C675.738 479.091 685.6 487.39 692.107 498.081V498.079Z" fill="#E6E6E6"/>
<path d="M705.355 542.914C697.598 523.149 687.369 504.834 675.606 487.525C675.143 486.843 674.07 487.503 674.538 488.194C686.232 505.401 696.451 523.615 704.164 543.266C704.467 544.04 705.664 543.701 705.355 542.914Z" fill="#E0E0E0"/>
<path d="M705.682 549.626C720.314 533.488 735.253 517.672 749.888 501.534C750.443 500.922 749.569 499.984 749.014 500.597C734.382 516.735 719.442 532.552 704.808 548.69C704.253 549.301 705.126 550.24 705.682 549.626Z" fill="#E0E0E0"/>
<path d="M750.336 494.009C737.641 507.134 726.074 521.515 715.832 536.907H718.154C727.816 536.421 737.196 531.312 743.258 523.23C749.321 515.149 751.964 504.231 750.334 494.009H750.336Z" fill="#E6E6E6"/>
<path d="M690.117 462.783C695.568 472.34 700.703 482.1 705.514 492.044C705.88 492.802 706.948 492.132 706.582 491.374C701.77 481.431 696.634 471.672 691.184 462.114C690.771 461.388 689.701 462.052 690.117 462.783Z" fill="#E0E0E0"/>
<path d="M677.096 414.452C675.018 424.477 672.956 437.513 672.934 447.951C672.913 458.39 675.884 468.575 681.417 475.57C686.949 482.565 698.119 485.629 702.621 481.627L677.096 414.452Z" fill="#E6E6E6"/>
<path d="M735.3 554.176H676.811V565.195H735.3V554.176Z" fill="#E0E0E0"/>
<path d="M723.286 604.451H688.851L682.592 562.671H728.23L723.286 604.451Z" fill="#E0E0E0"/>
<path d="M324.996 715.218C324.996 727.388 280.584 737.254 225.798 737.254C171.012 737.254 126.6 727.388 126.6 715.218C126.6 703.049 171.012 693.183 225.798 693.183C280.584 693.183 324.996 703.049 324.996 715.218Z" fill="#F5F5F5"/>
<path d="M473.57 792C524.827 792 566.38 782.134 566.38 769.964C566.38 757.794 524.827 747.928 473.57 747.928C422.312 747.928 380.759 757.794 380.759 769.964C380.759 782.134 422.312 792 473.57 792Z" fill="#F5F5F5"/>
<path d="M732.088 680.181C732.088 693.618 690.485 704.512 639.163 704.512C587.841 704.512 546.237 693.62 546.237 680.181C546.237 666.743 587.841 655.851 639.163 655.851C690.485 655.851 732.088 666.743 732.088 680.181Z" fill="#F5F5F5"/>
<path d="M506.006 98.9669C518.886 83.5373 517.661 59.8353 503.269 46.0259C488.877 32.2164 466.769 33.5309 453.888 48.9606C443.946 60.8725 442.445 77.6997 448.883 91.1134L445.118 101.626L456.214 101.463C456.357 101.605 456.481 101.76 456.626 101.902C471.018 115.711 493.126 114.397 506.006 98.9669Z" fill="#407BFF"/>
<path d="M518.331 65.9486C518.122 65.9486 517.944 65.7808 517.921 65.5528C516.752 53.625 509.531 42.4499 499.524 37.0858C499.32 36.9763 499.237 36.7112 499.34 36.4939C499.442 36.2766 499.695 36.1883 499.892 36.296C510.145 41.7926 517.545 53.2399 518.741 65.461C518.764 65.703 518.6 65.9203 518.374 65.9451H518.331V65.9486Z" fill="#407BFF"/>
<path d="M518.55 77.0652C518.518 77.0652 518.487 77.0617 518.454 77.0528C518.232 76.9963 518.095 76.7578 518.148 76.521C518.535 74.7807 518.583 72.9273 518.284 71.1658C518.245 70.9255 518.391 70.6958 518.616 70.6517C518.851 70.6075 519.054 70.7665 519.095 71.0085C519.412 72.8884 519.362 74.8673 518.948 76.726C518.904 76.9292 518.736 77.0652 518.55 77.0652Z" fill="#407BFF"/>
<path d="M479.256 89.9295L463.228 77.1342L467.394 71.1376L478.141 79.7173L492.908 60.83L498.253 65.6322L479.256 89.9295Z" fill="white"/>
<path d="M417.167 174.397C417.167 174.397 451.809 222.144 462.421 229.397C473.032 236.649 508.299 262.5 508.299 262.5L519.842 237.699L464.448 206.069L428.981 167.134L417.167 174.397Z" fill="#BF5E60"/>
<path d="M417.166 174.397C417.166 174.397 413.391 171.083 412.872 164.496C412.353 157.91 415.99 128.902 418.589 129.199C421.188 129.495 420.494 131.352 421.188 140.266C421.88 149.18 423.959 158.751 423.959 158.751L428.983 167.132L417.168 174.396L417.166 174.397Z" fill="#BF5E60"/>
<path d="M415.792 169.35C414.246 166.59 414.668 162.698 415.077 158.933C415.33 156.584 415.573 154.367 415.345 152.503C415.185 151.181 414.986 149.538 415.525 148.079C416.074 146.593 417.659 145.358 419.157 145.9C420.525 146.395 421.093 147.999 421.466 149.503L423.979 159.574L423.185 159.802L420.672 149.731C420.337 148.39 419.89 147.098 418.893 146.738C417.858 146.367 416.693 147.317 416.291 148.404C415.831 149.651 416.006 151.106 416.163 152.39C416.403 154.362 416.154 156.632 415.894 159.037C415.502 162.655 415.096 166.397 416.496 168.897L415.79 169.353L415.792 169.35Z" fill="#A74145"/>
<path d="M572.96 631.103L581.615 652.59L597.718 649.026L592.108 624.639L572.96 631.103Z" fill="#BF5E60"/>
<path d="M577.18 650.219C576.883 649.355 577.386 648.413 578.195 648.169L582.981 646.726C584.181 646.33 586.117 648.291 587.132 649.114C591.504 652.671 593.306 650.187 595.397 644.796C597.434 643.828 598.767 646.293 599.145 646.95L607.645 661.404C608.368 662.608 608.065 664.208 606.969 664.984C606.775 665.122 606.562 665.228 606.338 665.297C599.898 667.422 596.851 668.429 588.835 671.074L564.321 679.166C557.638 681.371 554.134 674.468 556.692 672.878C568.21 665.802 575.83 658.927 578.523 653.728C578.909 653.031 577.722 651.804 577.18 650.219Z" fill="#263238"/>
<path d="M581.781 658C581.684 658 581.589 657.963 581.51 657.89C580.12 656.588 578.215 655.995 576.432 656.307C576.198 656.348 575.995 656.184 575.959 655.942C575.924 655.699 576.076 655.473 576.3 655.434C578.337 655.081 580.483 655.754 582.053 657.224C582.225 657.385 582.241 657.664 582.091 657.85C582.009 657.949 581.895 658 581.781 658Z" fill="white"/>
<path d="M578.938 661.397C578.841 661.397 578.745 661.36 578.666 661.288C577.28 659.986 575.377 659.397 573.587 659.706C573.349 659.747 573.15 659.581 573.114 659.341C573.079 659.099 573.229 658.873 573.455 658.834C575.492 658.482 577.636 659.148 579.21 660.622C579.381 660.782 579.398 661.062 579.248 661.247C579.165 661.346 579.052 661.397 578.938 661.397Z" fill="white"/>
<path d="M575.287 665.094C575.19 665.094 575.094 665.057 575.015 664.984C573.627 663.682 571.727 663.094 569.936 663.403C569.702 663.44 569.499 663.277 569.463 663.037C569.428 662.795 569.578 662.569 569.804 662.53C571.841 662.175 573.986 662.845 575.559 664.318C575.73 664.479 575.747 664.758 575.597 664.943C575.514 665.042 575.4 665.094 575.287 665.094Z" fill="white"/>
<path d="M683.867 584.496L701.454 598.014L713.654 586.045L697.263 568.298L683.867 584.496Z" fill="#BF5E60"/>
<path d="M696.348 598.614C695.685 598.04 695.66 596.946 696.231 596.275L699.597 592.305C700.425 591.28 703.002 591.86 704.253 591.988C709.654 592.549 709.995 589.386 709.194 583.563C710.458 581.57 712.763 582.926 713.396 583.275L727.496 590.84C728.683 591.46 729.192 593.01 728.632 594.299C728.533 594.529 728.403 594.741 728.246 594.928C723.805 600.429 721.704 603.033 716.176 609.879L699.271 630.82C694.663 636.528 688.401 632.597 689.807 629.772C696.186 617.122 699.36 606.867 699.161 600.865C699.156 600.049 697.564 599.669 696.348 598.618V598.614Z" fill="#263238"/>
<path d="M698.575 604.269C698.461 604.269 698.346 604.22 698.265 604.119C698.113 603.936 698.132 603.656 698.301 603.496C699.855 602.033 702.006 601.379 704.035 601.75C704.259 601.789 704.411 602.017 704.371 602.259C704.335 602.499 704.134 602.669 703.896 602.619C702.11 602.305 700.22 602.872 698.847 604.158C698.768 604.232 698.672 604.269 698.575 604.269Z" fill="white"/>
<path d="M697.785 608.812C697.671 608.812 697.556 608.762 697.475 608.662C697.323 608.478 697.342 608.199 697.511 608.038C699.069 606.575 701.216 605.92 703.245 606.292C703.469 606.331 703.62 606.559 703.581 606.801C703.543 607.042 703.345 607.209 703.106 607.162C701.308 606.844 699.426 607.414 698.055 608.701C697.976 608.775 697.88 608.81 697.783 608.81L697.785 608.812Z" fill="white"/>
<path d="M696.456 614.07C696.342 614.07 696.227 614.021 696.146 613.92C695.995 613.736 696.013 613.457 696.182 613.297C697.735 611.835 699.874 611.169 701.916 611.549C702.14 611.588 702.292 611.816 702.252 612.058C702.216 612.298 702.013 612.47 701.777 612.418C699.984 612.099 698.096 612.669 696.726 613.959C696.647 614.033 696.552 614.069 696.454 614.069L696.456 614.07Z" fill="white"/>
<path d="M593.632 624.91L569.869 634.742L535.846 537.341C534.652 533.922 533.997 530.32 533.908 526.671C533.167 496.266 529.91 351.16 529.91 351.16C574.986 307.213 585.11 383.963 584.814 385.015C581.841 395.107 573.343 529.033 573.343 529.033C573.343 529.033 594.149 600.489 593.634 624.912L593.632 624.91Z" fill="#263238"/>
<path d="M529.588 350.938L530.173 351.981C538.891 364.629 555.413 378.098 564.045 389.653L567.049 396.941C567.049 396.941 629.909 344.698 589.052 323.171C587.352 322.275 574.847 315.107 574.847 315.107C564.025 312.259 529.588 350.938 529.588 350.938Z" fill="#263238"/>
<path d="M623.517 397.112C626.938 419.932 637.566 478.873 643.587 501.049C643.587 501.049 662.107 512.411 672.58 525.123L706.005 575.575L691.092 589.927L630.132 542.12C616.35 530.994 610.767 522.75 605.36 511.899C592.131 485.402 585.602 451.654 577.706 424.985C574.051 412.619 560.003 372.781 561.201 359.972C562.798 342.634 563.37 314.598 583.018 324.132C601.815 330.052 612.962 333.817 623.519 397.112H623.517Z" fill="#263238"/>
<path d="M588.484 312.467C583.587 306.448 580.388 299.064 579.256 291.17C577.529 279.134 575.17 262.313 575.436 260.995L576.204 228.538C569.513 221.365 544.672 221.291 544.672 221.291L528.01 225.845C528.01 225.845 521.821 228.766 516.635 231.877C509.712 236.033 506.071 236.25 505.119 241.026C505.119 241.026 503.758 256.671 503.385 272.53C503.252 278.189 527.752 330.203 528.064 340L528.07 355.949C563.585 375.128 600.892 327.711 600.892 327.711L588.488 312.467H588.484Z" fill="#407BFF"/>
<path opacity="0.3" d="M576.805 273.629C576.805 273.629 561.236 258.558 562.026 251.505L575.264 259.131L576.151 268.681L576.805 273.629Z" fill="black"/>
<path d="M588.218 242.703C588.579 243.275 611.126 270.484 620.186 280.785C622.129 282.993 623.632 285.598 624.611 288.447L643.201 344.145L631.558 347.878L604.835 294.006L571.249 263.542L588.218 242.703Z" fill="#BF5E60"/>
<path d="M631.12 343.41C631.12 343.41 628.01 347.219 628.313 351.392C628.618 355.565 627.825 358.984 628.251 362.071C628.676 365.157 630.78 361.601 631.543 359.467C632.305 357.332 633.19 354.922 634.592 355.795C635.994 356.668 642.975 369.617 645.049 370.589C647.122 371.562 646.604 369.089 646.604 369.089C646.604 369.089 648.379 372.184 649.714 371.765C650.06 371.656 650.703 370.801 650.1 369.253C648.745 365.774 645.55 358.627 645.55 358.627C645.724 359.041 650.256 367.559 651.09 368.741C652.179 370.285 653.429 370.416 654.241 369.709C655.4 368.703 650.118 357.936 650.192 357.316C650.192 357.316 653.04 363.624 654.96 363.726C656.881 363.829 655.291 359.755 653.252 356.447C651.383 353.415 648.457 346.942 646.278 344.058C643.593 340.503 641.046 338.763 637.173 339.842C633.3 340.922 631.118 343.408 631.118 343.408L631.12 343.41Z" fill="#BF5E60"/>
<path d="M571.928 226.093C579.479 226.613 593.187 246.855 593.187 246.855L575.44 268.361C575.44 268.361 558.792 252.779 558.505 242.351C558.286 233.538 562.337 225.416 571.928 226.093Z" fill="#407BFF"/>
<path d="M518.078 231.778C518.078 231.778 491.741 221.306 492.171 221.632C492.602 221.957 481.568 248.314 481.568 248.314L507.257 266.91L518.078 231.778Z" fill="#407BFF"/>
<path d="M597.754 201.795C605.831 197.12 610.29 186.237 608.038 176.696C603.339 178.924 598.591 181.17 593.55 182.237C588.509 183.304 583.077 183.106 578.496 180.61C575.046 178.73 572.296 175.689 569.497 172.823C566.699 169.957 563.669 167.143 559.977 165.903C556.284 164.664 551.758 165.388 549.375 168.657L544.207 177.408C547.587 176.576 551.137 178.754 553.087 181.83C555.036 184.906 555.687 188.703 556.066 192.401C556.444 196.097 556.605 199.871 557.741 203.386C559.194 207.882 562.175 211.67 565.649 214.631C573.362 221.204 583.908 223.95 593.478 221.444C603.049 218.941 611.353 211.087 614.466 201.066C608.984 202.294 603.311 202.543 597.752 201.797L597.754 201.795Z" fill="#263238"/>
<path d="M521.061 160.74C521.061 160.74 508.675 184.671 508.088 192.115C503.347 196.444 499.977 187.668 500.155 175.906C500.3 166.279 504.984 155.89 512.744 152.15C523.646 146.893 521.063 160.742 521.063 160.742L521.061 160.74Z" fill="#263238"/>
<path d="M520.484 242.703C520.484 242.703 517.148 231.672 520.194 229.844C522.269 227.623 524.97 225.031 524.576 221.798C524.302 219.312 523.554 216.729 522.663 214.213L525.758 210.605L541.858 194.403C541.091 205.61 536.692 214.882 544.668 221.292" fill="#BF5E60"/>
<path opacity="0.2" d="M524.67 222.759C529.034 220.206 533.881 215.672 533.502 210.262C533.329 207.985 532.945 205.817 532.483 204.419L523.39 216.398C524.034 218.411 524.25 219.734 524.67 222.759Z" fill="black"/>
<path d="M546.869 176.542C544.829 193.595 544.302 200.841 535.762 209.491C522.917 222.504 504.011 217.225 501.305 200.136C498.868 184.756 502.616 159.452 518.527 152.87C534.203 146.386 548.911 159.487 546.869 176.54V176.542Z" fill="#BF5E60"/>
<path d="M525.224 182.553C525.211 184.159 524.352 185.521 523.302 185.597C522.254 185.673 521.415 184.435 521.429 182.83C521.442 181.224 522.302 179.862 523.349 179.784C524.397 179.708 525.236 180.947 525.222 182.553H525.224Z" fill="#263238"/>
<path d="M510.038 181.305C510.109 182.858 509.324 184.235 508.284 184.378C507.246 184.521 506.346 183.376 506.275 181.823C506.205 180.27 506.989 178.894 508.029 178.751C509.067 178.608 509.967 179.751 510.038 181.305Z" fill="#263238"/>
<path d="M529.471 177.042C529.267 177.056 529.064 176.982 528.912 176.818C526.559 174.258 523.756 174.977 523.723 174.986C523.307 175.093 522.904 174.825 522.828 174.371C522.755 173.918 523.035 173.461 523.456 173.346C523.602 173.307 527.121 172.401 530.041 175.581C530.331 175.897 530.315 176.433 530.003 176.775C529.853 176.94 529.66 177.03 529.469 177.044L529.471 177.042Z" fill="#263238"/>
<path d="M504.737 173.54C504.553 173.475 504.395 173.339 504.307 173.146C504.124 172.747 504.304 172.254 504.704 172.047C508.732 169.964 511.872 171.77 512.003 171.851C512.376 172.072 512.486 172.569 512.249 172.961C512.013 173.353 511.519 173.491 511.146 173.273C511.025 173.201 508.569 171.837 505.367 173.494C505.159 173.602 504.934 173.613 504.737 173.544V173.54Z" fill="#263238"/>
<path d="M506.052 157.95C509.429 150.425 523.183 143.434 538.999 150.699C562.59 159.264 551.279 200.286 544.208 192.175C542.285 189.968 540.663 187.781 539.298 185.675C531.091 173.019 519.63 163.197 506.104 157.971L506.053 157.951L506.052 157.95Z" fill="#263238"/>
<path d="M551.224 190.675C549.221 194.111 546.083 196.194 543.248 196.841C538.986 197.813 537.05 190.445 538.645 185.965C540.082 181.931 544.324 179.388 548.405 180.438C552.426 181.473 553.515 186.745 551.224 190.675Z" fill="#BF5E60"/>
<path d="M514.581 179.977C514.581 179.977 511.867 186.284 508.916 190.168C508.4 190.846 508.67 191.876 509.425 192.208C511.369 193.063 513.7 192.449 513.7 192.449L514.58 179.977H514.581Z" fill="#A74145"/>
<path d="M523.667 179.73L519.965 178.988C519.965 178.988 522.096 181.815 523.667 179.73Z" fill="#263238"/>
<path d="M508.564 178.77L504.828 178.265C506.646 180.403 508.096 179.474 508.564 178.77Z" fill="#263238"/>
<path opacity="0.2" d="M544.209 192.617C544.022 192.617 543.853 192.481 543.808 192.278C543.755 192.039 543.892 191.801 544.115 191.746C546.402 191.161 547.431 189.907 547.89 188.956C548.398 187.912 548.362 186.96 548.177 186.461C547.803 185.456 546.611 184.654 545.507 185.11C545.296 185.193 545.056 185.083 544.975 184.855C544.893 184.627 545 184.371 545.212 184.285C546.789 183.64 548.418 184.714 548.945 186.134C549.278 187.032 549.154 188.269 548.625 189.362C548.085 190.476 546.897 191.942 544.308 192.603C544.275 192.612 544.243 192.615 544.212 192.615L544.209 192.617Z" fill="black"/>
<path d="M512.233 198.039C513.431 199.926 514.899 203.603 514.899 203.603C515.234 203.52 515.568 203.439 515.898 203.336C520.41 202.094 522.121 199.919 522.648 197.886C522.933 196.773 522.851 195.69 522.679 194.838C522.491 193.848 522.147 193.189 522.147 193.189C520.122 195.38 515.998 196.884 513.765 197.591C512.833 197.896 512.233 198.039 512.233 198.039Z" fill="#263238"/>
<path d="M513.765 197.591L514.591 199.209C518.838 198.029 521.681 196.585 522.681 194.838C522.493 193.848 522.149 193.189 522.149 193.189C520.123 195.38 516 196.884 513.767 197.591H513.765Z" fill="white"/>
<path d="M515.898 203.336C520.41 202.094 522.121 199.919 522.648 197.885C521.125 198.371 519.341 199.14 517.894 200.329C516.783 201.232 516.208 202.315 515.898 203.336Z" fill="#FB504E"/>
<path d="M219.146 254.518C219.146 254.518 194.856 295.752 190.338 316.6C187.887 327.913 201.61 379.867 201.61 379.867L215.428 377.812C215.428 377.812 208.147 324.816 210.745 319.701C218.559 304.309 242.836 271.094 242.462 270.099C242.088 269.105 219.148 254.516 219.148 254.516L219.146 254.518Z" fill="#FDAC6D"/>
<path d="M202.11 394.978C203.654 398.828 205.782 403.821 207.621 404.305C209.46 404.788 209.979 403.222 211.15 403.206C212.32 403.19 213.809 404.62 215.871 402.003C215.871 402.003 220.031 403.793 221.262 400.627C224.184 400.323 224.978 398.462 224.455 395.114C224.294 394.317 222.496 389.893 222.409 389.066C222.692 389.236 225.434 393.996 225.841 394.134C229.276 395.307 230.995 394.771 231.028 393.042C231.044 392.149 230.537 391.34 229.808 390.911C228.023 389.86 227.397 382.121 225.311 380.806C223.561 379.704 217.526 376.402 215.026 375.711C212.526 375.02 202.339 378.015 202.339 378.015C202.339 378.015 200.566 391.128 202.11 394.978Z" fill="#FDAC6D"/>
<path d="M303.788 229.749C303.788 229.749 339.086 219.48 348.275 212.391C357.465 205.305 373.884 157 373.884 157L386.085 157.212C386.085 157.212 376.86 212.596 368.534 224.211C360.208 235.826 318.339 257.295 318.339 257.295L303.786 229.749H303.788Z" fill="#FDAC6D"/>
<path d="M374.976 158.859C374.976 158.859 370.465 155.318 369.811 150.411C369.158 145.505 367.418 141.773 367.168 138.09C366.917 134.406 370.205 137.931 371.599 140.187C372.993 142.441 374.597 144.982 376.007 143.584C377.418 142.187 382.365 125.294 384.526 123.595C386.686 121.895 386.683 124.897 386.683 124.897C386.683 124.897 387.988 120.828 389.631 120.943C390.058 120.973 391.006 121.785 390.683 123.739C389.954 128.135 387.985 137.275 387.985 137.275C388.089 136.749 391.273 125.651 391.952 124.056C392.84 121.971 394.251 121.473 395.36 122.065C396.94 122.906 393.43 136.809 393.664 137.505C393.664 137.505 395.436 129.429 397.631 128.778C399.826 128.128 398.969 133.277 397.41 137.664C395.981 141.685 394.159 149.975 392.334 153.911C390.088 158.761 387.563 161.479 382.829 161.304C378.094 161.129 374.976 158.859 374.976 158.859Z" fill="#FDAC6D"/>
<path d="M287.405 690.393L303.351 693.071L316.785 656.862L295.854 649.69L287.405 690.393Z" fill="#FDAC6D"/>
<path d="M305.317 690.156L300.276 688.594C299.135 688.241 297.912 688.532 296.973 689.309C292.919 692.665 291.167 690.378 289.086 685.398C287.143 684.523 285.935 686.829 285.592 687.442L277.861 700.971C277.204 702.096 277.52 703.582 278.57 704.287C278.756 704.412 278.959 704.508 279.171 704.57C285.292 706.467 288.189 707.365 295.808 709.725L319.109 716.946C325.46 718.914 328.628 712.46 326.182 711.013C315.169 704.58 307.838 698.285 305.19 693.49C304.689 692.638 305.513 692.373 305.317 690.156Z" fill="#263238"/>
<path d="M315.129 697.725C315.77 697.481 316.264 696.925 316.461 696.227C316.607 695.865 316.546 695.444 316.306 695.147C315.05 693.458 307.896 694.663 307.088 694.813C307.001 694.819 306.922 694.866 306.871 694.942C306.777 695.082 306.807 695.278 306.937 695.379C308.38 696.252 309.903 696.962 311.484 697.495C312.645 697.987 313.923 698.068 315.131 697.727L315.129 697.725ZM315.773 695.536C315.879 695.661 315.9 695.843 315.829 695.994C315.666 696.492 315.312 696.889 314.857 697.087C313.117 697.791 309.794 696.225 308.034 695.278C310.984 694.854 315.076 694.612 315.773 695.536Z" fill="#407BFF"/>
<path d="M307.131 695.513C309.252 695.253 314.116 693.147 314.377 691.317C314.444 690.937 314.316 690.419 313.493 690.03C310.151 688.536 306.878 694.728 306.801 695.011C306.737 695.113 306.735 695.249 306.798 695.354C306.857 695.394 306.925 695.416 306.995 695.416L307.129 695.514L307.131 695.513ZM313.231 690.541C313.854 690.809 313.788 691.057 313.764 691.145C313.655 692.278 310.028 694.154 307.656 694.681C308.503 693.26 310.815 689.772 313.006 690.451L313.231 690.539V690.541Z" fill="#407BFF"/>
<path d="M302.614 697.483C302.501 697.483 302.389 697.433 302.306 697.334C302.155 697.152 302.169 696.873 302.341 696.711C303.798 695.318 305.818 694.663 307.751 694.974C307.977 695.009 308.132 695.232 308.099 695.474C308.064 695.714 307.85 695.88 307.631 695.847C305.933 695.582 304.163 696.152 302.886 697.37C302.809 697.446 302.71 697.481 302.613 697.481L302.614 697.483Z" fill="#407BFF"/>
<path d="M305.064 700.981C304.951 700.981 304.839 700.932 304.756 700.833C304.605 700.651 304.62 700.372 304.789 700.209C306.248 698.817 308.271 698.167 310.201 698.473C310.425 698.508 310.582 698.731 310.549 698.973C310.514 699.216 310.312 699.388 310.081 699.345C308.395 699.079 306.617 699.649 305.338 700.868C305.259 700.944 305.162 700.98 305.063 700.98L305.064 700.981Z" fill="#407BFF"/>
<path d="M308.39 704.315C308.276 704.315 308.164 704.266 308.082 704.167C307.93 703.985 307.945 703.706 308.115 703.543C309.572 702.153 311.594 701.497 313.527 701.806C313.753 701.842 313.908 702.064 313.875 702.306C313.84 702.547 313.621 702.713 313.407 702.679C311.709 702.414 309.939 702.983 308.664 704.202C308.585 704.278 308.487 704.313 308.389 704.313L308.39 704.315Z" fill="#407BFF"/>
<path d="M144.562 631.442L159.542 637.888L180.209 605.832L161.312 593.811L144.562 631.442Z" fill="#FDAC6D"/>
<path d="M162.068 635.52L157.484 632.785C156.445 632.167 155.195 632.156 154.115 632.688C149.461 634.983 148.233 632.335 147.246 626.979C145.536 625.661 143.878 627.617 143.415 628.133L133.05 639.457C132.174 640.395 132.172 641.92 133.049 642.859C133.205 643.027 133.382 643.169 133.576 643.28C139.145 646.6 141.78 648.172 148.71 652.305L169.906 664.945C175.684 668.39 180.121 662.862 178.041 660.865C168.654 651.946 162.827 644.05 161.249 638.739C160.94 637.789 161.797 637.727 162.068 635.52Z" fill="#263238"/>
<path d="M170.046 645.255C170.721 645.171 171.32 644.748 171.657 644.114C171.875 643.796 171.905 643.374 171.733 643.024C170.863 641.075 163.638 640.529 162.821 640.483C162.735 640.467 162.648 640.496 162.582 640.556C162.461 640.669 162.448 640.867 162.554 640.996C163.777 642.193 165.113 643.25 166.542 644.151C167.57 644.909 168.798 645.296 170.047 645.254L170.046 645.255ZM171.132 643.276C171.207 643.423 171.193 643.607 171.09 643.736C170.828 644.181 170.4 644.485 169.914 644.568C168.07 644.835 165.159 642.511 163.643 641.165C166.606 641.462 170.647 642.211 171.132 643.278V643.276Z" fill="#407BFF"/>
<path d="M162.713 641.177C164.834 641.434 170.015 640.552 170.653 638.831C170.798 638.476 170.782 637.941 170.061 637.365C167.118 635.105 162.632 640.352 162.499 640.609C162.415 640.693 162.385 640.824 162.425 640.942C162.472 640.995 162.535 641.033 162.604 641.05L162.715 641.179L162.713 641.177ZM169.699 637.799C170.249 638.211 170.132 638.437 170.091 638.517C169.748 639.594 165.821 640.552 163.4 640.496C164.522 639.315 167.507 636.472 169.498 637.66L169.699 637.799Z" fill="#407BFF"/>
<path d="M157.993 642.02C157.848 642.02 157.707 641.937 157.633 641.79C157.524 641.577 157.596 641.308 157.796 641.19C159.508 640.184 161.614 640.039 163.432 640.801C163.644 640.889 163.748 641.144 163.666 641.372C163.582 641.598 163.341 641.709 163.132 641.623C161.54 640.96 159.691 641.084 158.19 641.965C158.127 642.002 158.059 642.018 157.992 642.018L157.993 642.02Z" fill="#407BFF"/>
<path d="M159.649 646.02C159.504 646.02 159.362 645.937 159.288 645.79C159.18 645.577 159.252 645.308 159.451 645.192C161.164 644.186 163.272 644.04 165.089 644.799C165.302 644.888 165.406 645.142 165.323 645.37C165.241 645.596 165.002 645.707 164.789 645.621C163.194 644.958 161.347 645.08 159.847 645.965C159.784 646.002 159.717 646.018 159.649 646.018V646.02Z" fill="#407BFF"/>
<path d="M162.191 650.068C162.046 650.068 161.904 649.985 161.83 649.838C161.721 649.625 161.794 649.356 161.993 649.238C163.705 648.232 165.811 648.089 167.629 648.849C167.842 648.937 167.946 649.192 167.863 649.42C167.781 649.646 167.54 649.757 167.329 649.671C165.737 649.008 163.888 649.132 162.387 650.013C162.324 650.05 162.257 650.066 162.189 650.066L162.191 650.068Z" fill="#407BFF"/>
<path d="M145.547 614.382L172.828 632.715C172.828 632.715 235.363 542.121 247.024 518.88C258.684 495.639 282.336 434.984 282.336 434.984L282.291 435.103C282.848 436.859 285.076 455.131 290.254 473.616C297.016 497.795 304.144 523.861 305.526 530.619C309.548 550.52 285.924 674.592 285.924 674.592L314.633 683.239C314.633 683.239 348.958 558.102 350.555 541.207C354.279 501.797 325.871 403.881 325.073 398.869C324.042 392.466 322.886 373.052 322.886 373.052L247.739 351.935C247.739 351.935 242.281 362.978 238.614 373.105C224.878 411.111 213.919 480.427 210.013 494.712C189.662 521.82 145.547 614.382 145.547 614.382Z" fill="#263238"/>
<path d="M295.052 261.008C306.158 269.402 346.563 255.651 346.563 255.651L341.011 217.372C341.011 217.372 324.482 221.56 307.14 227.016C295.35 230.666 282.857 251.88 295.053 261.008H295.052Z" fill="#407BFF"/>
<path d="M232.618 231.235C235.407 248.281 231.971 265.462 232.337 282.762C232.651 294.867 232.65 306.821 232.243 317.258C231.336 341.666 228.142 373.331 228.273 379.681C257.477 368.84 317.416 416.564 339.546 389.692C319.359 312.392 314.181 224.849 314.181 224.849C305.917 224.849 301.235 228.017 295.099 227.231C293.804 227.072 292.489 226.933 291.139 226.814C280.165 226.282 269.169 226.429 258.212 227.251C256.139 227.39 254.029 227.588 251.974 227.805C241.462 228.897 232.62 231.233 232.62 231.233L232.618 231.235Z" fill="#407BFF"/>
<path d="M233.843 230.934C220.073 233.038 192.426 283.517 192.426 283.517L228.186 304.929C228.186 304.929 240.366 278.05 249.269 261.083C258.949 242.609 250.501 228.395 233.843 230.934Z" fill="#407BFF"/>
<path d="M301.959 158.074L303.622 159.122C305.57 159.164 307.401 160.742 307.857 162.774C308.314 164.806 307.356 167.103 305.641 168.094C305.382 168.242 305.084 168.396 304.993 168.695C304.846 169.173 305.314 169.582 305.67 169.91C307.421 171.532 307.203 174.757 305.631 176.575C304.057 178.393 301.557 178.979 299.25 178.783C298.648 171.806 302.519 165.055 301.959 158.074Z" fill="#263238"/>
<path d="M252.402 177.712C249.925 177.839 247.448 176.202 246.446 173.769C246.169 173.096 245.996 172.35 246.11 171.626C246.418 169.663 248.519 168.763 250.307 168.221C248.31 167.698 246.972 165.569 246.588 163.405C246.413 162.415 246.398 161.373 246.698 160.417C247.203 158.809 248.546 157.631 250.012 156.996C251.479 156.362 253.081 156.194 254.656 156.032L263.734 186.905C261.707 187.393 259.602 187.69 257.555 187.315C255.508 186.94 253.509 185.824 252.367 183.963C251.225 182.103 251.115 179.458 252.402 177.712Z" fill="#263238"/>
<path d="M287.626 226.669C284.33 221.643 285.554 214.492 286.363 212.029C286.767 210.651 287.258 209.303 287.835 207.997L263.959 185.81C265.462 197.363 270.274 219.342 261.897 227.001C261.897 227.001 279.44 240.145 283.784 235.65C288.128 231.157 287.627 226.667 287.627 226.667L287.626 226.669Z" fill="#FDAC6D"/>
<path opacity="0.2" d="M268.235 197.564C266.806 211.047 279.408 217.579 285.78 219.731C285.359 217.16 285.564 214.515 286.371 212.054L268.233 197.564H268.235Z" fill="black"/>
<path d="M259.865 175.737C262.813 191.667 264.166 200.715 272.986 207.808C286.253 218.48 303.977 208.741 305.661 192.156C307.177 177.226 302.103 153.684 286.203 149.526C270.539 145.429 256.916 159.809 259.865 175.739V175.737Z" fill="#FDAC6D"/>
<path d="M255.504 156.696C256.518 147.555 277.802 144.526 284.311 148.23C285.284 148.783 273.494 157.12 274.222 156.723L268.55 159.68C267.609 159.596 265.951 160.956 265.389 164.044C265.389 164.044 269.132 188.575 263.322 196.625C257.599 194.632 256.068 184.914 253.647 179.338C250.04 171.029 245.414 158.765 255.503 156.696H255.504Z" fill="#263238"/>
<path d="M255.443 189.965C257.19 193.93 260.541 196.661 263.797 197.822C268.695 199.57 269.758 194.092 268.692 189.092C267.732 184.592 265.765 179.219 260.707 179.638C255.725 180.05 253.446 185.431 255.445 189.965H255.443Z" fill="#FDAC6D"/>
<path d="M282.989 176.106C283.194 177.749 284.196 178.958 285.227 178.806C286.259 178.654 286.93 177.196 286.724 175.553C286.519 173.91 285.518 172.702 284.486 172.853C283.454 173.005 282.785 174.463 282.989 176.106Z" fill="#263238"/>
<path d="M298.026 175.583C298.231 177.228 299.232 178.435 300.264 178.283C301.296 178.129 301.967 176.673 301.762 175.03C301.558 173.387 300.556 172.179 299.524 172.331C298.493 172.484 297.822 173.94 298.026 175.583Z" fill="#263238"/>
<path d="M292.877 175.308C292.877 175.308 298.889 182.787 300.905 185.891C298.967 188.26 295.064 187.827 295.064 187.827L292.877 175.308Z" fill="#ED8640"/>
<path d="M277.69 170.121C277.94 170.189 278.22 170.121 278.416 169.91C280.76 167.433 283.458 167.946 283.484 167.951C283.888 168.032 284.283 167.758 284.366 167.34C284.448 166.921 284.188 166.514 283.785 166.431C283.644 166.401 280.264 165.758 277.357 168.834C277.067 169.142 277.068 169.631 277.36 169.928C277.454 170.025 277.568 170.089 277.688 170.121H277.69Z" fill="#263238"/>
<path opacity="0.2" d="M266.05 189.322C265.866 189.322 265.699 189.189 265.652 188.99C265.345 187.7 264.719 186.513 263.837 185.555C263.265 184.933 262.346 184.166 261.204 184.036C260.195 183.923 259.168 184.428 258.776 185.242C258.672 185.461 258.423 185.544 258.222 185.433C258.02 185.322 257.941 185.055 258.044 184.84C258.593 183.693 259.943 182.998 261.291 183.159C262.674 183.318 263.758 184.214 264.422 184.937C265.406 186.006 266.106 187.332 266.448 188.774C266.504 189.011 266.37 189.251 266.149 189.311C266.115 189.32 266.08 189.325 266.047 189.325L266.05 189.322Z" fill="black"/>
<path d="M303.988 167.649C304.122 167.599 304.244 167.509 304.335 167.382C304.582 167.037 304.519 166.55 304.193 166.292C300.92 163.714 297.701 164.938 297.551 164.974C297.166 165.122 296.965 165.571 297.103 165.974C297.24 166.375 297.662 166.581 298.046 166.438C298.178 166.382 300.669 165.472 303.295 167.541C303.501 167.703 303.761 167.733 303.988 167.649Z" fill="#263238"/>
<path d="M250.509 149.406C251.293 145.54 255.838 144.159 259.436 144.498C258.777 139.969 264.179 136.658 267.773 136.351C271.517 136.029 273.023 137.423 273.023 137.423C272.742 137.521 273.908 135.035 274.688 134.01C277.564 130.229 282.572 128.591 286.87 130.026C291.17 131.46 294.508 135.885 294.993 140.787C297.043 138.052 301.199 137.653 303.66 139.955C306.12 142.257 306.422 146.826 304.288 149.484C307.045 149.334 309.654 152.065 309.649 155.095C309.642 158.125 307.02 160.834 304.265 160.655C304.461 164.041 304.566 168.285 304.762 171.672L299.126 159.809C296.816 159.249 296.28 158.244 295.56 155.768C294.266 159.139 291.677 159.187 288.352 159.449C285.026 159.71 281.631 157.777 279.902 154.643C278.541 158.166 275.558 161.072 272.082 161.397C268.607 161.723 264.922 158.945 264.531 155.139C262.831 158.631 258.638 160.369 255.253 158.986C251.868 157.602 249.724 153.272 250.51 149.406H250.509Z" fill="#263238"/>
<path d="M294.495 193.281C293.214 195.051 292.056 196.917 291.029 198.866C290.686 198.731 290.332 198.602 289.994 198.45C285.322 196.542 283.735 194.01 283.419 191.768C283.282 190.669 283.387 189.551 283.727 188.503C283.905 187.908 284.16 187.342 284.483 186.823C286.398 189.424 290.612 191.558 292.916 192.597C293.928 192.995 294.497 193.283 294.497 193.283L294.495 193.281Z" fill="#263238"/>
<path d="M292.971 192.566L291.905 194.185C287.52 192.381 284.657 190.494 283.782 188.472C283.96 187.877 284.216 187.312 284.539 186.792C286.464 189.416 290.668 191.527 292.971 192.566Z" fill="white"/>
<path d="M290.05 198.421C285.378 196.513 283.791 193.981 283.474 191.739C285.237 192.499 286.861 193.587 288.27 194.953C289.186 195.882 289.807 197.094 290.05 198.421Z" fill="#D7504D"/>
<path d="M484.51 284.375C486.523 286.681 488.157 288.746 489.878 290.957C491.598 293.167 493.227 295.351 494.797 297.61C497.994 302.075 501.017 306.687 503.963 311.354C506.91 316.022 509.702 320.8 512.317 325.766L514.542 329.696C515.372 331.176 516.037 332.687 516.737 334.18C518.042 337.141 519.155 340.196 520.063 343.322C521.814 349.21 523.008 355.276 523.626 361.421C524.252 367.319 524.471 373.257 524.278 379.188C524.143 384.976 523.682 390.748 522.897 396.476C522.152 402.217 521.065 407.902 519.639 413.493L506.066 411.072C506.083 406.125 506.012 400.715 505.741 395.57C505.471 390.427 505.036 385.232 504.428 380.188C503.416 370.531 501.157 361.071 497.714 352.081C496.887 350.088 495.954 348.149 494.921 346.27C494.392 345.385 493.902 344.461 493.352 343.652C493.04 343.216 492.854 342.887 492.473 342.367L491.351 340.79C488.304 336.632 485.295 332.479 482.193 328.318C479.092 324.157 476.026 320 472.933 316.019L463.823 304.047L484.515 284.375H484.51Z" fill="#FFBBB5"/>
<path d="M447.283 294.771C444.322 306.102 476.076 328.947 476.076 328.947L503.296 306.724C497.229 296.204 490.299 286.285 482.59 277.085C469.866 261.896 452.092 276.416 447.283 294.771Z" fill="#263238"/>
<path opacity="0.2" d="M447.283 294.771C444.322 306.102 476.076 328.947 476.076 328.947L503.296 306.724C497.229 296.204 490.299 286.285 482.59 277.085C469.866 261.896 452.092 276.416 447.283 294.771Z" fill="white"/>
<path opacity="0.2" d="M469.483 308.162C464.933 305.129 463.885 311.365 464.191 319.394C470.467 324.917 476.06 328.947 476.06 328.947L479.526 326.113C477.301 318.646 474.054 311.198 469.484 308.162H469.483Z" fill="black"/>
<path d="M509.9 407.196C509.9 407.196 504.38 408.148 501.716 412.2C499.051 416.249 495.918 418.724 494.131 421.882C492.345 425.041 496.768 423.504 498.968 422.177C501.167 420.85 503.673 419.369 504.336 421.3C504.998 423.233 502.235 440.69 503.438 443.257C504.641 445.824 505.911 443.149 505.911 443.149C505.911 443.149 505.346 447.409 506.859 448.108C507.251 448.29 508.441 448.029 508.982 446.131C510.199 441.863 512.324 432.762 512.324 432.762C512.192 433.281 510.318 444.716 510.246 446.467C510.152 448.757 511.197 449.888 512.436 449.903C514.201 449.926 516.974 435.833 517.48 435.327C517.48 435.327 515.63 443.382 517.307 445.032C518.985 446.683 520.409 441.679 520.882 437.013C521.315 432.735 523.21 424.463 523.258 420.069C523.318 414.654 522.222 411.003 517.932 408.85C513.642 406.696 509.9 407.196 509.9 407.196Z" fill="#FFBBB5"/>
<path d="M377.184 457.389C377.184 457.389 411.591 460.629 449.983 455.417C488.377 450.205 488.77 443.724 488.77 443.724L477.297 429.524C477.297 429.524 451.194 422.673 449.126 422.277C447.06 421.879 377.184 457.391 377.184 457.391V457.389Z" fill="#263238"/>
<path d="M527.733 733.079L511.973 736.812L496.469 701.568L516.944 693.018L527.733 733.079Z" fill="#FFBBB5"/>
<path d="M509.842 734.034L514.783 732.14C515.9 731.711 517.138 731.921 518.12 732.635C522.361 735.715 523.976 733.317 525.767 728.206C527.656 727.204 528.994 729.425 529.373 730.015L537.872 743.003C538.593 744.082 538.363 745.586 537.356 746.36C537.176 746.498 536.98 746.605 536.771 746.681C530.77 748.982 527.933 750.07 520.465 752.934L497.627 761.692C491.401 764.079 487.868 757.848 490.225 756.242C500.844 749.088 507.797 742.317 510.162 737.354C510.614 736.471 509.777 736.261 509.844 734.034H509.842Z" fill="#263238"/>
<path d="M504.112 741.766C505.658 741.128 507.138 740.319 508.527 739.351C508.651 739.241 508.669 739.045 508.567 738.911C508.511 738.838 508.428 738.798 508.343 738.796C507.528 738.699 500.318 737.973 499.162 739.743C498.939 740.056 498.903 740.48 499.069 740.831C499.307 741.515 499.831 742.038 500.485 742.24C501.709 742.499 502.98 742.333 504.11 741.766H504.112ZM507.428 739.324C505.727 740.386 502.5 742.169 500.722 741.584C500.256 741.416 499.88 741.043 499.687 740.558C499.607 740.413 499.618 740.231 499.715 740.098C500.356 739.13 504.457 739.098 507.426 739.326L507.428 739.324Z" fill="#407BFF"/>
<path d="M508.469 739.393C508.538 739.389 508.606 739.363 508.662 739.319C508.718 739.209 508.709 739.075 508.639 738.976C508.546 738.699 504.921 732.737 501.671 734.451C500.873 734.895 500.774 735.419 500.863 735.794C501.231 737.603 506.208 739.381 508.339 739.499L508.467 739.391L508.469 739.393ZM502.183 734.84C504.329 734.016 506.839 737.345 507.767 738.706C505.371 738.338 501.641 736.706 501.466 735.582C501.438 735.495 501.358 735.253 501.963 734.942L502.182 734.838L502.183 734.84Z" fill="#407BFF"/>
<path d="M512.937 741.167C512.848 741.167 512.759 741.135 512.684 741.072C511.339 739.939 509.529 739.492 507.861 739.867C507.629 739.922 507.42 739.763 507.374 739.528C507.326 739.289 507.469 739.054 507.69 739.005C509.597 738.565 511.654 739.082 513.191 740.378C513.369 740.528 513.402 740.805 513.26 740.998C513.18 741.107 513.059 741.167 512.937 741.167Z" fill="#407BFF"/>
<path d="M510.694 744.823C510.605 744.823 510.516 744.791 510.44 744.727C509.094 743.595 507.284 743.146 505.616 743.522C505.382 743.58 505.175 743.418 505.129 743.183C505.081 742.943 505.224 742.709 505.445 742.66C507.357 742.222 509.41 742.739 510.948 744.033C511.126 744.183 511.159 744.46 511.017 744.653C510.936 744.763 510.816 744.823 510.694 744.823Z" fill="#407BFF"/>
<path d="M507.568 748.372C507.479 748.372 507.39 748.341 507.314 748.277C505.969 747.144 504.16 746.697 502.492 747.072C502.259 747.129 502.05 746.968 502.004 746.733C501.956 746.494 502.1 746.259 502.32 746.21C504.227 745.772 506.282 746.288 507.822 747.583C507.999 747.733 508.032 748.01 507.891 748.203C507.81 748.312 507.69 748.372 507.568 748.372Z" fill="#407BFF"/>
<path d="M432.309 757.395L416.17 757.604L407.698 719.709L429.369 715.818L432.309 757.395Z" fill="#FFBBB5"/>
<path d="M414.61 754.418L419.808 753.645C420.984 753.47 422.154 753.945 422.98 754.858C426.546 758.8 428.583 756.807 431.309 752.196C433.348 751.629 434.236 754.095 434.495 754.756L440.343 769.329C440.844 770.544 440.332 771.965 439.2 772.502C438.999 772.597 438.784 772.661 438.565 772.689C432.253 773.629 429.267 774.074 421.413 775.244L397.388 778.822C390.839 779.797 388.565 772.924 391.179 771.868C402.937 767.187 411.03 762.081 414.29 757.738C414.9 756.972 414.122 756.583 414.612 754.418H414.61Z" fill="#263238"/>
<path d="M407.53 760.736C409.165 760.45 410.769 759.981 412.313 759.338C412.456 759.259 412.511 759.07 412.436 758.916C412.397 758.833 412.323 758.775 412.239 758.755C411.459 758.481 404.539 756.193 403.071 757.674C402.792 757.932 402.677 758.338 402.774 758.72C402.876 759.441 403.29 760.068 403.892 760.407C405.04 760.93 406.316 761.045 407.532 760.736H407.53ZM411.24 759.071C409.373 759.739 405.876 760.778 404.246 759.817C403.821 759.55 403.524 759.103 403.428 758.586C403.377 758.427 403.424 758.25 403.544 758.142C404.355 757.335 408.376 758.2 411.238 759.073L411.24 759.071Z" fill="#407BFF"/>
<path d="M412.247 759.366C412.316 759.376 412.387 759.366 412.45 759.336C412.525 759.242 412.542 759.108 412.492 758.996C412.455 758.705 410.039 752.076 406.533 753.042C405.668 753.3 405.472 753.793 405.487 754.18C405.502 756.032 410.037 758.86 412.1 759.443L412.247 759.366ZM406.96 753.533C409.216 753.198 411.042 757.005 411.69 758.539C409.414 757.654 406.075 755.24 406.118 754.104C406.106 754.012 406.074 753.758 406.726 753.586L406.96 753.533Z" fill="#407BFF"/>
<path d="M416.367 762.088C416.25 762.088 416.133 762.035 416.052 761.931C414.953 760.531 413.279 759.696 411.57 759.696H411.56C411.332 759.696 411.148 759.5 411.148 759.254C411.148 759.01 411.331 758.812 411.56 758.812H411.571C413.519 758.812 415.431 759.765 416.685 761.36C416.832 761.546 416.809 761.826 416.636 761.984C416.558 762.053 416.464 762.088 416.37 762.088H416.367Z" fill="#407BFF"/>
<path d="M413.476 765.175C413.359 765.175 413.242 765.122 413.162 765.018C412.062 763.618 410.39 762.784 408.686 762.784H408.669C408.442 762.784 408.257 762.588 408.257 762.344C408.257 762.093 408.448 761.901 408.686 761.901C410.632 761.901 412.539 762.851 413.793 764.447C413.939 764.632 413.916 764.913 413.743 765.071C413.666 765.139 413.572 765.175 413.478 765.175H413.476Z" fill="#407BFF"/>
<path d="M409.74 767.966C409.623 767.966 409.506 767.913 409.425 767.809C408.326 766.41 406.652 765.574 404.948 765.574H404.931C404.704 765.574 404.519 765.378 404.519 765.134C404.519 764.883 404.712 764.687 404.948 764.69C406.892 764.69 408.801 765.643 410.056 767.238C410.203 767.424 410.18 767.705 410.007 767.862C409.929 767.931 409.836 767.966 409.742 767.966H409.74Z" fill="#407BFF"/>
<path d="M443.521 228.067C441.837 239.791 440.537 261.217 448.437 268.645C442.776 275.204 435.355 282.81 422.471 283.868C409.587 284.926 411.481 275.262 414.694 270.147C426.692 266.511 426.005 256.91 423.543 247.94L443.521 228.067Z" fill="#FFBBB5"/>
<path d="M410.592 214.61C410.396 215.889 409.625 216.819 408.852 216.693C408.081 216.568 407.601 215.427 407.779 214.146C407.957 212.865 408.745 211.958 409.518 212.084C410.291 212.209 410.769 213.351 410.591 214.612L410.592 214.61Z" fill="#263238"/>
<path d="M410.104 215.833C408.134 219.483 405.702 222.823 402.877 225.756C404.321 227.275 406.317 228.033 408.33 227.83L410.104 215.833Z" fill="#E97A75"/>
<path d="M414.019 210.025C413.807 209.923 413.657 209.713 413.622 209.465C413.37 207.561 412.276 205.903 410.684 205.016C410.324 204.852 410.156 204.407 410.31 204.02C410.463 203.635 410.878 203.455 411.239 203.619C413.261 204.723 414.664 206.805 415.008 209.211C415.067 209.621 414.807 210.004 414.426 210.07C414.291 210.105 414.146 210.089 414.019 210.025Z" fill="#263238"/>
<path d="M451.197 218.07C447.527 233.392 446.106 242.549 437.388 249.044C424.259 258.753 407.69 247.986 407.011 231.807C406.396 217.241 412.484 194.651 427.746 191.31C438.632 188.926 449.26 196.455 451.485 208.126C452.113 211.42 452.014 214.826 451.195 218.07H451.197Z" fill="#FFBBB5"/>
<path d="M421.642 220.637C417.751 215.257 419.879 204.294 422.758 199.159C419.581 201.076 409.178 199.7 409.579 190.919C410.154 178.055 430.472 176.268 441.407 179.187C453.999 182.643 464.756 196.124 469.383 191.968C473.465 200.799 465.382 203.317 465.382 203.317C465.382 203.317 472.147 225.086 442.252 244.227C438.332 243.395 434.301 243.337 430.36 244.053C429.469 243.996 428.633 243.568 428.032 242.86C425.274 239.554 417.794 229.409 421.642 220.637Z" fill="#263238"/>
<path d="M464.319 202.776C464.319 202.776 469.688 204.329 471.731 200.695C470.917 206.013 467.867 205.87 464.319 202.776Z" fill="#263238"/>
<path d="M430.942 226.121C428.937 229.468 425.774 231.825 422.149 232.671C417.348 233.736 415.255 229.04 416.869 224.406C418.312 220.18 422.571 214.55 427.264 215.566C431.958 216.582 433.324 222.01 430.942 226.121Z" fill="#FFBBB5"/>
<path d="M421.398 411.995C421.398 411.995 438.682 543.087 448.39 588.504C459.013 638.407 497.257 724.006 497.257 724.006L525.741 714.181C525.741 714.181 501.502 645.556 492.926 596.55C487.13 563.167 482.397 494.346 482.122 457.752C481.904 428.848 472.603 410.502 472.603 410.502L421.398 411.993V411.995Z" fill="#407BFF"/>
<path opacity="0.2" d="M437.509 471.515C438.722 507.74 439.401 512.026 439.226 539.999C434.445 510.021 429.483 475.301 425.907 449.608L437.511 471.515H437.509Z" fill="black"/>
<path d="M406.085 742.708L432.549 741.155C432.549 741.155 427.907 639.33 427.223 589.701C427.007 574.604 428.574 553.372 430.946 530.559C433.924 501.799 435.504 490.307 439.431 453.972C442.224 428.064 444.855 411.328 444.855 411.328L382.409 410.996C382.409 410.996 384.035 538.907 387.428 587.385C391.003 637.722 406.082 742.708 406.082 742.708H406.085Z" fill="#407BFF"/>
<path d="M404.587 744.514L434.543 743.509L434.258 733.134L404.084 733.848L404.587 744.514Z" fill="#407BFF"/>
<path opacity="0.3" d="M404.587 744.514L434.543 743.509L434.258 733.134L404.084 733.848L404.587 744.514Z" fill="black"/>
<path d="M496.742 725.923L526.846 714.167L523.566 704.511L492.47 714.162L496.742 725.923Z" fill="#407BFF"/>
<path opacity="0.3" d="M496.742 725.923L526.846 714.167L523.566 704.511L492.47 714.162L496.742 725.923Z" fill="black"/>
<path opacity="0.2" d="M451.828 451.158L437.509 471.515C437.509 471.515 448.943 468.243 451.828 451.158Z" fill="black"/>
<path d="M476.935 279.271C467.042 339.774 488.978 431.177 488.772 443.725C469.355 413.731 401.115 456.732 377.186 457.389C388.536 350.749 395.011 271.871 395.011 271.871C395.011 271.871 400.034 270.463 406.901 269.223C409.053 268.834 411.389 268.477 413.814 268.165C415.139 267.986 416.519 267.85 417.898 267.712C429.154 267.157 440.43 267.286 451.672 268.101C453.798 268.228 455.979 268.359 458.076 268.663C460.174 268.967 461.926 269.131 463.731 269.378C466.509 269.783 469.082 270.214 471.267 270.605C475.046 271.292 477.589 275.135 476.948 279.188L476.935 279.271Z" fill="#263238"/>
<path opacity="0.2" d="M476.935 279.271C467.042 339.774 488.978 431.177 488.772 443.725C469.355 413.731 401.115 456.732 377.186 457.389C388.536 350.749 395.011 271.871 395.011 271.871C395.011 271.871 400.034 270.463 406.901 269.223C409.053 268.834 411.389 268.477 413.814 268.165C415.139 267.986 416.519 267.85 417.898 267.712C429.154 267.157 440.43 267.286 451.672 268.101C453.798 268.228 455.979 268.359 458.076 268.663C460.174 268.967 461.926 269.131 463.731 269.378C466.509 269.783 469.082 270.214 471.267 270.605C475.046 271.292 477.589 275.135 476.948 279.188L476.935 279.271Z" fill="white"/>
<path opacity="0.2" d="M393.014 298.985C392.575 302.079 392.177 305.453 391.802 309.088C397.079 308.847 403.53 307.801 406.397 304.713C409.901 300.789 399.886 299.455 393.014 298.985Z" fill="black"/>
<path d="M388.686 172.066C388.686 172.066 394.009 173.898 398.096 171.581C402.183 169.265 406.021 168.581 408.95 166.634C411.876 164.687 407.285 163.906 404.762 164.021C402.241 164.136 399.381 164.239 399.607 162.194C399.833 160.15 409.676 145.931 409.688 143.058C409.701 140.185 407.437 141.952 407.437 141.952C407.437 141.952 409.741 138.429 408.687 137.07C408.414 136.717 407.244 136.372 405.96 137.802C403.071 141.015 397.329 148.097 397.329 148.097C397.667 147.698 404.17 138.416 404.976 136.89C406.028 134.895 405.574 133.379 404.477 132.763C402.913 131.884 394.483 143.1 393.819 143.305C393.819 143.305 398.874 137.022 398.076 134.736C397.278 132.45 393.895 136.219 391.5 140.148C389.305 143.75 384.119 150.203 382.221 154.097C379.879 158.896 379.314 162.682 382.227 166.686C385.141 170.689 388.687 172.062 388.687 172.062L388.686 172.066Z" fill="#FFBBB5"/>
<path d="M379.982 162.206C379.982 162.206 351.464 205.663 349.247 222.37C347.031 239.077 382.209 287.647 382.209 287.647L406.749 274.942C406.749 274.942 372.71 232.441 372.965 221.805C373.219 211.168 394.135 168.27 394.135 168.27L379.982 162.206Z" fill="#FFBBB5"/>
<path d="M391.924 298.883C387.165 294.784 365.364 271.168 365.364 271.168L383.04 239.284C383.04 239.284 408.271 254.654 423.027 266.472C438.149 278.591 407.205 302.045 391.926 298.883H391.924Z" fill="#263238"/>
<path opacity="0.2" d="M391.924 298.883C387.165 294.784 365.364 271.168 365.364 271.168L383.04 239.284C383.04 239.284 408.271 254.654 423.027 266.472C438.149 278.591 407.205 302.045 391.926 298.883H391.924Z" fill="white"/>
</svg>
