<svg width="24" height="24" viewBox="0 0 24 24" fill="none" xmlns="http://www.w3.org/2000/svg">
<path d="M12.0576 0.47998C5.6952 0.47998 0.537598 5.63758 0.537598 12C0.537598 18.3624 5.6952 23.52 12.0576 23.52C18.42 23.52 23.5776 18.3624 23.5776 12C23.5776 5.63758 18.42 0.47998 12.0576 0.47998ZM9.2376 16.7748H6.9048V9.26758H9.2376V16.7748ZM8.0568 8.34598C7.32 8.34598 6.8436 7.82398 6.8436 7.17838C6.8436 6.51958 7.3344 6.01318 8.0868 6.01318C8.8392 6.01318 9.3 6.51958 9.3144 7.17838C9.3144 7.82398 8.8392 8.34598 8.0568 8.34598ZM17.7576 16.7748H15.4248V12.6144C15.4248 11.646 15.0864 10.9884 14.2428 10.9884C13.5984 10.9884 13.2156 11.4336 13.0464 11.862C12.984 12.0144 12.9684 12.2304 12.9684 12.4452V16.7736H10.6344V11.6616C10.6344 10.7244 10.6044 9.94078 10.5732 9.26638H12.6L12.7068 10.3092H12.7536C13.0608 9.81958 13.8132 9.09718 15.072 9.09718C16.6068 9.09718 17.7576 10.1256 17.7576 12.336V16.7748Z" fill="#9497A1"/>
</svg>
