<svg width="24" height="24" viewBox="0 0 24 24" fill="none" xmlns="http://www.w3.org/2000/svg">
<path d="M12.0576 0.47998C5.6952 0.47998 0.537598 5.63758 0.537598 12C0.537598 18.3624 5.6952 23.52 12.0576 23.52C18.42 23.52 23.5776 18.3624 23.5776 12C23.5776 5.63758 18.42 0.47998 12.0576 0.47998ZM16.7436 9.91678C16.7484 10.0152 16.7496 10.1136 16.7496 10.2096C16.7496 13.2096 14.4684 16.6668 10.2948 16.6668C9.06155 16.6688 7.85396 16.3146 6.8172 15.6468C6.9936 15.6684 7.1748 15.6768 7.3584 15.6768C8.4216 15.6768 9.3996 15.3156 10.176 14.706C9.70286 14.6967 9.2444 14.54 8.86453 14.2578C8.48466 13.9756 8.2023 13.5819 8.0568 13.1316C8.39658 13.1962 8.74662 13.1827 9.0804 13.092C8.56686 12.9881 8.10504 12.7099 7.77325 12.3044C7.44146 11.8989 7.26013 11.3911 7.26 10.8672V10.8396C7.566 11.0088 7.9164 11.112 8.2884 11.124C7.80696 10.8035 7.46614 10.3112 7.33565 9.74774C7.20516 9.18429 7.29486 8.59228 7.5864 8.09278C8.15634 8.79358 8.86711 9.36688 9.67268 9.77555C10.4782 10.1842 11.3607 10.4192 12.2628 10.4652C12.1481 9.97835 12.1975 9.46727 12.4032 9.01139C12.609 8.5555 12.9595 8.18037 13.4005 7.9443C13.8414 7.70823 14.348 7.62445 14.8415 7.70599C15.3349 7.78753 15.7876 8.02981 16.1292 8.39518C16.637 8.29471 17.124 8.10845 17.5692 7.84438C17.4 8.37014 17.0456 8.81659 16.572 9.10078C17.0218 9.0466 17.461 8.92567 17.8752 8.74198C17.571 9.19785 17.1878 9.59571 16.7436 9.91678Z" fill="#9497A1"/>
</svg>
