<svg width="43" height="45" viewBox="0 0 43 45" fill="none" xmlns="http://www.w3.org/2000/svg">
<rect width="43" height="45" rx="8" fill="#0C44CC" fill-opacity="0.1"/>
<path d="M26.5 28.93H22.5L18.05 31.89C17.39 32.33 16.5 31.86 16.5 31.06V28.93C13.5 28.93 11.5 26.93 11.5 23.93V17.9299C11.5 14.9299 13.5 12.9299 16.5 12.9299H26.5C29.5 12.9299 31.5 14.9299 31.5 17.9299V23.93C31.5 26.93 29.5 28.93 26.5 28.93Z" stroke="#2E73FF" stroke-width="1.5" stroke-miterlimit="10" stroke-linecap="round" stroke-linejoin="round"/>
<path d="M21.4998 21.8599V21.6499C21.4998 20.9699 21.9198 20.6099 22.3398 20.3199C22.7498 20.0399 23.1598 19.6799 23.1598 19.0199C23.1598 18.0999 22.4198 17.3599 21.4998 17.3599C20.5798 17.3599 19.8398 18.0999 19.8398 19.0199" stroke="#2E73FF" stroke-width="1.5" stroke-linecap="round" stroke-linejoin="round"/>
<path d="M21.4955 24.25H21.5045" stroke="#2E73FF" stroke-width="1.5" stroke-linecap="round" stroke-linejoin="round"/>
</svg>
