<svg width="25" height="25" viewBox="0 0 25 25" fill="none" xmlns="http://www.w3.org/2000/svg">
<path d="M12.5 0C5.60769 0 0 5.60769 0 12.5C0 19.3923 5.60769 25 12.5 25C19.3923 25 25 19.3923 25 12.5C25 5.60769 19.3923 0 12.5 0ZM9.29425 3.84615H15.7039C18.7087 3.84615 21.1538 6.2904 21.1538 9.29425V15.7039C21.1538 18.7087 18.7096 21.1538 15.7058 21.1538H9.29612C6.29132 21.1538 3.84615 18.7096 3.84615 15.7058V9.29612C3.84615 6.29132 6.2904 3.84615 9.29425 3.84615ZM9.29425 5.76923C7.35098 5.76923 5.76923 7.35189 5.76923 9.29612V15.7058C5.76923 17.649 7.35189 19.2308 9.29612 19.2308H15.7058C17.649 19.2308 19.2308 17.6481 19.2308 15.7039V9.29425C19.2308 7.35098 17.6481 5.76923 15.7039 5.76923H9.29425ZM16.9884 7.37117C17.3423 7.37117 17.6288 7.65772 17.6288 8.01157C17.6288 8.36541 17.3423 8.65385 16.9884 8.65385C16.6346 8.65385 16.3462 8.36541 16.3462 8.01157C16.3462 7.65772 16.6346 7.37117 16.9884 7.37117ZM12.5 7.69231C15.151 7.69231 17.3077 9.84904 17.3077 12.5C17.3077 15.151 15.151 17.3077 12.5 17.3077C9.84904 17.3077 7.69231 15.151 7.69231 12.5C7.69231 9.84904 9.84904 7.69231 12.5 7.69231ZM12.5 9.61538C11.735 9.61538 11.0012 9.9193 10.4603 10.4603C9.9193 11.0012 9.61538 11.735 9.61538 12.5C9.61538 13.265 9.9193 13.9988 10.4603 14.5397C11.0012 15.0807 11.735 15.3846 12.5 15.3846C13.265 15.3846 13.9988 15.0807 14.5397 14.5397C15.0807 13.9988 15.3846 13.265 15.3846 12.5C15.3846 11.735 15.0807 11.0012 14.5397 10.4603C13.9988 9.9193 13.265 9.61538 12.5 9.61538Z" fill="#2E73FF"/>
</svg>
